{
.appVersion = "3133";
.formatVersion = 3;
DisplayStrings = (
"@ads&das¶ø 1675S",
"¶§adsss",
"Być może do kąpieli w kąpieli mydlanej dociera się do luksusowego kąpieli, do całego ciała z ciepłą wodą i mydłem, po czym następuje zimna kąpiel lub kąpiel gąbczasta. Kąpiel jest zarazem koniecznością i luksusem, a aby uzyskać jak najwięcej korzyści, w tym zwiększone zdrowie, apetyt, wigor i dobre duchy, kąpiel mydlana jest najbardziej skuteczna, a poza tym najmilsza i najmniej trudna. do słabej lub wrażliwej konstytucji.",
"§ Kannski er mjög mikið af lúxus baða í sápubaðinu, umsókn um heitt vatn og sápu í allan líkamann, strax fylgt með kulda, eða svampabað. Baði er í einu nauðsyn og lúxus og til þess að fá mestan fjölda ávinnings, þar með talin aukin heilsa, matarlyst, kraftur og góð andi, er sápubadurinn mest áhrifamikill og jafnframt skemmtilegasti og minnst að reyna til veikburða eða yfir viðkvæmar stjórnarskrárinnar.",
"Vielleicht ist der Höhepunkt des luxuriösen Badens im Seifenbad erreicht, eine Anwendung von heißem Wasser und Seife auf den ganzen Körper, unmittelbar gefolgt von einem kalten Sprung oder einem Schwammbad. Ein Bad ist sofort eine Notwendigkeit und ein Luxus, und um die größte Anzahl von Vorteilen einschließlich erhöhter Gesundheit, Appetit, Energie und guten Geistern zu erhalten, ist das Seifenbad das wirksamste und außerdem das angenehmste und am wenigsten probierende zu der schwachen oder überempfindlichen Verfassung.",
"Møller Champagne™"
);
axes = (
{
name = Weight;
tag = wght;
}
);
classes = (
{
automatic = 1;

glyphs = (
{
glyphname = A;
kernLeft = A;
kernRight = A;
lastChange = "2023-01-20 17:39:52 +0000";
layers = (
{
associatedMasterId = "3E87E8DA-1F15-4738-9454-A2AB4CEA57DC";
background = {
shapes = (
{
closed = 1;
nodes = (
(470,114,o),
(552,196,o),
(552,298,cs),
(552,400,o),
(470,482,o),
(368,482,cs),
(267,482,o),
(185,400,o),
(185,298,cs),
(185,196,o),
(267,114,o),
(368,114,cs)
);
},
{
closed = 1;
nodes = (
(533,0,o),
(666,133,o),
(666,298,cs),
(666,463,o),
(533,596,o),
(368,596,cs),
(204,596,o),
(70,463,o),
(70,298,cs),
(70,133,o),
(204,0,o),
(368,0,cs)
);
},
{
closed = 1;
nodes = (
(425,596,o),
(470,642,o),
(470,698,cs),
(470,754,o),
(425,800,o),
(368,800,cs),
(312,800,o),
(267,754,o),
(267,698,cs),
(267,642,o),
(312,596,o),
(368,596,cs)
);
},
{
closed = 1;
nodes = (
(487,482,o),
(585,579,o),
(585,698,cs),
(585,817,o),
(487,914,o),
(368,914,cs),
(249,914,o),
(152,817,o),
(152,698,cs),
(152,579,o),
(249,482,o),
(368,482,cs)
);
}
);
};
guides = (
{
angle = 180;
pos = (387,578);
},
{
angle = 90;
pos = (390,960);
}
);
layerId = "371D1437-C0E0-41D5-93C1-F65F3387C8DA";
name = "Jan 8 17, 21:42";
shapes = (
{
closed = 1;
nodes = (
(11,0,l),
(123,0,l),
(409,754,l),
(371,948,l)
);
},
{
closed = 1;
nodes = (
(178,329,l),
(559,329,l),
(559,427,l),
(178,427,l)
);
},
{
closed = 1;
nodes = (
(614,0,l),
(731,0,l),
(371,948,l),
(328,754,l)
);
}
);
width = 743;
},
{
anchors = (
{
name = top;
pos = (428,914);
}
);
associatedMasterId = "3E87E8DA-1F15-4738-9454-A2AB4CEA57DC";
background = {
shapes = (
{
closed = 1;
nodes = (
(235,272,l),
(616,272,l),
(616,369,l),
(235,369,l)
);
},
{
closed = 1;
nodes = (
(428,948,l),
(40,0,l),
(151,0,l),
(373,550,ls),
(391,596,o),
(409,636,o),
(426,699,c),
(442,636,o),
(460,596,o),
(478,550,cs),
(700,0,l),
(817,0,l)
);
}
);
};
guides = (
{
angle = 180;
pos = (447,578);
},
{
angle = 90;
pos = (450,960);
},
{
angle = -247.724;
pos = (735,0);
},
{
angle = 247.7241;
pos = (246,498);
},
{
angle = 247.7241;
pos = (159,0);
}
);
layerId = "2A282EA4-3796-486D-8FBA-32CB49DACD9E";
name = "Mar 20 17, 10:17";
shapes = (
{
closed = 1;
nodes = (
(157,0,l),
(267,272,l),
(585,272,l),
(694,0,l),
(817,0,l),
(435,931,l),
(422,931,l),
(40,0,l)
);
},
{
closed = 1;
nodes = (
(376,550,ls),
(394,596,o),
(409,636,o),
(426,699,c),
(442,636,o),
(457,596,o),
(475,550,cs),
(548,369,l),
(303,369,l)
);
}
);
width = 857;
},
{
anchors = (
{
name = bottom;
pos = (400,0);
},
{
name = ogonek;
pos = (681,0);
},
{
name = top;
pos = (400,900);
},
{
name = "top-vertical";
pos = (120,720);
}
);
guides = (
{
angle = 247.6695;
pos = (209,465);
},
{
angle = -68.2901;
pos = (554,270);
},
{
angle = -68.2901;
pos = (489,270);
},
{
angle = 68.1986;
pos = (307,270);
}
);
layerId = "3E87E8DA-1F15-4738-9454-A2AB4CEA57DC";
shapes = (
{
closed = 1;
nodes = (
(782,0,l),
(401,930,l),
(399,930,l),
(344,796,l),
(661,0,l)
);
},
{
closed = 1;
nodes = (
(133,0,l),
(365,580,l),
(309,721,l),
(18,0,l)
);
},
{
closed = 1;
nodes = (
(585,267,l),
(547,362,l),
(344,362,l),
(306,267,l)
);
}
);
width = 800;
},
{
associatedMasterId = "5864D40E-51E2-4FDD-96DA-51B6D988DC78";
background = {
shapes = (
{
closed = 1;
nodes = (
(470,114,o),
(552,196,o),
(552,298,cs),
(552,400,o),
(470,482,o),
(368,482,cs),
(267,482,o),
(185,400,o),
(185,298,cs),
(185,196,o),
(267,114,o),
(368,114,cs)
);
},
{
closed = 1;
nodes = (
(533,0,o),
(666,133,o),
(666,298,cs),
(666,463,o),
(533,596,o),
(368,596,cs),
(204,596,o),
(70,463,o),
(70,298,cs),
(70,133,o),
(204,0,o),
(368,0,cs)
);
},
{
closed = 1;
nodes = (
(425,596,o),
(470,642,o),
(470,698,cs),
(470,754,o),
(425,800,o),
(368,800,cs),
(312,800,o),
(267,754,o),
(267,698,cs),
(267,642,o),
(312,596,o),
(368,596,cs)
);
},
{
closed = 1;
nodes = (
(487,482,o),
(585,579,o),
(585,698,cs),
(585,817,o),
(487,914,o),
(368,914,cs),
(249,914,o),
(152,817,o),
(152,698,cs),
(152,579,o),
(249,482,o),
(368,482,cs)
);
}
);
};
guides = (
{
angle = 180;
pos = (387,578);
},
{
angle = 90;
pos = (390,960);
}
);
layerId = "6A1203ED-EB1D-49EB-B0F6-F146D0E99ADB";
name = "Jan 8 17, 21:42";
shapes = (
{
closed = 1;
nodes = (
(11,0,l),
(123,0,l),
(409,754,l),
(371,948,l)
);
},
{
closed = 1;
nodes = (
(178,329,l),
(559,329,l),
(559,427,l),
(178,427,l)
);
},
{
closed = 1;
nodes = (
(614,0,l),
(731,0,l),
(371,948,l),
(328,754,l)
);
}
);
width = 743;
},
{
anchors = (
{
name = top;
pos = (428,914);
}
);
associatedMasterId = "5864D40E-51E2-4FDD-96DA-51B6D988DC78";
background = {
shapes = (
{
closed = 1;
nodes = (
(235,272,l),
(616,272,l),
(616,369,l),
(235,369,l)
);
},
{
closed = 1;
nodes = (
(428,948,l),
(40,0,l),
(151,0,l),
(373,550,ls),
(391,596,o),
(409,636,o),
(426,699,c),
(442,636,o),
(460,596,o),
(478,550,cs),
(700,0,l),
(817,0,l)
);
}
);
};
guides = (
{
angle = 180;
pos = (447,578);
},
{
angle = 90;
pos = (450,960);
},
{
angle = -247.724;
pos = (735,0);
},
{
angle = 247.7241;
pos = (246,498);
},
{
angle = 247.7241;
pos = (159,0);
}
);
layerId = "74E80672-4A67-4A41-B8DA-39D7947D0DE7";
name = "Mar 20 17, 10:17";
shapes = (
{
closed = 1;
nodes = (
(157,0,l),
(267,272,l),
(585,272,l),
(694,0,l),
(817,0,l),
(435,931,l),
(422,931,l),
(40,0,l)
);
},
{
closed = 1;
nodes = (
(376,550,ls),
(394,596,o),
(409,636,o),
(426,699,c),
(442,636,o),
(457,596,o),
(475,550,cs),
(548,369,l),
(303,369,l)
);
}
);
width = 857;
},
{
anchors = (
{
name = bottom;
pos = (410,0);
},
{
name = ogonek;
pos = (670,0);
},
{
name = top;
pos = (410,900);
},
{
name = "top-vertical";
pos = (130,720);
}
);
guides = (
{
angle = -67.257;
pos = (544,198);
},
{
angle = 67.257;
pos = (254,160);
},
{
angle = 67.257;
pos = (320,160);
},
{
angle = -67.257;
pos = (478,198);
}
);
layerId = "5864D40E-51E2-4FDD-96DA-51B6D988DC78";
shapes = (
{
closed = 1;
nodes = (
(808,0,l),
(411,932,l),
(409,932,l),
(322,728,l),
(627,0,l)
);
},
{
closed = 1;
nodes = (
(187,0,l),
(374,447,l),
(289,650,l),
(12,0,l)
);
},
{
closed = 1;
nodes = (
(626,160,l),
(566,304,l),
(380,304,l),
(320,160,l)
);
}
);
width = 820;
},
{
anchors = (
{
name = bottom;
pos = (400,0);
},
{
name = ogonek;
pos = (681,0);
},
{
name = top;
pos = (400,900);
},
{
name = "top-vertical";
pos = (120,720);
}
);
associatedMasterId = "3E87E8DA-1F15-4738-9454-A2AB4CEA57DC";
guides = (
{
angle = 247.6695;
pos = (209,465);
},
{
angle = -68.2901;
pos = (554,270);
},
{
angle = -68.2901;
pos = (489,270);
},
{
angle = 68.1986;
pos = (307,270);
}
);
layerId = "F081A861-A706-4945-B81E-D8B96FE5EED5";
name = "20 Jan 23, 18:39";
shapes = (
{
closed = 1;
nodes = (
(782,0,l),
(401,930,l),
(399,930,l),
(344,796,l),
(661,0,l)
);
},
{
closed = 1;
nodes = (
(133,0,l),
(365,580,l),
(309,721,l),
(18,0,l)
);
},
{
closed = 1;
nodes = (
(490,267,l),
(452,362,l),
(247,362,l),
(211,267,l)
);
}
);
width = 800;
}
);
unicode = 65;
},
{
glyphname = Aogonek;
kernLeft = A;
kernRight = A;
lastChange = "2022-05-21 06:52:01 +0000";
layers = (
{
anchors = (
{
name = top;
pos = (400,900);
},
{
name = "top-vertical";
pos = (120,720);
}
);
background = {
shapes = (
{
closed = 1;
nodes = (
(133,0,l),
(349,540,l),
(367,586,o),
(381,624,o),
(397,686,c),
(413,624,o),
(428,585,o),
(446,540,c),
(661,0,l),
(782,0,l),
(400,930,l),
(18,0,l)
);
},
{
closed = 1;
nodes = (
(548,362,l),
(247,362,l),
(211,267,l),
(583,267,l)
);
},
{
closed = 1;
nodes = (
(784,-312,o),
(823,-299,o),
(852,-277,c),
(828,-180,l),
(813,-205,o),
(790,-228,o),
(750,-228,cs),
(705,-228,o),
(678,-199,o),
(678,-157,cs),
(678,-98,o),
(739,-40,o),
(782,0,c),
(661,0,l),
(591,-78,o),
(576,-128,o),
(576,-168,cs),
(576,-256,o),
(646,-312,o),
(737,-312,cs)
);
}
);
};
layerId = "3E87E8DA-1F15-4738-9454-A2AB4CEA57DC";
shapes = (
{
ref = A;
},
{
pos = (278,0);
ref = ogonekcomb.A;
}
);
width = 800;
},
{
anchors = (
{
name = top;
pos = (400,900);
},
{
name = "top-vertical";
pos = (120,720);
}
);
background = {
shapes = (
{
closed = 1;
nodes = (
(133,0,l),
(349,540,l),
(367,586,o),
(381,624,o),
(397,686,c),
(413,624,o),
(428,585,o),
(446,540,c),
(661,0,l),
(782,0,l),
(400,930,l),
(18,0,l)
);
},
{
closed = 1;
nodes = (
(548,362,l),
(247,362,l),
(211,267,l),
(583,267,l)
);
},
{
closed = 1;
nodes = (
(784,-312,o),
(823,-299,o),
(852,-277,c),
(828,-180,l),
(813,-205,o),
(790,-228,o),
(750,-228,cs),
(705,-228,o),
(678,-199,o),
(678,-157,cs),
(678,-98,o),
(739,-40,o),
(782,0,c),
(661,0,l),
(591,-78,o),
(576,-128,o),
(576,-168,cs),
(576,-256,o),
(646,-312,o),
(737,-312,cs)
);
}
);
};
layerId = "5864D40E-51E2-4FDD-96DA-51B6D988DC78";
shapes = (
{
ref = A;
},
{
pos = (267,0);
ref = ogonekcomb.A;
}
);
width = 820;
}
);
unicode = 260;
},
{
glyphname = Aring;
kernLeft = A;
kernRight = A;
lastChange = "2023-01-25 17:10:24 +0000";
layers = (
{
layerId = "5864D40E-51E2-4FDD-96DA-51B6D988DC78";
shapes = (
{
ref = A.ring;
},
{
pos = (50,0);
ref = ringcomb.case;
}
);
width = 820;
},
{
anchors = (
{
name = top;
pos = (400,900);
}
);
associatedMasterId = "3E87E8DA-1F15-4738-9454-A2AB4CEA57DC";
guides = (
{
angle = 112.2936;
pos = (598,450);
},
{
angle = -68.2855;
pos = (600,597);
}
);
layerId = "12B8DD98-B08D-4869-A1E4-B2F81E89B308";
name = "25 Jan 23, 18:10";
shapes = (
{
closed = 1;
nodes = (
(782,0,l),
(411,907,l),
(407,906,o),
(404,906,o),
(400,906,cs),
(354,906,o),
(316,944,o),
(316,990,cs),
(316,1026,o),
(340,1058,o),
(373,1069,c),
(373,1147,l),
(298,1134,o),
(244,1068,o),
(244,990,cs),
(244,911,o),
(298,846,o),
(373,833,c),
(387,900,l),
(344,796,l),
(661,0,l)
);
},
{
closed = 1;
nodes = (
(133,0,l),
(365,580,l),
(309,721,l),
(18,0,l)
);
},
{
closed = 1;
nodes = (
(585,267,l),
(547,362,l),
(344,362,l),
(306,267,l)
);
},
{
closed = 1;
nodes = (
(532,891,o),
(556,938,o),
(556,990,cs),
(556,1068,o),
(502,1134,o),
(427,1147,c),
(427,1069,l),
(460,1058,o),
(484,1026,o),
(484,990,cs),
(484,970,o),
(477,951,o),
(465,937,c),
(494,862,l)
);
}
);
width = 800;
},
{
layerId = "3E87E8DA-1F15-4738-9454-A2AB4CEA57DC";
name = Regular;
shapes = (
{
ref = A.ring;
},
{
pos = (40,0);
ref = ringcomb.case;
}
);
width = 800;
}
);
unicode = 197;
},
{
glyphname = AE;
kernLeft = A;
kernRight = A;
lastChange = "2023-01-27 14:46:55 +0000";
layers = (
{
anchors = (
{
name = bottom;
pos = (400,0);
},
{
name = ogonek;
pos = (681,0);
},
{
name = top;
pos = (400,900);
},
{
name = "top-vertical";
pos = (120,720);
},
{
name = topleft;
pos = (461,900);
}
);
guides = (
{
angle = -72.9966;
pos = (770,102);
},
{
angle = 68.1986;
pos = (301,270);
},
{
angle = -73.0314;
pos = (517,361);
}
);
layerId = "3E87E8DA-1F15-4738-9454-A2AB4CEA57DC";
shapes = (
{
closed = 1;
nodes = (
(742,0,l),
(466,900,l),
(388,900,l),
(368,851,l),
(627,0,l)
);
},
{
closed = 1;
nodes = (
(133,0,l),
(379,617,l),
(333,767,l),
(18,0,l)
);
},
{
closed = 1;
nodes = (
(583,267,l),
(548,362,l),
(338,362,l),
(300,267,l)
);
},
{
closed = 1;
nodes = (
(990,0,l),
(990,102,l),
(770,102,l),
(801,0,l)
);
},
{
closed = 1;
nodes = (
(816,504,l),
(816,606,l),
(616,606,l),
(647,504,l)
);
},
{
closed = 1;
nodes = (
(786,798,l),
(786,900,l),
(526,900,l),
(557,798,l)
);
}
);
width = 1020;
},
{
anchors = (
{
name = bottom;
pos = (879,0);
},
{
name = ogonek;
pos = (1033,0);
},
{
name = top;
pos = (569.105,900);
},
{
name = "top-vertical";
pos = (130,720);
},
{
name = topleft;
pos = (347.105,900);
}
);
guides = (
{
angle = 67.257;
pos = (330,198);
},
{
angle = -70.9595;
pos = (525,297);
},
{
pos = (353,396);
},
{
angle = 108.9595;
pos = (755,309);
},
{
angle = -70.9595;
pos = (459,297);
}
);
layerId = "5864D40E-51E2-4FDD-96DA-51B6D988DC78";
shapes = (
{
closed = 1;
nodes = (
(801,0,l),
(492,900,l),
(396,900,l),
(352,798,l),
(627,0,l)
);
},
{
closed = 1;
nodes = (
(187,0,l),
(392,491,l),
(316,713,l),
(12,0,l)
);
},
{
closed = 1;
nodes = (
(626,160,l),
(574,304,l),
(380,304,l),
(320,160,l)
);
},
{
closed = 1;
nodes = (
(1016,0,l),
(1016,162,l),
(806,162,l),
(861,0,l)
);
},
{
closed = 1;
nodes = (
(842,456,l),
(842,606,l),
(653,606,l),
(704,456,l)
);
},
{
closed = 1;
nodes = (
(812,744,l),
(812,900,l),
(552,900,l),
(606,744,l)
);
}
);
width = 1040;
},
{
anchors = (
{
name = bottom;
pos = (1148,0);
},
{
name = ogonek;
pos = (1370,0);
},
{
name = top;
pos = (400,900);
},
{
name = topleft;
pos = (926,900);
}
);
associatedMasterId = "3E87E8DA-1F15-4738-9454-A2AB4CEA57DC";
guides = (
{
angle = -68.2901;
pos = (554,270);
},
{
angle = 180;
pos = (609,798);
}
);
layerId = "6844C37B-85F9-4297-BA67-DA480648FB0B";
name = "27 May 22, 14:15";
shapes = (
{
closed = 1;
nodes = (
(133,0,l),
(349,540,ls),
(367,586,o),
(381,624,o),
(397,686,c),
(413,624,o),
(428,585,o),
(446,540,cs),
(661,0,l),
(972,0,l),
(972,102,l),
(740,102,l),
(575,504,l),
(785,504,l),
(785,606,l),
(533,606,l),
(454,798,l),
(785,798,l),
(785,900,l),
(303,900,l),
(344,798,l),
(18,0,l)
);
},
{
closed = 1;
nodes = (
(548,362,l),
(247,362,l),
(211,267,l),
(583,267,l)
);
}
);
width = 1020;
},
{
anchors = (
{
name = bottom;
pos = (1148,0);
},
{
name = ogonek;
pos = (1370,0);
},
{
name = top;
pos = (400,900);
},
{
name = topleft;
pos = (926,900);
}
);
associatedMasterId = "5864D40E-51E2-4FDD-96DA-51B6D988DC78";
guides = (
{
angle = -68.2901;
pos = (554,270);
},
{
angle = 180;
pos = (609,798);
}
);
layerId = "3F078FEC-140B-47A3-AAE1-DC9212F4F248";
name = "27 May 22, 14:21";
shapes = (
{
closed = 1;
nodes = (
(133,0,l),
(349,540,ls),
(367,586,o),
(381,624,o),
(397,686,c),
(413,624,o),
(428,585,o),
(446,540,cs),
(661,0,l),
(972,0,l),
(972,102,l),
(740,102,l),
(575,504,l),
(785,504,l),
(785,606,l),
(533,606,l),
(454,798,l),
(785,798,l),
(785,900,l),
(303,900,l),
(344,798,l),
(18,0,l)
);
},
{
closed = 1;
nodes = (
(548,362,l),
(247,362,l),
(211,267,l),
(583,267,l)
);
}
);
width = 1020;
}
);
unicode = 198;
},
{
glyphname = B;
kernLeft = B;
kernRight = B;
lastChange = "2023-01-11 18:10:12 +0000";
layers = (
{
associatedMasterId = "3E87E8DA-1F15-4738-9454-A2AB4CEA57DC";
background = {
shapes = (
{
closed = 1;
nodes = (
(470,114,o),
(552,196,o),
(552,298,cs),
(552,400,o),
(470,482,o),
(368,482,cs),
(267,482,o),
(185,400,o),
(185,298,cs),
(185,196,o),
(267,114,o),
(368,114,cs)
);
},
{
closed = 1;
nodes = (
(533,0,o),
(666,133,o),
(666,298,cs),
(666,463,o),
(533,596,o),
(368,596,cs),
(204,596,o),
(70,463,o),
(70,298,cs),
(70,133,o),
(204,0,o),
(368,0,cs)
);
},
{
closed = 1;
nodes = (
(425,596,o),
(470,642,o),
(470,698,cs),
(470,754,o),
(425,800,o),
(368,800,cs),
(312,800,o),
(267,754,o),
(267,698,cs),
(267,642,o),
(312,596,o),
(368,596,cs)
);
},
{
closed = 1;
nodes = (
(487,482,o),
(585,579,o),
(585,698,cs),
(585,817,o),
(487,914,o),
(368,914,cs),
(249,914,o),
(152,817,o),
(152,698,cs),
(152,579,o),
(249,482,o),
(368,482,cs)
);
}
);
};
guides = (
{
angle = 180;
pos = (387,578);
}
);
layerId = "E40D72CC-B1DB-41B9-A244-DA0B980EA932";
name = "Jan 13 17, 21:41";
shapes = (
{
closed = 1;
nodes = (
(368,0,ls),
(533,0,o),
(666,130,o),
(666,292,cs),
(666,454,o),
(533,585,o),
(368,585,cs),
(149,585,l),
(149,487,l),
(363,487,ls),
(467,487,o),
(552,403,o),
(552,298,cs),
(552,193,o),
(467,109,o),
(363,109,cs),
(189,109,l),
(183,0,l)
);
},
{
closed = 1;
nodes = (
(211,0,l),
(211,914,l),
(97,914,l),
(97,0,l)
);
},
{
closed = 1;
nodes = (
(487,487,o),
(585,584,o),
(585,701,cs),
(585,818,o),
(487,914,o),
(368,914,c),
(154,914,l),
(154,811,l),
(363,811,ls),
(426,811,o),
(476,761,o),
(476,698,cs),
(476,635,o),
(426,585,o),
(363,585,c),
(368,487,l)
);
}
);
width = 714;
},
{
associatedMasterId = "3E87E8DA-1F15-4738-9454-A2AB4CEA57DC";
background = {
shapes = (
{
closed = 1;
nodes = (
(368,0,ls),
(533,0,o),
(666,130,o),
(666,292,cs),
(666,454,o),
(533,585,o),
(368,585,cs),
(149,585,l),
(149,487,l),
(363,487,ls),
(467,487,o),
(552,403,o),
(552,298,cs),
(552,193,o),
(467,109,o),
(363,109,cs),
(189,109,l),
(183,0,l)
);
},
{
closed = 1;
nodes = (
(211,0,l),
(211,914,l),
(97,914,l),
(97,0,l)
);
},
{
closed = 1;
nodes = (
(487,487,o),
(585,584,o),
(585,701,cs),
(585,818,o),
(487,914,o),
(368,914,c),
(154,914,l),
(154,811,l),
(363,811,ls),
(426,811,o),
(476,761,o),
(476,698,cs),
(476,635,o),
(426,585,o),
(363,585,c),
(368,487,l)
);
}
);
};
guides = (
{
angle = 180;
pos = (387,578);
},
{
angle = -45;
pos = (536,159);
},
{
angle = 134.3795;
pos = (630,69);
},
{
angle = 45;
pos = (536,468);
},
{
angle = 45.6205;
pos = (630,546);
},
{
angle = 135;
pos = (474,641);
},
{
angle = 45;
pos = (474,826);
}
);
layerId = "6BBA7F6A-5DB8-4972-9F4B-5F3A057D8780";
name = "Mar 20 17, 10:14";
shapes = (
{
closed = 1;
nodes = (
(447,0,ls),
(549,0,o),
(613,31,o),
(661,79,cs),
(711,129,o),
(743,197,o),
(743,272,cs),
(743,422,o),
(620,534,o),
(466,534,c),
(448,460,l),
(580,460,o),
(686,553,o),
(686,681,cs),
(686,746,o),
(658,804,o),
(614,847,cs),
(572,889,o),
(519,914,o),
(431,914,cs),
(179,914,l),
(180,809,l),
(427,809,ls),
(483,809,o),
(514,795,o),
(538,771,cs),
(563,746,o),
(577,715,o),
(577,677,cs),
(577,641,o),
(563,608,o),
(539,584,cs),
(515,559,o),
(485,546,o),
(425,546,cs),
(167,546,l),
(167,448,l),
(441,448,ls),
(508,448,o),
(548,430,o),
(579,398,cs),
(610,365,o),
(628,325,o),
(628,278,cs),
(628,228,o),
(608,188,o),
(579,157,cs),
(548,125,o),
(509,108,o),
(442,108,cs),
(197,108,l),
(193,0,l)
);
},
{
closed = 1;
nodes = (
(229,0,l),
(229,914,l),
(114,914,l),
(114,0,l)
);
}
);
width = 800;
},
{
background = {
shapes = (
{
closed = 1;
nodes = (
(540,0,l),
(540,102,l),
(240,102,l),
(240,504,l),
(500,504,l),
(500,606,l),
(240,606,l),
(240,798,l),
(540,798,l),
(540,900,l),
(126,900,l),
(126,0,l)
);
}
);
};
guides = (
{
angle = 3.1798;
pos = (555,689);
},
{
angle = -2.0096;
pos = (633,289);
}
);
layerId = "3E87E8DA-1F15-4738-9454-A2AB4CEA57DC";
shapes = (
{
closed = 1;
nodes = (
(378,0,ls),
(582,0,o),
(690,144,o),
(690,287,cs),
(690,410,o),
(610,510,o),
(497,547,c),
(501,522,l),
(566,553,o),
(609,617,o),
(609,692,cs),
(609,778,o),
(549,900,o),
(378,900,cs),
(300,900,l),
(300,798,l),
(373,798,ls),
(448,798,o),
(501,759,o),
(501,686,cs),
(501,615,o),
(448,576,o),
(369,576,cs),
(300,576,l),
(300,480,l),
(370,480,ls),
(521,480,o),
(576,375,o),
(576,291,cs),
(576,204,o),
(517,102,o),
(370,102,cs),
(300,102,l),
(300,0,l)
);
},
{
closed = 1;
nodes = (
(240,0,l),
(240,900,l),
(126,900,l),
(126,0,l)
);
}
);
width = 750;
},
{
associatedMasterId = "3E87E8DA-1F15-4738-9454-A2AB4CEA57DC";
background = {
shapes = (
{
closed = 1;
nodes = (
(397,0,ls),
(562,0,o),
(695,130,o),
(695,292,cs),
(695,454,o),
(562,585,o),
(397,585,cs),
(178,585,l),
(178,487,l),
(391,487,ls),
(496,487,o),
(581,403,o),
(581,298,cs),
(581,193,o),
(496,109,o),
(391,109,cs),
(217,109,l),
(211,0,l)
);
},
{
closed = 1;
nodes = (
(240,0,l),
(240,914,l),
(126,914,l),
(126,0,l)
);
},
{
closed = 1;
nodes = (
(516,487,o),
(613,584,o),
(613,701,cs),
(613,818,o),
(516,914,o),
(397,914,c),
(183,914,l),
(183,811,l),
(391,811,ls),
(454,811,o),
(505,761,o),
(505,698,cs),
(505,635,o),
(454,585,o),
(391,585,c),
(397,487,l)
);
}
);
};
guides = (
{
angle = 180;
pos = (417,578);
},
{
angle = -45;
pos = (566,159);
},
{
angle = 134.3795;
pos = (660,69);
},
{
angle = 45;
pos = (566,468);
},
{
angle = 45.6205;
pos = (660,546);
},
{
angle = 135;
pos = (504,641);
},
{
angle = 45;
pos = (504,826);
}
);
layerId = "2FFEE6DC-9670-42BD-B68F-93BBF71CA07F";
name = "Oct 5 19, 18:52";
shapes = (
{
closed = 1;
nodes = (
(236,0,l),
(236,914,l),
(126,914,l),
(126,0,l)
);
},
{
closed = 1;
nodes = (
(399,499,l),
(518,499,o),
(615,584,o),
(615,701,cs),
(615,761,o),
(590,813,o),
(549,854,cs),
(510,893,o),
(463,914,o),
(382,914,c),
(183,914,l),
(183,811,l),
(376,811,ls),
(425,811,o),
(452,799,o),
(473,779,cs),
(495,758,o),
(507,729,o),
(507,698,cs),
(507,666,o),
(494,639,o),
(474,618,cs),
(453,596,o),
(427,585,o),
(372,585,cs),
(178,585,l),
(178,487,l),
(376,487,ls),
(449,487,o),
(493,467,o),
(527,432,cs),
(563,396,o),
(583,350,o),
(583,298,cs),
(583,242,o),
(560,198,o),
(527,165,cs),
(493,129,o),
(451,109,o),
(376,109,cs),
(217,109,l),
(211,0,l),
(382,0,ls),
(490,0,o),
(560,35,o),
(610,86,cs),
(664,139,o),
(697,211,o),
(697,292,cs),
(697,452,o),
(566,573,o),
(399,573,c)
);
}
);
width = 743;
},
{
associatedMasterId = "5864D40E-51E2-4FDD-96DA-51B6D988DC78";
background = {
shapes = (
{
closed = 1;
nodes = (
(470,114,o),
(552,196,o),
(552,298,cs),
(552,400,o),
(470,482,o),
(368,482,cs),
(267,482,o),
(185,400,o),
(185,298,cs),
(185,196,o),
(267,114,o),
(368,114,cs)
);
},
{
closed = 1;
nodes = (
(533,0,o),
(666,133,o),
(666,298,cs),
(666,463,o),
(533,596,o),
(368,596,cs),
(204,596,o),
(70,463,o),
(70,298,cs),
(70,133,o),
(204,0,o),
(368,0,cs)
);
},
{
closed = 1;
nodes = (
(425,596,o),
(470,642,o),
(470,698,cs),
(470,754,o),
(425,800,o),
(368,800,cs),
(312,800,o),
(267,754,o),
(267,698,cs),
(267,642,o),
(312,596,o),
(368,596,cs)
);
},
{
closed = 1;
nodes = (
(487,482,o),
(585,579,o),
(585,698,cs),
(585,817,o),
(487,914,o),
(368,914,cs),
(249,914,o),
(152,817,o),
(152,698,cs),
(152,579,o),
(249,482,o),
(368,482,cs)
);
}
);
};
guides = (
{
angle = 180;
pos = (387,578);
}
);
layerId = "FCF38B59-C5FB-4F3E-B967-22B99F6BD32E";
name = "Jan 13 17, 21:41";
shapes = (
{
closed = 1;
nodes = (
(368,0,ls),
(533,0,o),
(666,130,o),
(666,292,cs),
(666,454,o),
(533,585,o),
(368,585,cs),
(149,585,l),
(149,487,l),
(363,487,ls),
(467,487,o),
(552,403,o),
(552,298,cs),
(552,193,o),
(467,109,o),
(363,109,cs),
(189,109,l),
(183,0,l)
);
},
{
closed = 1;
nodes = (
(211,0,l),
(211,914,l),
(97,914,l),
(97,0,l)
);
},
{
closed = 1;
nodes = (
(487,487,o),
(585,584,o),
(585,701,cs),
(585,818,o),
(487,914,o),
(368,914,c),
(154,914,l),
(154,811,l),
(363,811,ls),
(426,811,o),
(476,761,o),
(476,698,cs),
(476,635,o),
(426,585,o),
(363,585,c),
(368,487,l)
);
}
);
width = 714;
},
{
associatedMasterId = "5864D40E-51E2-4FDD-96DA-51B6D988DC78";
background = {
shapes = (
{
closed = 1;
nodes = (
(368,0,ls),
(533,0,o),
(666,130,o),
(666,292,cs),
(666,454,o),
(533,585,o),
(368,585,cs),
(149,585,l),
(149,487,l),
(363,487,ls),
(467,487,o),
(552,403,o),
(552,298,cs),
(552,193,o),
(467,109,o),
(363,109,cs),
(189,109,l),
(183,0,l)
);
},
{
closed = 1;
nodes = (
(211,0,l),
(211,914,l),
(97,914,l),
(97,0,l)
);
},
{
closed = 1;
nodes = (
(487,487,o),
(585,584,o),
(585,701,cs),
(585,818,o),
(487,914,o),
(368,914,c),
(154,914,l),
(154,811,l),
(363,811,ls),
(426,811,o),
(476,761,o),
(476,698,cs),
(476,635,o),
(426,585,o),
(363,585,c),
(368,487,l)
);
}
);
};
guides = (
{
angle = 180;
pos = (387,578);
},
{
angle = -45;
pos = (536,159);
},
{
angle = 134.3795;
pos = (630,69);
},
{
angle = 45;
pos = (536,468);
},
{
angle = 45.6205;
pos = (630,546);
},
{
angle = 135;
pos = (474,641);
},
{
angle = 45;
pos = (474,826);
}
);
layerId = "76219484-42FF-476F-BDFD-EDE922AEB08E";
name = "Mar 20 17, 10:14";
shapes = (
{
closed = 1;
nodes = (
(447,0,ls),
(549,0,o),
(613,31,o),
(661,79,cs),
(711,129,o),
(743,197,o),
(743,272,cs),
(743,422,o),
(620,534,o),
(466,534,c),
(448,460,l),
(580,460,o),
(686,553,o),
(686,681,cs),
(686,746,o),
(658,804,o),
(614,847,cs),
(572,889,o),
(519,914,o),
(431,914,cs),
(179,914,l),
(180,809,l),
(427,809,ls),
(483,809,o),
(514,795,o),
(538,771,cs),
(563,746,o),
(577,715,o),
(577,677,cs),
(577,641,o),
(563,608,o),
(539,584,cs),
(515,559,o),
(485,546,o),
(425,546,cs),
(167,546,l),
(167,448,l),
(441,448,ls),
(508,448,o),
(548,430,o),
(579,398,cs),
(610,365,o),
(628,325,o),
(628,278,cs),
(628,228,o),
(608,188,o),
(579,157,cs),
(548,125,o),
(509,108,o),
(442,108,cs),
(197,108,l),
(193,0,l)
);
},
{
closed = 1;
nodes = (
(229,0,l),
(229,914,l),
(114,914,l),
(114,0,l)
);
}
);
width = 800;
},
{
background = {
shapes = (
{
closed = 1;
nodes = (
(540,0,l),
(540,102,l),
(240,102,l),
(240,504,l),
(500,504,l),
(500,606,l),
(240,606,l),
(240,798,l),
(540,798,l),
(540,900,l),
(126,900,l),
(126,0,l)
);
}
);
};
guides = (
{
angle = 90;
pos = (270,291);
},
{
angle = 3.1798;
pos = (555,686);
},
{
angle = -2.0096;
pos = (633,311);
},
{
angle = 90;
pos = (330,291);
}
);
layerId = "5864D40E-51E2-4FDD-96DA-51B6D988DC78";
shapes = (
{
closed = 1;
nodes = (
(366,0,ls),
(586,0,o),
(702,155,o),
(702,309,cs),
(702,441,o),
(616,549,o),
(494,589,c),
(507,518,l),
(576,550,o),
(621,614,o),
(621,690,cs),
(621,777,o),
(558,900,o),
(378,900,cs),
(330,900,l),
(330,768,l),
(352,768,ls),
(411,768,o),
(453,738,o),
(453,680,cs),
(453,624,o),
(411,594,o),
(348,594,cs),
(330,594,l),
(330,468,l),
(348,468,ls),
(470,468,o),
(514,383,o),
(514,315,cs),
(514,245,o),
(467,162,o),
(348,162,cs),
(330,162,l),
(330,0,l)
);
},
{
closed = 1;
nodes = (
(270,0,l),
(270,900,l),
(96,900,l),
(96,0,l)
);
}
);
width = 750;
},
{
associatedMasterId = "5864D40E-51E2-4FDD-96DA-51B6D988DC78";
background = {
shapes = (
{
closed = 1;
nodes = (
(397,0,ls),
(562,0,o),
(695,130,o),
(695,292,cs),
(695,454,o),
(562,585,o),
(397,585,cs),
(178,585,l),
(178,487,l),
(391,487,ls),
(496,487,o),
(581,403,o),
(581,298,cs),
(581,193,o),
(496,109,o),
(391,109,cs),
(217,109,l),
(211,0,l)
);
},
{
closed = 1;
nodes = (
(240,0,l),
(240,914,l),
(126,914,l),
(126,0,l)
);
},
{
closed = 1;
nodes = (
(516,487,o),
(613,584,o),
(613,701,cs),
(613,818,o),
(516,914,o),
(397,914,c),
(183,914,l),
(183,811,l),
(391,811,ls),
(454,811,o),
(505,761,o),
(505,698,cs),
(505,635,o),
(454,585,o),
(391,585,c),
(397,487,l)
);
}
);
};
guides = (
{
angle = 180;
pos = (417,578);
},
{
angle = -45;
pos = (566,159);
},
{
angle = 134.3795;
pos = (660,69);
},
{
angle = 45;
pos = (566,468);
},
{
angle = 45.6205;
pos = (660,546);
},
{
angle = 135;
pos = (504,641);
},
{
angle = 45;
pos = (504,826);
}
);
layerId = "AC370718-6FE5-428F-AB58-8C0DD796C932";
name = "Oct 5 19, 18:52";
shapes = (
{
closed = 1;
nodes = (
(236,0,l),
(236,914,l),
(126,914,l),
(126,0,l)
);
},
{
closed = 1;
nodes = (
(399,499,l),
(518,499,o),
(615,584,o),
(615,701,cs),
(615,761,o),
(590,813,o),
(549,854,cs),
(510,893,o),
(463,914,o),
(382,914,c),
(183,914,l),
(183,811,l),
(376,811,ls),
(425,811,o),
(452,799,o),
(473,779,cs),
(495,758,o),
(507,729,o),
(507,698,cs),
(507,666,o),
(494,639,o),
(474,618,cs),
(453,596,o),
(427,585,o),
(372,585,cs),
(178,585,l),
(178,487,l),
(376,487,ls),
(449,487,o),
(493,467,o),
(527,432,cs),
(563,396,o),
(583,350,o),
(583,298,cs),
(583,242,o),
(560,198,o),
(527,165,cs),
(493,129,o),
(451,109,o),
(376,109,cs),
(217,109,l),
(211,0,l),
(382,0,ls),
(490,0,o),
(560,35,o),
(610,86,cs),
(664,139,o),
(697,211,o),
(697,292,cs),
(697,452,o),
(566,573,o),
(399,573,c)
);
}
);
width = 743;
}
);
unicode = 66;
},
{
glyphname = C;
kernLeft = C;
kernRight = C;
lastChange = "2023-01-11 18:11:51 +0000";
layers = (
{
associatedMasterId = "3E87E8DA-1F15-4738-9454-A2AB4CEA57DC";
background = {
shapes = (
{
closed = 1;
nodes = (
(671,-17,o),
(845,157,o),
(845,371,cs),
(845,586,o),
(671,760,o),
(457,760,cs),
(243,760,o),
(69,586,o),
(69,371,cs),
(69,157,o),
(243,-17,o),
(457,-17,cs)
);
},
{
closed = 1;
nodes = (
(306,97,o),
(183,220,o),
(183,371,cs),
(183,523,o),
(306,646,o),
(457,646,cs),
(608,646,o),
(731,523,o),
(731,371,cs),
(731,220,o),
(608,97,o),
(457,97,cs)
);
}
);
};
guides = (
{
pos = (480,798);
}
);
layerId = "5C165715-58D7-4F2C-8090-066764798C0B";
name = "Regular Dec 28 16, 17:07";
shapes = (
{
closed = 1;
nodes = (
(671,-17,o),
(848,157,o),
(848,371,cs),
(848,586,o),
(671,760,o),
(457,760,cs),
(243,760,o),
(66,586,o),
(66,371,cs),
(66,157,o),
(243,-17,o),
(457,-17,cs)
);
},
{
closed = 1;
nodes = (
(306,97,o),
(186,220,o),
(186,371,cs),
(186,523,o),
(306,646,o),
(457,646,cs),
(608,646,o),
(728,523,o),
(728,371,cs),
(728,220,o),
(608,97,o),
(457,97,cs)
);
}
);
width = 914;
},
{
associatedMasterId = "3E87E8DA-1F15-4738-9454-A2AB4CEA57DC";
background = {
shapes = (
{
closed = 1;
nodes = (
(603,-6,o),
(665,7,o),
(720,29,c),
(720,150,l),
(669,120,o),
(603,103,o),
(538,103,cs),
(343,103,o),
(189,258,o),
(189,459,cs),
(189,656,o),
(338,811,o),
(537,811,cs),
(605,811,o),
(670,793,o),
(720,765,c),
(720,885,l),
(666,907,o),
(601,920,o),
(538,920,cs),
(280,920,o),
(69,719,o),
(69,455,cs),
(69,195,o),
(275,-6,o),
(538,-6,cs)
);
}
);
};
guides = (
{
angle = 90;
pos = (756,669);
}
);
hints = (
{
horizontal = 1;
origin = (0,27);
target = (0,7);
type = Stem;
},
{
horizontal = 1;
origin = (0,21);
target = (0,13);
type = Stem;
},
{
origin = (0,24);
target = (0,10);
type = Stem;
},
{
place = (897, 120);
place = (897, 120);
type = Stem;
}
);
layerId = "A799C364-D016-4A40-89C1-B12C6DA3B3EC";
name = "Mar 20 17, 10:17";
shapes = (
{
closed = 1;
nodes = (
(603,-6,o),
(666,6,o),
(731,34,c),
(731,149,l),
(718,149,l),
(669,120,o),
(603,103,o),
(538,103,cs),
(343,103,o),
(189,258,o),
(189,459,cs),
(189,656,o),
(338,811,o),
(537,811,cs),
(605,811,o),
(670,793,o),
(718,765,c),
(731,765,l),
(731,880,l),
(671,906,o),
(601,920,o),
(538,920,cs),
(280,920,o),
(69,719,o),
(69,455,cs),
(69,195,o),
(275,-6,o),
(538,-6,cs)
);
}
);
width = 771;
},
{
anchors = (
{
name = bottom;
pos = (530,0);
},
{
name = top;
pos = (530,900);
}
);
background = {
shapes = (
{
closed = 1;
nodes = (
(655,-17,o),
(772,35,o),
(857,120,c),
(823,261,l),
(762,162,o),
(653,95,o),
(527,95,cs),
(331,95,o),
(178,254,o),
(178,450,cs),
(178,646,o),
(331,805,o),
(527,805,cs),
(653,805,o),
(762,738,o),
(823,639,c),
(857,780,l),
(772,865,o),
(655,917,o),
(527,917,cs),
(269,917,o),
(60,708,o),
(60,450,cs),
(60,192,o),
(269,-17,o),
(527,-17,cs)
);
}
);
};
guides = (
{
angle = -76.4428;
pos = (840,191);
},
{
angle = 256.4428;
pos = (840,710);
},
{
angle = 90;
pos = (560,450);
},
{
angle = 90;
pos = (500,450);
}
);
hints = (
{
horizontal = 1;
place = (-6, 109);
place = (-6, 109);
type = Stem;
},
{
horizontal = 1;
place = (925, 114);
place = (925, 114);
type = Stem;
},
{
place = (69, 0);
place = (69, 0);
type = Stem;
},
{
place = (897, 120);
place = (897, 120);
type = Stem;
}
);
layerId = "3E87E8DA-1F15-4738-9454-A2AB4CEA57DC";
shapes = (
{
closed = 1;
nodes = (
(496,91,l),
(315,108,o),
(178,262,o),
(178,450,cs),
(178,638,o),
(315,792,o),
(496,809,c),
(496,917,l),
(253,900,o),
(60,698,o),
(60,450,cs),
(60,202,o),
(253,0,o),
(496,-17,c)
);
},
{
closed = 1;
nodes = (
(675,-10,o),
(779,39,o),
(858,115,c),
(825,253,l),
(768,162,o),
(672,100,o),
(564,91,c),
(564,-17,l)
);
},
{
closed = 1;
nodes = (
(858,785,l),
(779,861,o),
(675,910,o),
(564,917,c),
(564,809,l),
(671,800,o),
(768,738,o),
(825,647,c)
);
}
);
width = 900;
},
{
associatedMasterId = "3E87E8DA-1F15-4738-9454-A2AB4CEA57DC";
background = {
shapes = (
{
closed = 1;
nodes = (
(805,-17,o),
(1017,195,o),
(1017,457,cs),
(1017,719,o),
(805,931,o),
(543,931,cs),
(281,931,o),
(69,719,o),
(69,457,cs),
(69,195,o),
(281,-17,o),
(543,-17,cs)
);
},
{
closed = 1;
nodes = (
(344,97,o),
(183,258,o),
(183,457,cs),
(183,656,o),
(344,817,o),
(543,817,cs),
(742,817,o),
(903,656,o),
(903,457,cs),
(903,258,o),
(742,97,o),
(543,97,cs)
);
}
);
};
guides = (
{
angle = 90;
pos = (756,669);
}
);
hints = (
{
horizontal = 1;
origin = (0,25);
target = (0,6);
type = Stem;
},
{
horizontal = 1;
origin = (0,19);
target = (0,12);
type = Stem;
},
{
origin = (0,22);
target = (0,9);
type = Stem;
},
{
place = (897, 120);
place = (897, 120);
type = Stem;
}
);
layerId = "4D541C0B-4DBE-4630-AC55-4F982AF4165C";
name = "Oct 5 19, 13:04";
shapes = (
{
closed = 1;
nodes = (
(603,-6,o),
(665,7,o),
(720,29,c),
(720,150,l),
(669,120,o),
(603,103,o),
(538,103,cs),
(343,103,o),
(189,258,o),
(189,459,cs),
(189,656,o),
(338,811,o),
(537,811,cs),
(605,811,o),
(670,793,o),
(720,765,c),
(720,885,l),
(666,907,o),
(601,920,o),
(538,920,cs),
(280,920,o),
(69,719,o),
(69,455,cs),
(69,195,o),
(275,-6,o),
(538,-6,cs)
);
}
);
width = 771;
},
{
associatedMasterId = "3E87E8DA-1F15-4738-9454-A2AB4CEA57DC";
background = {
shapes = (
{
closed = 1;
nodes = (
(805,-17,o),
(1017,195,o),
(1017,457,cs),
(1017,719,o),
(805,931,o),
(543,931,cs),
(281,931,o),
(69,719,o),
(69,457,cs),
(69,195,o),
(281,-17,o),
(543,-17,cs)
);
},
{
closed = 1;
nodes = (
(344,97,o),
(183,258,o),
(183,457,cs),
(183,656,o),
(344,817,o),
(543,817,cs),
(742,817,o),
(903,656,o),
(903,457,cs),
(903,258,o),
(742,97,o),
(543,97,cs)
);
}
);
};
guides = (
{
angle = 90;
pos = (756,669);
},
{
angle = 135;
pos = (569,480);
},
{
angle = 45;
pos = (569,480);
},
{
angle = 103.3052;
pos = (922,127);
}
);
hints = (
{
horizontal = 1;
place = (-6, 109);
place = (-6, 109);
type = Stem;
},
{
horizontal = 1;
origin = (0,19);
target = (0,12);
type = Stem;
},
{
origin = (0,22);
target = (0,23);
type = Stem;
},
{
place = (897, 120);
place = (897, 120);
type = Stem;
}
);
layerId = "0A896FCF-B1E3-43A0-A6F0-CDDA442A7B15";
name = "Aug 25 20, 11:38";
shapes = (
{
closed = 1;
nodes = (
(652,-11,o),
(753,26,o),
(834,89,c),
(834,256,l),
(770,164,o),
(665,103,o),
(543,103,cs),
(344,103,o),
(189,258,o),
(189,457,cs),
(189,656,o),
(344,811,o),
(543,811,cs),
(665,811,o),
(770,750,o),
(834,658,c),
(834,825,l),
(753,888,o),
(652,925,o),
(543,925,cs),
(281,925,o),
(69,719,o),
(69,457,cs),
(69,195,o),
(281,-11,o),
(543,-11,cs)
);
}
);
width = 885;
},
{
associatedMasterId = "5864D40E-51E2-4FDD-96DA-51B6D988DC78";
background = {
shapes = (
{
closed = 1;
nodes = (
(671,-17,o),
(845,157,o),
(845,371,cs),
(845,586,o),
(671,760,o),
(457,760,cs),
(243,760,o),
(69,586,o),
(69,371,cs),
(69,157,o),
(243,-17,o),
(457,-17,cs)
);
},
{
closed = 1;
nodes = (
(306,97,o),
(183,220,o),
(183,371,cs),
(183,523,o),
(306,646,o),
(457,646,cs),
(608,646,o),
(731,523,o),
(731,371,cs),
(731,220,o),
(608,97,o),
(457,97,cs)
);
}
);
};
guides = (
{
pos = (480,798);
}
);
layerId = "8259940F-F5E0-4FC2-8BF7-BF71B7E0B0D8";
name = "Regular Dec 28 16, 17:07";
shapes = (
{
closed = 1;
nodes = (
(671,-17,o),
(848,157,o),
(848,371,cs),
(848,586,o),
(671,760,o),
(457,760,cs),
(243,760,o),
(66,586,o),
(66,371,cs),
(66,157,o),
(243,-17,o),
(457,-17,cs)
);
},
{
closed = 1;
nodes = (
(306,97,o),
(186,220,o),
(186,371,cs),
(186,523,o),
(306,646,o),
(457,646,cs),
(608,646,o),
(728,523,o),
(728,371,cs),
(728,220,o),
(608,97,o),
(457,97,cs)
);
}
);
width = 914;
},
{
associatedMasterId = "5864D40E-51E2-4FDD-96DA-51B6D988DC78";
background = {
shapes = (
{
closed = 1;
nodes = (
(603,-6,o),
(665,7,o),
(720,29,c),
(720,150,l),
(669,120,o),
(603,103,o),
(538,103,cs),
(343,103,o),
(189,258,o),
(189,459,cs),
(189,656,o),
(338,811,o),
(537,811,cs),
(605,811,o),
(670,793,o),
(720,765,c),
(720,885,l),
(666,907,o),
(601,920,o),
(538,920,cs),
(280,920,o),
(69,719,o),
(69,455,cs),
(69,195,o),
(275,-6,o),
(538,-6,cs)
);
}
);
};
guides = (
{
angle = 90;
pos = (756,669);
}
);
hints = (
{
horizontal = 1;
origin = (0,27);
target = (0,7);
type = Stem;
},
{
horizontal = 1;
origin = (0,21);
target = (0,13);
type = Stem;
},
{
origin = (0,24);
target = (0,10);
type = Stem;
},
{
place = (897, 120);
place = (897, 120);
type = Stem;
}
);
layerId = "9536BBE7-FA03-4DF9-BFFF-04834BB62727";
name = "Mar 20 17, 10:17";
shapes = (
{
closed = 1;
nodes = (
(603,-6,o),
(666,6,o),
(731,34,c),
(731,149,l),
(718,149,l),
(669,120,o),
(603,103,o),
(538,103,cs),
(343,103,o),
(189,258,o),
(189,459,cs),
(189,656,o),
(338,811,o),
(537,811,cs),
(605,811,o),
(670,793,o),
(718,765,c),
(731,765,l),
(731,880,l),
(671,906,o),
(601,920,o),
(538,920,cs),
(280,920,o),
(69,719,o),
(69,455,cs),
(69,195,o),
(275,-6,o),
(538,-6,cs)
);
}
);
width = 771;
},
{
anchors = (
{
name = bottom;
pos = (530,0);
},
{
name = top;
pos = (530,900);
}
);
background = {
shapes = (
{
closed = 1;
nodes = (
(658,-18,o),
(773,33,o),
(858,115,c),
(825,253,l),
(763,155,o),
(656,90,o),
(530,90,cs),
(332,90,o),
(178,251,o),
(178,450,cs),
(178,649,o),
(332,810,o),
(530,810,cs),
(655,810,o),
(763,745,o),
(825,647,c),
(858,785,l),
(773,867,o),
(658,918,o),
(530,918,cs),
(270,918,o),
(60,709,o),
(60,450,cs),
(60,191,o),
(270,-18,o),
(530,-18,cs)
);
}
);
};
guides = (
{
angle = -76.4428;
pos = (816,191);
},
{
angle = 256.4428;
pos = (816,710);
},
{
angle = 90;
pos = (500,450);
},
{
angle = 90;
pos = (560,450);
}
);
hints = (
{
horizontal = 1;
place = (-6, 109);
place = (-6, 109);
type = Stem;
},
{
horizontal = 1;
place = (925, 114);
place = (925, 114);
type = Stem;
},
{
place = (69, 0);
place = (69, 0);
type = Stem;
},
{
place = (897, 120);
place = (897, 120);
type = Stem;
}
);
layerId = "5864D40E-51E2-4FDD-96DA-51B6D988DC78";
shapes = (
{
closed = 1;
nodes = (
(496,158,l),
(353,176,o),
(248,299,o),
(248,450,cs),
(248,601,o),
(353,724,o),
(496,742,c),
(496,917,l),
(249,902,o),
(54,699,o),
(54,450,cs),
(54,201,o),
(249,-2,o),
(496,-17,c)
);
},
{
closed = 1;
nodes = (
(669,-11,o),
(762,30,o),
(839,93,c),
(788,303,l),
(742,226,o),
(663,165,o),
(564,157,c),
(564,-17,l)
);
},
{
closed = 1;
nodes = (
(839,807,l),
(763,871,o),
(668,911,o),
(564,917,c),
(564,743,l),
(664,735,o),
(742,674,o),
(788,597,c)
);
}
);
width = 870;
},
{
associatedMasterId = "5864D40E-51E2-4FDD-96DA-51B6D988DC78";
background = {
shapes = (
{
closed = 1;
nodes = (
(805,-17,o),
(1017,195,o),
(1017,457,cs),
(1017,719,o),
(805,931,o),
(543,931,cs),
(281,931,o),
(69,719,o),
(69,457,cs),
(69,195,o),
(281,-17,o),
(543,-17,cs)
);
},
{
closed = 1;
nodes = (
(344,97,o),
(183,258,o),
(183,457,cs),
(183,656,o),
(344,817,o),
(543,817,cs),
(742,817,o),
(903,656,o),
(903,457,cs),
(903,258,o),
(742,97,o),
(543,97,cs)
);
}
);
};
guides = (
{
angle = 90;
pos = (756,669);
}
);
hints = (
{
horizontal = 1;
origin = (0,25);
target = (0,6);
type = Stem;
},
{
horizontal = 1;
origin = (0,19);
target = (0,12);
type = Stem;
},
{
origin = (0,22);
target = (0,9);
type = Stem;
},
{
place = (897, 120);
place = (897, 120);
type = Stem;
}
);
layerId = "F2999680-858C-4A9F-BF60-CFE94675C542";
name = "Oct 5 19, 13:04";
shapes = (
{
closed = 1;
nodes = (
(603,-6,o),
(665,7,o),
(720,29,c),
(720,150,l),
(669,120,o),
(603,103,o),
(538,103,cs),
(343,103,o),
(189,258,o),
(189,459,cs),
(189,656,o),
(338,811,o),
(537,811,cs),
(605,811,o),
(670,793,o),
(720,765,c),
(720,885,l),
(666,907,o),
(601,920,o),
(538,920,cs),
(280,920,o),
(69,719,o),
(69,455,cs),
(69,195,o),
(275,-6,o),
(538,-6,cs)
);
}
);
width = 771;
},
{
associatedMasterId = "5864D40E-51E2-4FDD-96DA-51B6D988DC78";
background = {
shapes = (
{
closed = 1;
nodes = (
(805,-17,o),
(1017,195,o),
(1017,457,cs),
(1017,719,o),
(805,931,o),
(543,931,cs),
(281,931,o),
(69,719,o),
(69,457,cs),
(69,195,o),
(281,-17,o),
(543,-17,cs)
);
},
{
closed = 1;
nodes = (
(344,97,o),
(183,258,o),
(183,457,cs),
(183,656,o),
(344,817,o),
(543,817,cs),
(742,817,o),
(903,656,o),
(903,457,cs),
(903,258,o),
(742,97,o),
(543,97,cs)
);
}
);
};
guides = (
{
angle = 90;
pos = (756,669);
},
{
angle = 135;
pos = (569,480);
},
{
angle = 45;
pos = (569,480);
},
{
angle = 103.3052;
pos = (922,127);
}
);
hints = (
{
horizontal = 1;
place = (-6, 109);
place = (-6, 109);
type = Stem;
},
{
horizontal = 1;
origin = (0,19);
target = (0,12);
type = Stem;
},
{
origin = (0,22);
target = (0,23);
type = Stem;
},
{
place = (897, 120);
place = (897, 120);
type = Stem;
}
);
layerId = "B3A963CF-ABD7-4A6B-9809-6BB8B3F34953";
name = "Aug 25 20, 11:38";
shapes = (
{
closed = 1;
nodes = (
(652,-11,o),
(753,26,o),
(834,89,c),
(834,256,l),
(770,164,o),
(665,103,o),
(543,103,cs),
(344,103,o),
(189,258,o),
(189,457,cs),
(189,656,o),
(344,811,o),
(543,811,cs),
(665,811,o),
(770,750,o),
(834,658,c),
(834,825,l),
(753,888,o),
(652,925,o),
(543,925,cs),
(281,925,o),
(69,719,o),
(69,457,cs),
(69,195,o),
(281,-11,o),
(543,-11,cs)
);
}
);
width = 885;
}
);
unicode = 67;
},
{
glyphname = D;
kernLeft = B;
kernRight = D;
lastChange = "2023-01-11 18:27:14 +0000";
layers = (
{
associatedMasterId = "3E87E8DA-1F15-4738-9454-A2AB4CEA57DC";
background = {
shapes = (
{
closed = 1;
nodes = (
(671,-17,o),
(845,157,o),
(845,371,cs),
(845,586,o),
(671,760,o),
(457,760,cs),
(243,760,o),
(69,586,o),
(69,371,cs),
(69,157,o),
(243,-17,o),
(457,-17,cs)
);
},
{
closed = 1;
nodes = (
(306,97,o),
(183,220,o),
(183,371,cs),
(183,523,o),
(306,646,o),
(457,646,cs),
(608,646,o),
(731,523,o),
(731,371,cs),
(731,220,o),
(608,97,o),
(457,97,cs)
);
}
);
};
guides = (
{
pos = (480,798);
}
);
layerId = "15078AAF-769C-41F6-B967-800599F280A9";
name = "Regular Dec 28 16, 17:07";
shapes = (
{
closed = 1;
nodes = (
(671,-17,o),
(848,157,o),
(848,371,cs),
(848,586,o),
(671,760,o),
(457,760,cs),
(243,760,o),
(66,586,o),
(66,371,cs),
(66,157,o),
(243,-17,o),
(457,-17,cs)
);
},
{
closed = 1;
nodes = (
(306,97,o),
(186,220,o),
(186,371,cs),
(186,523,o),
(306,646,o),
(457,646,cs),
(608,646,o),
(728,523,o),
(728,371,cs),
(728,220,o),
(608,97,o),
(457,97,cs)
);
}
);
width = 914;
},
{
anchors = (
{
name = bottom;
pos = (407,0);
},
{
name = center;
pos = (179,480);
},
{
name = top;
pos = (407,914);
}
);
background = {
shapes = (
{
closed = 1;
nodes = (
(418,0,ls),
(573,0,o),
(681,47,o),
(764,132,cs),
(850,219,o),
(896,331,o),
(896,451,cs),
(896,579,o),
(843,687,o),
(763,768,cs),
(684,848,o),
(581,900,o),
(418,900,cs),
(127,900,l),
(127,0,l)
);
},
{
closed = 1;
nodes = (
(240,798,l),
(406,798,ls),
(541,798,o),
(621,757,o),
(681,696,cs),
(741,635,o),
(782,550,o),
(782,450,cs),
(782,350,o),
(741,265,o),
(681,204,cs),
(621,143,o),
(541,102,o),
(406,102,cs),
(240,102,l)
);
}
);
};
guides = (
{
angle = -83.2902;
pos = (415,51);
},
{
angle = 83.2902;
pos = (415,849);
}
);
layerId = "3E87E8DA-1F15-4738-9454-A2AB4CEA57DC";
shapes = (
{
closed = 1;
nodes = (
(421,0,ls),
(747,0,o),
(900,240,o),
(900,450,cs),
(900,660,o),
(747,900,o),
(421,900,cs),
(300,900,l),
(300,798,l),
(409,798,ls),
(685,798,o),
(782,600,o),
(782,450,cs),
(782,300,o),
(685,102,o),
(409,102,cs),
(300,102,l),
(300,0,l)
);
},
{
closed = 1;
nodes = (
(240,0,l),
(240,900,l),
(126,900,l),
(126,0,l)
);
}
);
width = 960;
},
{
associatedMasterId = "3E87E8DA-1F15-4738-9454-A2AB4CEA57DC";
background = {
shapes = (
{
closed = 1;
nodes = (
(805,-17,o),
(1017,195,o),
(1017,457,cs),
(1017,719,o),
(805,931,o),
(543,931,cs),
(281,931,o),
(69,719,o),
(69,457,cs),
(69,195,o),
(281,-17,o),
(543,-17,cs)
);
},
{
closed = 1;
nodes = (
(344,97,o),
(183,258,o),
(183,457,cs),
(183,656,o),
(344,817,o),
(543,817,cs),
(742,817,o),
(903,656,o),
(903,457,cs),
(903,258,o),
(742,97,o),
(543,97,cs)
);
}
);
};
guides = (
{
angle = 45;
pos = (710,764);
},
{
angle = 45;
pos = (811,853);
}
);
layerId = "B420B59C-F78E-4BB9-8392-7A0BE3350DF4";
name = "Jan 11 17, 19:57";
shapes = (
{
closed = 1;
nodes = (
(417,0,ls),
(669,0,o),
(874,205,o),
(874,457,cs),
(874,709,o),
(669,914,o),
(417,914,cs),
(155,914,l),
(169,805,l),
(406,805,ls),
(598,805,o),
(754,649,o),
(754,457,cs),
(754,265,o),
(598,109,o),
(406,109,cs),
(165,109,l),
(161,0,l)
);
},
{
closed = 1;
nodes = (
(211,0,l),
(211,914,l),
(97,914,l),
(97,0,l)
);
}
);
width = 943;
},
{
associatedMasterId = "5864D40E-51E2-4FDD-96DA-51B6D988DC78";
background = {
shapes = (
{
closed = 1;
nodes = (
(671,-17,o),
(845,157,o),
(845,371,cs),
(845,586,o),
(671,760,o),
(457,760,cs),
(243,760,o),
(69,586,o),
(69,371,cs),
(69,157,o),
(243,-17,o),
(457,-17,cs)
);
},
{
closed = 1;
nodes = (
(306,97,o),
(183,220,o),
(183,371,cs),
(183,523,o),
(306,646,o),
(457,646,cs),
(608,646,o),
(731,523,o),
(731,371,cs),
(731,220,o),
(608,97,o),
(457,97,cs)
);
}
);
};
guides = (
{
pos = (480,798);
}
);
layerId = "ADDCDC05-2A7C-4132-85AA-114E057CAED6";
name = "Regular Dec 28 16, 17:07";
shapes = (
{
closed = 1;
nodes = (
(671,-17,o),
(848,157,o),
(848,371,cs),
(848,586,o),
(671,760,o),
(457,760,cs),
(243,760,o),
(66,586,o),
(66,371,cs),
(66,157,o),
(243,-17,o),
(457,-17,cs)
);
},
{
closed = 1;
nodes = (
(306,97,o),
(186,220,o),
(186,371,cs),
(186,523,o),
(306,646,o),
(457,646,cs),
(608,646,o),
(728,523,o),
(728,371,cs),
(728,220,o),
(608,97,o),
(457,97,cs)
);
}
);
width = 914;
},
{
anchors = (
{
name = bottom;
pos = (407,0);
},
{
name = center;
pos = (179,480);
},
{
name = top;
pos = (407,914);
}
);
background = {
shapes = (
{
closed = 1;
nodes = (
(418,0,ls),
(573,0,o),
(681,47,o),
(764,132,cs),
(850,219,o),
(896,331,o),
(896,451,cs),
(896,579,o),
(843,687,o),
(763,768,cs),
(684,848,o),
(581,900,o),
(418,900,cs),
(127,900,l),
(127,0,l)
);
},
{
closed = 1;
nodes = (
(240,798,l),
(406,798,ls),
(541,798,o),
(621,757,o),
(681,696,cs),
(741,635,o),
(782,550,o),
(782,450,cs),
(782,350,o),
(741,265,o),
(681,204,cs),
(621,143,o),
(541,102,o),
(406,102,cs),
(240,102,l)
);
}
);
};
guides = (
{
angle = 90;
pos = (330,450);
}
);
layerId = "5864D40E-51E2-4FDD-96DA-51B6D988DC78";
shapes = (
{
closed = 1;
nodes = (
(402,0,ls),
(689,0,o),
(886,201,o),
(886,450,cs),
(886,699,o),
(689,900,o),
(402,900,cs),
(330,900,l),
(330,738,l),
(386,738,ls),
(588,738,o),
(698,610,o),
(698,450,cs),
(698,290,o),
(588,162,o),
(386,162,cs),
(330,162,l),
(330,0,l)
);
},
{
closed = 1;
nodes = (
(270,0,l),
(270,900,l),
(96,900,l),
(96,0,l)
);
}
);
width = 940;
},
{
associatedMasterId = "5864D40E-51E2-4FDD-96DA-51B6D988DC78";
background = {
shapes = (
{
closed = 1;
nodes = (
(805,-17,o),
(1017,195,o),
(1017,457,cs),
(1017,719,o),
(805,931,o),
(543,931,cs),
(281,931,o),
(69,719,o),
(69,457,cs),
(69,195,o),
(281,-17,o),
(543,-17,cs)
);
},
{
closed = 1;
nodes = (
(344,97,o),
(183,258,o),
(183,457,cs),
(183,656,o),
(344,817,o),
(543,817,cs),
(742,817,o),
(903,656,o),
(903,457,cs),
(903,258,o),
(742,97,o),
(543,97,cs)
);
}
);
};
guides = (
{
angle = 45;
pos = (710,764);
},
{
angle = 45;
pos = (811,853);
}
);
layerId = "AE0B6BA9-78E7-4FDF-9961-8A0D9014858F";
name = "Jan 11 17, 19:57";
shapes = (
{
closed = 1;
nodes = (
(417,0,ls),
(669,0,o),
(874,205,o),
(874,457,cs),
(874,709,o),
(669,914,o),
(417,914,cs),
(155,914,l),
(169,805,l),
(406,805,ls),
(598,805,o),
(754,649,o),
(754,457,cs),
(754,265,o),
(598,109,o),
(406,109,cs),
(165,109,l),
(161,0,l)
);
},
{
closed = 1;
nodes = (
(211,0,l),
(211,914,l),
(97,914,l),
(97,0,l)
);
}
);
width = 943;
}
);
unicode = 68;
},
{
glyphname = Eth;
kernLeft = B;
kernRight = D;
lastChange = "2023-01-28 20:11:24 +0000";
layers = (
{
guides = (
{
pos = (270,384);
}
);
layerId = "3E87E8DA-1F15-4738-9454-A2AB4CEA57DC";
shapes = (
{
closed = 1;
nodes = (
(421,0,ls),
(747,0,o),
(900,240,o),
(900,450,cs),
(900,660,o),
(747,900,o),
(421,900,cs),
(300,900,l),
(300,798,l),
(409,798,ls),
(685,798,o),
(782,600,o),
(782,450,cs),
(782,300,o),
(685,102,o),
(409,102,cs),
(300,102,l),
(300,0,l)
);
},
{
closed = 1;
nodes = (
(240,0,l),
(240,384,l),
(126,384,l),
(126,0,l)
);
},
{
closed = 1;
nodes = (
(510,438,l),
(510,522,l),
(240,522,l),
(240,900,l),
(126,900,l),
(126,522,l),
(30,522,l),
(30,438,l)
);
}
);
width = 960;
},
{
guides = (
{
pos = (250,363);
}
);
layerId = "5864D40E-51E2-4FDD-96DA-51B6D988DC78";
shapes = (
{
closed = 1;
nodes = (
(402,0,ls),
(689,0,o),
(886,201,o),
(886,450,cs),
(886,699,o),
(689,900,o),
(402,900,cs),
(330,900,l),
(330,738,l),
(386,738,ls),
(588,738,o),
(698,610,o),
(698,450,cs),
(698,290,o),
(588,162,o),
(386,162,cs),
(330,162,l),
(330,0,l)
);
},
{
closed = 1;
nodes = (
(270,0,l),
(270,363,l),
(96,363,l),
(96,0,l)
);
},
{
closed = 1;
nodes = (
(490,417,l),
(490,543,l),
(270,543,l),
(270,900,l),
(96,900,l),
(96,543,l),
(10,543,l),
(10,417,l)
);
}
);
width = 940;
}
);
unicode = 208;
},
{
glyphname = E;
kernLeft = B;
kernRight = E;
lastChange = "2023-01-11 18:28:14 +0000";
layers = (
{
associatedMasterId = "3E87E8DA-1F15-4738-9454-A2AB4CEA57DC";
background = {
shapes = (
{
closed = 1;
nodes = (
(229,0,l),
(229,914,l),
(114,914,l),
(114,0,l)
);
},
{
closed = 1;
nodes = (
(742,434,l),
(742,537,l),
(167,537,l),
(167,434,l)
);
},
{
closed = 1;
nodes = (
(800,0,l),
(800,914,l),
(686,914,l),
(686,0,l)
);
}
);
};
guides = (
{
angle = 180;
pos = (387,578);
}
);
layerId = "4F194CE7-8A75-4BAA-944C-0C427C403B32";
name = "Mar 20 17, 10:13";
shapes = (
{
closed = 1;
nodes = (
(229,0,l),
(229,914,l),
(114,914,l),
(114,0,l)
);
},
{
closed = 1;
nodes = (
(628,0,l),
(628,109,l),
(206,109,l),
(200,0,l)
);
},
{
closed = 1;
nodes = (
(571,434,l),
(571,537,l),
(167,537,l),
(167,434,l)
);
},
{
closed = 1;
nodes = (
(628,811,l),
(628,914,l),
(171,914,l),
(171,811,l)
);
}
);
width = 686;
},
{
anchors = (
{
name = bottom;
pos = (348,0);
},
{
name = ogonek;
pos = (520,0);
},
{
name = top;
pos = (348,900);
},
{
name = topleft;
pos = (126,900);
}
);
background = {
shapes = (
{
closed = 1;
nodes = (
(484,90,o),
(574,181,o),
(574,294,cs),
(574,408,o),
(484,498,o),
(370,498,cs),
(256,498,o),
(166,408,o),
(166,294,cs),
(166,181,o),
(256,90,o),
(370,90,cs)
);
},
{
closed = 1;
nodes = (
(200,-12,o),
(58,121,o),
(58,293,cs),
(58,418,o),
(133,521,o),
(239,568,c),
(232,550,l),
(187,587,o),
(158,639,o),
(158,705,cs),
(158,822,o),
(253,912,o),
(370,912,cs),
(487,912,o),
(582,822,o),
(582,705,cs),
(582,639,o),
(553,587,o),
(508,550,c),
(501,568,l),
(607,521,o),
(682,418,o),
(682,293,cs),
(682,121,o),
(540,-12,o),
(370,-12,cs)
);
},
{
closed = 1;
nodes = (
(432,586,o),
(482,636,o),
(482,698,cs),
(482,760,o),
(432,810,o),
(370,810,cs),
(308,810,o),
(258,760,o),
(258,698,cs),
(258,636,o),
(308,586,o),
(370,586,cs)
);
}
);
};
guides = (
{
angle = 180;
pos = (417,578);
},
{
angle = 180;
pos = (370,542);
},
{
angle = 270;
pos = (126,450);
},
{
angle = 180;
pos = (435,102);
}
);
layerId = "3E87E8DA-1F15-4738-9454-A2AB4CEA57DC";
shapes = (
{
closed = 1;
nodes = (
(240,0,l),
(240,900,l),
(126,900,l),
(126,0,l)
);
},
{
closed = 1;
nodes = (
(570,0,l),
(570,102,l),
(300,102,l),
(300,0,l)
);
},
{
closed = 1;
nodes = (
(500,504,l),
(500,606,l),
(300,606,l),
(300,504,l)
);
},
{
closed = 1;
nodes = (
(570,798,l),
(570,900,l),
(300,900,l),
(300,798,l)
);
}
);
width = 630;
},
{
associatedMasterId = "5864D40E-51E2-4FDD-96DA-51B6D988DC78";
background = {
shapes = (
{
closed = 1;
nodes = (
(229,0,l),
(229,914,l),
(114,914,l),
(114,0,l)
);
},
{
closed = 1;
nodes = (
(742,434,l),
(742,537,l),
(167,537,l),
(167,434,l)
);
},
{
closed = 1;
nodes = (
(800,0,l),
(800,914,l),
(686,914,l),
(686,0,l)
);
}
);
};
guides = (
{
angle = 180;
pos = (387,578);
}
);
layerId = "ED1A7210-07A6-4302-B638-230F45683571";
name = "Mar 20 17, 10:13";
shapes = (
{
closed = 1;
nodes = (
(229,0,l),
(229,914,l),
(114,914,l),
(114,0,l)
);
},
{
closed = 1;
nodes = (
(628,0,l),
(628,109,l),
(206,109,l),
(200,0,l)
);
},
{
closed = 1;
nodes = (
(571,434,l),
(571,537,l),
(167,537,l),
(167,434,l)
);
},
{
closed = 1;
nodes = (
(628,811,l),
(628,914,l),
(171,914,l),
(171,811,l)
);
}
);
width = 686;
},
{
anchors = (
{
name = bottom;
pos = (348,0);
},
{
name = ogonek;
pos = (502,0);
},
{
name = top;
pos = (348,900);
},
{
name = topleft;
pos = (126,900);
}
);
background = {
shapes = (
{
closed = 1;
nodes = (
(484,90,o),
(574,181,o),
(574,294,cs),
(574,408,o),
(484,498,o),
(370,498,cs),
(256,498,o),
(166,408,o),
(166,294,cs),
(166,181,o),
(256,90,o),
(370,90,cs)
);
},
{
closed = 1;
nodes = (
(200,-12,o),
(58,121,o),
(58,293,cs),
(58,418,o),
(133,521,o),
(239,568,c),
(232,550,l),
(187,587,o),
(158,639,o),
(158,705,cs),
(158,822,o),
(253,912,o),
(370,912,cs),
(487,912,o),
(582,822,o),
(582,705,cs),
(582,639,o),
(553,587,o),
(508,550,c),
(501,568,l),
(607,521,o),
(682,418,o),
(682,293,cs),
(682,121,o),
(540,-12,o),
(370,-12,cs)
);
},
{
closed = 1;
nodes = (
(432,586,o),
(482,636,o),
(482,698,cs),
(482,760,o),
(432,810,o),
(370,810,cs),
(308,810,o),
(258,760,o),
(258,698,cs),
(258,636,o),
(308,586,o),
(370,586,cs)
);
}
);
};
guides = (
{
pos = (24,531);
},
{
angle = 90;
pos = (330,309);
}
);
layerId = "5864D40E-51E2-4FDD-96DA-51B6D988DC78";
shapes = (
{
closed = 1;
nodes = (
(270,0,l),
(270,900,l),
(96,900,l),
(96,0,l)
);
},
{
closed = 1;
nodes = (
(576,0,l),
(576,162,l),
(330,162,l),
(330,0,l)
);
},
{
closed = 1;
nodes = (
(506,456,l),
(506,606,l),
(330,606,l),
(330,456,l)
);
},
{
closed = 1;
nodes = (
(576,744,l),
(576,900,l),
(330,900,l),
(330,744,l)
);
}
);
width = 630;
}
);
unicode = 69;
},
{
glyphname = Eogonek;
kernLeft = B;
kernRight = E;
lastChange = "2022-05-21 07:38:54 +0000";
layers = (
{
anchors = (
{
name = top;
pos = (348,900);
},
{
name = topleft;
pos = (126,900);
}
);
background = {
shapes = (
{
closed = 1;
nodes = (
(395,0,l),
(335,-76,o),
(318,-124,o),
(318,-167,cs),
(318,-256,o),
(391,-312,o),
(481,-312,cs),
(527,-312,o),
(566,-299,o),
(594,-277,c),
(570,-180,l),
(555,-205,o),
(532,-228,o),
(492,-228,cs),
(447,-228,o),
(420,-199,o),
(420,-151,cs),
(420,-84,o),
(481,-14,o),
(578,102,c),
(240,102,l),
(240,504,l),
(500,504,l),
(500,606,l),
(240,606,l),
(240,798,l),
(570,798,l),
(570,900,l),
(126,900,l),
(126,0,l)
);
}
);
};
layerId = "3E87E8DA-1F15-4738-9454-A2AB4CEA57DC";
shapes = (
{
ref = E;
},
{
pos = (117,0);
ref = ogonekcomb;
}
);
width = 630;
},
{
anchors = (
{
name = _ogonek;
pos = (516,0);
},
{
name = bottom;
pos = (348,0);
},
{
name = ogonek;
pos = (516,0);
},
{
name = top;
pos = (348,900);
},
{
name = topleft;
pos = (126,900);
}
);
associatedMasterId = "3E87E8DA-1F15-4738-9454-A2AB4CEA57DC";
background = {
shapes = (
{
closed = 1;
nodes = (
(395,0,l),
(335,-76,o),
(318,-124,o),
(318,-167,cs),
(318,-256,o),
(391,-312,o),
(481,-312,cs),
(527,-312,o),
(566,-299,o),
(594,-277,c),
(570,-180,l),
(555,-205,o),
(532,-228,o),
(492,-228,cs),
(447,-228,o),
(420,-199,o),
(420,-151,cs),
(420,-84,o),
(481,-14,o),
(578,102,c),
(240,102,l),
(240,504,l),
(500,504,l),
(500,606,l),
(240,606,l),
(240,798,l),
(570,798,l),
(570,900,l),
(126,900,l),
(126,0,l)
);
}
);
};
layerId = "C0615829-8288-47A3-BF60-0783BA0D79E2";
name = "26 Dec 21, 14:25";
shapes = (
{
closed = 1;
nodes = (
(657,-159,l),
(606,-159,o),
(570,-135,o),
(570,-62,cs),
(570,102,l),
(240,102,l),
(240,504,l),
(500,504,l),
(500,606,l),
(240,606,l),
(240,798,l),
(570,798,l),
(570,900,l),
(126,900,l),
(126,0,l),
(494,0,l),
(470,73,l),
(470,-91,ls),
(470,-195,o),
(548,-252,o),
(635,-252,c)
);
}
);
width = 630;
},
{
anchors = (
{
name = top;
pos = (348,900);
},
{
name = topleft;
pos = (126,900);
}
);
background = {
shapes = (
{
closed = 1;
nodes = (
(395,0,l),
(335,-76,o),
(318,-124,o),
(318,-167,cs),
(318,-256,o),
(391,-312,o),
(481,-312,cs),
(527,-312,o),
(566,-299,o),
(594,-277,c),
(570,-180,l),
(555,-205,o),
(532,-228,o),
(492,-228,cs),
(447,-228,o),
(420,-199,o),
(420,-151,cs),
(420,-84,o),
(481,-14,o),
(578,102,c),
(240,102,l),
(240,504,l),
(500,504,l),
(500,606,l),
(240,606,l),
(240,798,l),
(570,798,l),
(570,900,l),
(126,900,l),
(126,0,l)
);
}
);
};
layerId = "5864D40E-51E2-4FDD-96DA-51B6D988DC78";
shapes = (
{
ref = E;
},
{
pos = (99,0);
ref = ogonekcomb;
}
);
width = 630;
},
{
anchors = (
{
name = _ogonek;
pos = (516,0);
},
{
name = bottom;
pos = (348,0);
},
{
name = ogonek;
pos = (516,0);
},
{
name = top;
pos = (348,900);
},
{
name = topleft;
pos = (126,900);
}
);
associatedMasterId = "5864D40E-51E2-4FDD-96DA-51B6D988DC78";
background = {
shapes = (
{
closed = 1;
nodes = (
(395,0,l),
(335,-76,o),
(318,-124,o),
(318,-167,cs),
(318,-256,o),
(391,-312,o),
(481,-312,cs),
(527,-312,o),
(566,-299,o),
(594,-277,c),
(570,-180,l),
(555,-205,o),
(532,-228,o),
(492,-228,cs),
(447,-228,o),
(420,-199,o),
(420,-151,cs),
(420,-84,o),
(481,-14,o),
(578,102,c),
(240,102,l),
(240,504,l),
(500,504,l),
(500,606,l),
(240,606,l),
(240,798,l),
(570,798,l),
(570,900,l),
(126,900,l),
(126,0,l)
);
}
);
};
layerId = "B893BEE6-2FB8-4DF9-9ED2-B3906626457B";
name = "26 Dec 21, 14:25";
shapes = (
{
closed = 1;
nodes = (
(657,-159,l),
(606,-159,o),
(570,-135,o),
(570,-62,cs),
(570,102,l),
(240,102,l),
(240,504,l),
(500,504,l),
(500,606,l),
(240,606,l),
(240,798,l),
(570,798,l),
(570,900,l),
(126,900,l),
(126,0,l),
(494,0,l),
(470,73,l),
(470,-91,ls),
(470,-195,o),
(548,-252,o),
(635,-252,c)
);
}
);
width = 630;
}
);
unicode = 280;
},
{
glyphname = Schwa;
kernLeft = C;
kernRight = D;
lastChange = "2023-01-28 11:57:50 +0000";
layers = (
{
background = {
shapes = (
{
closed = 1;
nodes = (
(780,-18,o),
(990,191,o),
(990,450,cs),
(990,709,o),
(780,918,o),
(520,918,cs),
(392,918,o),
(277,867,o),
(192,785,c),
(225,647,l),
(287,745,o),
(395,810,o),
(520,810,cs),
(718,810,o),
(872,649,o),
(872,450,cs),
(872,251,o),
(718,90,o),
(520,90,cs),
(394,90,o),
(287,155,o),
(225,253,c),
(192,115,l),
(277,33,o),
(392,-18,o),
(520,-18,cs)
);
}
);
};
guides = (
{
angle = 270;
pos = (550,450);
},
{
angle = 270;
pos = (490,450);
}
);
layerId = "3E87E8DA-1F15-4738-9454-A2AB4CEA57DC";
shapes = (
{
closed = 1;
nodes = (
(488,91,l),
(308,107,o),
(172,261,o),
(172,450,c),
(124,408,l),
(754,408,ls),
(811,408,o),
(869,416,o),
(926,428,c),
(926,490,l),
(869,502,o),
(811,510,o),
(754,510,cs),
(54,510,l),
(54,455,ls),
(54,202,o),
(246,-1,o),
(488,-17,c)
);
},
{
closed = 1;
nodes = (
(282,737,o),
(377,799,o),
(488,809,c),
(488,917,l),
(373,910,o),
(270,860,o),
(192,785,c),
(225,647,l)
);
},
{
closed = 1;
nodes = (
(797,-2,o),
(990,201,o),
(990,450,cs),
(990,699,o),
(797,902,o),
(552,917,c),
(552,809,l),
(734,794,o),
(872,639,o),
(872,450,cs),
(872,261,o),
(734,107,o),
(552,91,c),
(552,-17,l)
);
}
);
width = 1050;
},
{
background = {
shapes = (
{
closed = 1;
nodes = (
(780,-18,o),
(990,191,o),
(990,450,cs),
(990,709,o),
(780,918,o),
(520,918,cs),
(392,918,o),
(277,867,o),
(192,785,c),
(225,647,l),
(287,745,o),
(395,810,o),
(520,810,cs),
(718,810,o),
(872,649,o),
(872,450,cs),
(872,251,o),
(718,90,o),
(520,90,cs),
(394,90,o),
(287,155,o),
(225,253,c),
(192,115,l),
(277,33,o),
(392,-18,o),
(520,-18,cs)
);
}
);
};
guides = (
{
angle = 270;
pos = (550,450);
},
{
angle = 270;
pos = (490,450);
}
);
layerId = "5864D40E-51E2-4FDD-96DA-51B6D988DC78";
shapes = (
{
closed = 1;
nodes = (
(488,151,l),
(339,166,o),
(226,294,o),
(226,450,c),
(166,384,l),
(694,384,ls),
(751,384,o),
(809,392,o),
(866,404,c),
(866,514,l),
(809,526,o),
(751,534,o),
(694,534,cs),
(44,534,l),
(44,450,ls),
(44,201,o),
(240,-2,o),
(488,-17,c)
);
},
{
closed = 1;
nodes = (
(304,677,o),
(382,737,o),
(488,747,c),
(488,917,l),
(378,911,o),
(282,871,o),
(206,807,c),
(257,601,l)
);
},
{
closed = 1;
nodes = (
(800,-2,o),
(996,201,o),
(996,450,cs),
(996,699,o),
(800,902,o),
(552,917,c),
(552,747,l),
(701,732,o),
(814,606,o),
(814,450,cs),
(814,294,o),
(701,166,o),
(552,151,c),
(552,-17,l)
);
}
);
width = 1050;
}
);
unicode = 399;
},
{
glyphname = Ezh;
kernLeft = Ezh;
kernRight = Ezh;
lastChange = "2023-01-28 20:08:54 +0000";
layers = (
{
anchors = (
{
name = bottom;
pos = (302,0);
},
{
name = top;
pos = (313,900);
}
);
guides = (
{
angle = 242.6165;
pos = (223,636);
},
{
angle = 90;
pos = (332,42);
},
{
angle = 90;
pos = (272,42);
}
);
layerId = "3E87E8DA-1F15-4738-9454-A2AB4CEA57DC";
shapes = (
{
closed = 1;
nodes = (
(493,4,o),
(618,135,o),
(618,300,cs),
(618,465,o),
(491,588,o),
(340,602,c),
(352,540,l),
(545,900,l),
(426,900,l),
(181,427,l),
(180,462,l),
(210,486,o),
(253,504,o),
(302,504,cs),
(414,504,o),
(504,412,o),
(504,300,cs),
(504,197,o),
(431,112,o),
(334,98,c),
(334,-11,l)
);
},
{
closed = 1;
nodes = (
(270,98,l),
(169,113,o),
(92,202,o),
(96,312,c),
(118,315,l),
(6,92,l),
(16,169,l),
(62,67,o),
(157,0,o),
(270,-11,c)
);
},
{
closed = 1;
nodes = (
(306,798,l),
(360,900,l),
(84,900,l),
(84,798,l)
);
}
);
width = 660;
},
{
anchors = (
{
name = bottom;
pos = (302,0);
},
{
name = top;
pos = (330,900);
}
);
background = {
shapes = (
{
closed = 1;
nodes = (
(476,-12,o),
(618,125,o),
(618,300,cs),
(618,465,o),
(491,588,o),
(340,602,c),
(352,540,l),
(545,900,l),
(84,900,l),
(84,798,l),
(424,798,l),
(397,844,l),
(181,427,l),
(180,462,l),
(210,486,o),
(253,504,o),
(302,504,cs),
(414,504,o),
(504,412,o),
(504,300,cs),
(504,187,o),
(415,96,o),
(302,96,cs),
(186,96,o),
(92,191,o),
(96,312,c),
(118,315,l),
(6,92,l),
(16,169,l),
(66,58,o),
(175,-12,o),
(302,-12,cs)
);
}
);
};
guides = (
{
angle = 242.876;
pos = (197,586);
},
{
angle = 90;
pos = (267,61);
},
{
angle = 90;
pos = (327,61);
}
);
layerId = "5864D40E-51E2-4FDD-96DA-51B6D988DC78";
shapes = (
{
closed = 1;
nodes = (
(494,-4,o),
(630,128,o),
(630,299,cs),
(630,447,o),
(527,565,o),
(397,597,c),
(405,536,l),
(600,900,l),
(423,900,l),
(158,382,l),
(147,408,l),
(199,441,o),
(242,458,o),
(294,458,cs),
(394,458,o),
(460,388,o),
(460,301,cs),
(460,221,o),
(404,157,o),
(329,144,c),
(329,-19,l)
);
},
{
closed = 1;
nodes = (
(265,145,l),
(178,161,o),
(116,241,o),
(109,329,c),
(130,341,l),
(-7,70,l),
(7,143,l),
(56,56,o),
(152,-9,o),
(265,-19,c)
);
},
{
closed = 1;
nodes = (
(278,744,l),
(358,900,l),
(72,900,l),
(72,744,l)
);
}
);
width = 660;
}
);
unicode = 439;
},
{
glyphname = F;
kernLeft = B;
kernRight = F;
lastChange = "2023-01-11 18:29:09 +0000";
layers = (
{
background = {
shapes = (
{
closed = 1;
nodes = (
(540,0,l),
(540,102,l),
(240,102,l),
(240,492,l),
(500,492,l),
(500,592,l),
(240,592,l),
(240,798,l),
(540,798,l),
(540,900,l),
(126,900,l),
(126,0,l)
);
}
);
};
guides = (
{
angle = 180;
pos = (417,578);
},
{
pos = (30,555);
}
);
hints = (
{
horizontal = 1;
origin = (0,3);
target = up;
type = BottomGhost;
},
{
horizontal = 1;
origin = (2,2);
target = (0,1);
type = Stem;
},
{
horizontal = 1;
origin = (0,2);
target = (2,3);
type = Stem;
},
{
origin = (0,3);
target = (0,0);
type = Stem;
}
);
layerId = "3E87E8DA-1F15-4738-9454-A2AB4CEA57DC";
shapes = (
{
closed = 1;
nodes = (
(240,0,l),
(240,900,l),
(126,900,l),
(126,0,l)
);
},
{
closed = 1;
nodes = (
(540,504,l),
(540,606,l),
(300,606,l),
(300,504,l)
);
},
{
closed = 1;
nodes = (
(570,798,l),
(570,900,l),
(300,900,l),
(300,798,l)
);
}
);
width = 600;
},
{
background = {
shapes = (
{
closed = 1;
nodes = (
(540,0,l),
(540,102,l),
(240,102,l),
(240,492,l),
(500,492,l),
(500,592,l),
(240,592,l),
(240,798,l),
(540,798,l),
(540,900,l),
(126,900,l),
(126,0,l)
);
}
);
};
guides = (
{
angle = 90;
pos = (330,228);
}
);
layerId = "5864D40E-51E2-4FDD-96DA-51B6D988DC78";
shapes = (
{
closed = 1;
nodes = (
(270,0,l),
(270,900,l),
(96,900,l),
(96,0,l)
);
},
{
closed = 1;
nodes = (
(546,456,l),
(546,606,l),
(330,606,l),
(330,456,l)
);
},
{
closed = 1;
nodes = (
(576,750,l),
(576,900,l),
(330,900,l),
(330,750,l)
);
}
);
width = 600;
}
);
unicode = 70;
},
{
glyphname = G;
kernLeft = C;
kernRight = G;
lastChange = "2023-01-11 18:32:00 +0000";
layers = (
{
associatedMasterId = "3E87E8DA-1F15-4738-9454-A2AB4CEA57DC";
background = {
shapes = (
{
closed = 1;
nodes = (
(671,-17,o),
(845,157,o),
(845,371,cs),
(845,586,o),
(671,760,o),
(457,760,cs),
(243,760,o),
(69,586,o),
(69,371,cs),
(69,157,o),
(243,-17,o),
(457,-17,cs)
);
},
{
closed = 1;
nodes = (
(306,97,o),
(183,220,o),
(183,371,cs),
(183,523,o),
(306,646,o),
(457,646,cs),
(608,646,o),
(731,523,o),
(731,371,cs),
(731,220,o),
(608,97,o),
(457,97,cs)
);
}
);
};
guides = (
{
pos = (480,798);
}
);
layerId = "AF62CE23-FD84-4FD5-9DF8-CCC6436AC4C7";
name = "Regular Dec 28 16, 17:07";
shapes = (
{
closed = 1;
nodes = (
(671,-17,o),
(848,157,o),
(848,371,cs),
(848,586,o),
(671,760,o),
(457,760,cs),
(243,760,o),
(66,586,o),
(66,371,cs),
(66,157,o),
(243,-17,o),
(457,-17,cs)
);
},
{
closed = 1;
nodes = (
(306,97,o),
(186,220,o),
(186,371,cs),
(186,523,o),
(306,646,o),
(457,646,cs),
(608,646,o),
(728,523,o),
(728,371,cs),
(728,220,o),
(608,97,o),
(457,97,cs)
);
}
);
width = 914;
},
{
associatedMasterId = "3E87E8DA-1F15-4738-9454-A2AB4CEA57DC";
background = {
shapes = (
{
closed = 1;
nodes = (
(834,0,l),
(834,457,l),
(720,457,l),
(720,0,l)
);
}
);
};
guides = (
{
angle = 90;
pos = (816,960);
},
{
pos = (1005,480);
}
);
hints = (
{
horizontal = 1;
place = (-17, 114);
place = (-17, 114);
type = Stem;
},
{
horizontal = 1;
origin = (0,4);
target = (0,26);
type = Stem;
},
{
origin = (0,7);
target = (0,23);
type = Stem;
},
{
place = (777, 0);
place = (777, 0);
type = Stem;
}
);
layerId = "10B94073-6B7A-4C01-9208-A2E56E122A60";
name = "Mar 20 17, 10:16";
shapes = (
{
closed = 1;
nodes = (
(777,743,l),
(777,864,l),
(707,903,o),
(627,925,o),
(542,925,cs),
(281,925,o),
(69,719,o),
(69,457,cs),
(69,195,o),
(280,-11,o),
(545,-11,cs),
(651,-11,o),
(754,17,o),
(834,74,c),
(834,457,l),
(720,457,l),
(720,97,l),
(776,173,l),
(714,122,o),
(632,97,o),
(546,97,cs),
(343,97,o),
(189,258,o),
(189,457,cs),
(189,656,o),
(344,817,o),
(543,817,cs),
(626,817,o),
(703,789,o),
(764,743,c)
);
}
);
width = 914;
},
{
anchors = (
{
name = bottom;
pos = (529,0);
},
{
name = center;
pos = (783,270);
},
{
name = top;
pos = (530,900);
}
);
background = {
shapes = (
{
closed = 1;
nodes = (
(790,-18,o),
(1000,191,o),
(1000,450,cs),
(1000,709,o),
(790,918,o),
(530,918,cs),
(270,918,o),
(60,709,o),
(60,450,cs),
(60,191,o),
(270,-18,o),
(530,-18,cs)
);
},
{
closed = 1;
nodes = (
(332,90,o),
(178,251,o),
(178,450,cs),
(178,649,o),
(332,810,o),
(530,810,cs),
(728,810,o),
(882,649,o),
(882,450,cs),
(882,251,o),
(728,90,o),
(530,90,cs)
);
}
);
};
guides = (
{
angle = 76.4717;
pos = (841,714);
},
{
angle = 270;
pos = (668,260);
},
{
angle = 270;
pos = (500,864);
},
{
angle = 270;
pos = (560,864);
}
);
hints = (
{
horizontal = 1;
options = 4;
origin = (0,0);
target = (1,4);
type = TTStem;
},
{
horizontal = 1;
options = 4;
origin = (0,19);
target = (0,6);
type = TTStem;
},
{
horizontal = 1;
options = 2;
origin = (1,3);
type = TTSnap;
},
{
options = 4;
origin = (2,0);
target = (0,9);
type = TTStem;
},
{
options = 4;
origin = (1,6);
target = (1,3);
type = TTStem;
}
);
layerId = "3E87E8DA-1F15-4738-9454-A2AB4CEA57DC";
shapes = (
{
closed = 1;
nodes = (
(577,-18,o),
(623,-12,o),
(664,0,c),
(664,115,l),
(625,98,o),
(579,90,o),
(529,90,cs),
(330,90,o),
(178,254,o),
(178,450,cs),
(178,639,o),
(316,793,o),
(496,809,c),
(496,917,l),
(253,901,o),
(60,698,o),
(60,450,cs),
(60,192,o),
(268,-18,o),
(529,-18,cs)
);
},
{
closed = 1;
nodes = (
(768,36,o),
(806,57,o),
(838,84,c),
(838,480,l),
(480,480,l),
(480,378,l),
(728,378,l),
(728,19,l)
);
},
{
closed = 1;
nodes = (
(858,785,l),
(779,861,o),
(675,910,o),
(564,917,c),
(564,809,l),
(672,800,o),
(768,737,o),
(825,647,c)
);
}
);
width = 940;
},
{
associatedMasterId = "3E87E8DA-1F15-4738-9454-A2AB4CEA57DC";
background = {
shapes = (
{
closed = 1;
nodes = (
(805,-17,o),
(1017,195,o),
(1017,457,cs),
(1017,719,o),
(805,931,o),
(543,931,cs),
(281,931,o),
(69,719,o),
(69,457,cs),
(69,195,o),
(281,-17,o),
(543,-17,cs)
);
},
{
closed = 1;
nodes = (
(344,97,o),
(189,258,o),
(189,457,cs),
(189,656,o),
(344,817,o),
(543,817,cs),
(742,817,o),
(897,656,o),
(897,457,cs),
(897,258,o),
(742,97,o),
(543,97,cs)
);
}
);
};
guides = (
{
angle = 90;
pos = (816,960);
},
{
pos = (1005,480);
},
{
angle = 270;
pos = (876,279);
}
);
hints = (
{
horizontal = 1;
place = (-17, 114);
place = (-17, 114);
type = Stem;
},
{
horizontal = 1;
origin = (0,16);
target = (0,9);
type = Stem;
},
{
origin = (0,19);
target = (0,6);
type = Stem;
},
{
origin = (0,27);
target = (0,26);
type = Stem;
},
{
horizontal = 1;
origin = (0,12);
target = up;
type = BottomGhost;
},
{
horizontal = 1;
options = 4;
origin = (0,16);
target = (0,9);
type = TTStem;
},
{
horizontal = 1;
options = 4;
origin = (0,22);
target = (0,3);
type = TTStem;
},
{
horizontal = 1;
options = 2;
origin = (0,27);
type = TTSnap;
},
{
options = 4;
origin = (0,19);
target = (0,6);
type = TTStem;
},
{
options = 4;
origin = (0,27);
target = (0,26);
type = TTStem;
}
);
layerId = "B0B13DAF-1722-425B-97FB-2D82B2851662";
name = "Oct 5 19, 11:35";
shapes = (
{
closed = 1;
nodes = (
(776,173,l),
(714,122,o),
(632,97,o),
(546,97,cs),
(343,97,o),
(189,258,o),
(189,457,cs),
(189,656,o),
(344,817,o),
(543,817,cs),
(633,817,o),
(715,784,o),
(777,728,c),
(777,864,l),
(707,903,o),
(627,925,o),
(542,925,cs),
(281,925,o),
(69,719,o),
(69,457,cs),
(69,195,o),
(280,-11,o),
(545,-11,cs),
(651,-11,o),
(754,17,o),
(834,74,c),
(834,457,l),
(720,457,l),
(720,97,l)
);
}
);
width = 914;
},
{
associatedMasterId = "3E87E8DA-1F15-4738-9454-A2AB4CEA57DC";
background = {
shapes = (
{
closed = 1;
nodes = (
(805,-17,o),
(1017,195,o),
(1017,457,cs),
(1017,719,o),
(805,931,o),
(543,931,cs),
(281,931,o),
(69,719,o),
(69,457,cs),
(69,195,o),
(281,-17,o),
(543,-17,cs)
);
},
{
closed = 1;
nodes = (
(344,97,o),
(189,258,o),
(189,457,cs),
(189,656,o),
(344,817,o),
(543,817,cs),
(742,817,o),
(897,656,o),
(897,457,cs),
(897,258,o),
(742,97,o),
(543,97,cs)
);
}
);
};
guides = (
{
angle = 90;
pos = (816,960);
},
{
pos = (1005,480);
},
{
angle = 270;
pos = (876,279);
},
{
pos = (510,493);
}
);
hints = (
{
horizontal = 1;
place = (-17, 114);
place = (-17, 114);
type = Stem;
},
{
horizontal = 1;
origin = (0,17);
target = (0,16);
type = Stem;
},
{
origin = (0,26);
target = (0,13);
type = Stem;
},
{
origin = (0,6);
target = (0,3);
type = Stem;
},
{
horizontal = 1;
place = (728, 21);
target = up;
type = BottomGhost;
},
{
horizontal = 1;
options = 4;
origin = (0,0);
target = (0,16);
type = TTStem;
},
{
horizontal = 1;
options = 4;
origin = (0,29);
target = (0,10);
type = TTStem;
},
{
horizontal = 1;
options = 2;
origin = (0,3);
type = TTSnap;
},
{
options = 4;
origin = (0,26);
target = (0,13);
type = TTStem;
},
{
options = 4;
origin = (0,6);
target = (0,3);
type = TTStem;
}
);
layerId = "2C272EB9-1EBD-4941-BDCC-941F883147A0";
name = "Aug 25 20, 11:54";
shapes = (
{
closed = 1;
nodes = (
(651,-11,o),
(754,17,o),
(834,74,c),
(834,521,l),
(486,521,l),
(486,418,l),
(720,418,l),
(720,136,l),
(668,110,o),
(608,97,o),
(546,97,cs),
(343,97,o),
(189,258,o),
(189,457,cs),
(189,656,o),
(344,817,o),
(543,817,cs),
(665,817,o),
(770,756,o),
(834,664,c),
(834,825,l),
(753,888,o),
(652,925,o),
(543,925,cs),
(281,925,o),
(69,719,o),
(69,457,cs),
(69,195,o),
(280,-11,o),
(545,-11,cs)
);
}
);
width = 943;
},
{
associatedMasterId = "3E87E8DA-1F15-4738-9454-A2AB4CEA57DC";
background = {
shapes = (
{
closed = 1;
nodes = (
(805,-17,o),
(1017,195,o),
(1017,457,cs),
(1017,719,o),
(805,931,o),
(543,931,cs),
(281,931,o),
(69,719,o),
(69,457,cs),
(69,195,o),
(281,-17,o),
(543,-17,cs)
);
},
{
closed = 1;
nodes = (
(344,97,o),
(189,258,o),
(189,457,cs),
(189,656,o),
(344,817,o),
(543,817,cs),
(742,817,o),
(897,656,o),
(897,457,cs),
(897,258,o),
(742,97,o),
(543,97,cs)
);
}
);
};
hints = (
{
horizontal = 1;
place = (-17, 114);
place = (-17, 114);
type = Stem;
},
{
horizontal = 1;
place = (817, 0);
place = (817, 0);
type = Stem;
},
{
origin = (0,21);
target = (0,14);
type = Stem;
},
{
origin = (0,6);
target = (0,3);
type = Stem;
},
{
horizontal = 1;
place = (728, 21);
target = up;
type = BottomGhost;
},
{
horizontal = 1;
options = 4;
origin = (0,0);
target = (0,4);
type = TTStem;
},
{
horizontal = 1;
options = 4;
origin = (0,30);
target = (0,11);
type = TTStem;
},
{
horizontal = 1;
options = 2;
origin = (0,3);
type = TTSnap;
},
{
options = 4;
origin = (0,21);
target = (0,14);
type = TTStem;
},
{
options = 4;
origin = (0,6);
target = (0,3);
type = TTStem;
}
);
layerId = "8F7E427F-5FDE-4BE0-A39E-5321D3018BE0";
name = "14 Dec 21, 10:52";
shapes = (
{
closed = 1;
nodes = (
(651,-17,o),
(754,11,o),
(834,69,c),
(834,521,l),
(486,521,l),
(486,418,l),
(724,418,l),
(724,79,l),
(748,147,l),
(691,110,o),
(621,91,o),
(546,91,cs),
(343,91,o),
(189,258,o),
(189,457,cs),
(189,659,o),
(345,823,o),
(546,823,cs),
(673,823,o),
(783,757,o),
(845,657,c),
(878,792,l),
(792,878,o),
(673,931,o),
(543,931,cs),
(281,931,o),
(69,719,o),
(69,457,cs),
(69,195,o),
(280,-17,o),
(545,-17,cs)
);
}
);
width = 943;
},
{
associatedMasterId = "5864D40E-51E2-4FDD-96DA-51B6D988DC78";
background = {
shapes = (
{
closed = 1;
nodes = (
(671,-17,o),
(845,157,o),
(845,371,cs),
(845,586,o),
(671,760,o),
(457,760,cs),
(243,760,o),
(69,586,o),
(69,371,cs),
(69,157,o),
(243,-17,o),
(457,-17,cs)
);
},
{
closed = 1;
nodes = (
(306,97,o),
(183,220,o),
(183,371,cs),
(183,523,o),
(306,646,o),
(457,646,cs),
(608,646,o),
(731,523,o),
(731,371,cs),
(731,220,o),
(608,97,o),
(457,97,cs)
);
}
);
};
guides = (
{
pos = (480,798);
}
);
layerId = "47CAC299-D04E-4C1F-8D47-DFEE223FFC35";
name = "Regular Dec 28 16, 17:07";
shapes = (
{
closed = 1;
nodes = (
(671,-17,o),
(848,157,o),
(848,371,cs),
(848,586,o),
(671,760,o),
(457,760,cs),
(243,760,o),
(66,586,o),
(66,371,cs),
(66,157,o),
(243,-17,o),
(457,-17,cs)
);
},
{
closed = 1;
nodes = (
(306,97,o),
(186,220,o),
(186,371,cs),
(186,523,o),
(306,646,o),
(457,646,cs),
(608,646,o),
(728,523,o),
(728,371,cs),
(728,220,o),
(608,97,o),
(457,97,cs)
);
}
);
width = 914;
},
{
associatedMasterId = "5864D40E-51E2-4FDD-96DA-51B6D988DC78";
background = {
shapes = (
{
closed = 1;
nodes = (
(834,0,l),
(834,457,l),
(720,457,l),
(720,0,l)
);
}
);
};
guides = (
{
angle = 90;
pos = (816,960);
},
{
pos = (1005,480);
}
);
hints = (
{
horizontal = 1;
place = (-17, 114);
place = (-17, 114);
type = Stem;
},
{
horizontal = 1;
origin = (0,4);
target = (0,26);
type = Stem;
},
{
origin = (0,7);
target = (0,23);
type = Stem;
},
{
place = (777, 0);
place = (777, 0);
type = Stem;
}
);
layerId = "DCFB21A8-40E9-49AB-8D5A-5DE2075C1B86";
name = "Mar 20 17, 10:16";
shapes = (
{
closed = 1;
nodes = (
(777,743,l),
(777,864,l),
(707,903,o),
(627,925,o),
(542,925,cs),
(281,925,o),
(69,719,o),
(69,457,cs),
(69,195,o),
(280,-11,o),
(545,-11,cs),
(651,-11,o),
(754,17,o),
(834,74,c),
(834,457,l),
(720,457,l),
(720,97,l),
(776,173,l),
(714,122,o),
(632,97,o),
(546,97,cs),
(343,97,o),
(189,258,o),
(189,457,cs),
(189,656,o),
(344,817,o),
(543,817,cs),
(626,817,o),
(703,789,o),
(764,743,c)
);
}
);
width = 914;
},
{
anchors = (
{
name = bottom;
pos = (529,0);
},
{
name = center;
pos = (783,270);
},
{
name = top;
pos = (530,900);
}
);
background = {
shapes = (
{
closed = 1;
nodes = (
(793,-18,o),
(1006,191,o),
(1006,450,cs),
(1006,709,o),
(793,918,o),
(530,918,cs),
(267,918,o),
(54,709,o),
(54,450,cs),
(54,191,o),
(267,-18,o),
(530,-18,cs)
);
},
{
closed = 1;
nodes = (
(368,156,o),
(242,287,o),
(242,450,cs),
(242,613,o),
(368,744,o),
(530,744,cs),
(692,744,o),
(818,613,o),
(818,450,cs),
(818,287,o),
(692,156,o),
(530,156,cs)
);
}
);
};
guides = (
{
angle = 76.4717;
pos = (840,807);
},
{
angle = 90;
pos = (568,748);
},
{
angle = 90;
pos = (508,748);
},
{
angle = 270;
pos = (616,267);
}
);
hints = (
{
horizontal = 1;
options = 4;
origin = (0,19);
target = (0,9);
type = TTStem;
},
{
horizontal = 1;
options = 4;
origin = (0,19);
target = (0,6);
type = TTStem;
},
{
horizontal = 1;
options = 2;
origin = (0,9);
type = TTSnap;
},
{
options = 4;
origin = (1,0);
target = (0,9);
type = TTStem;
},
{
options = 4;
origin = (1,7);
target = (2,0);
type = TTStem;
}
);
layerId = "5864D40E-51E2-4FDD-96DA-51B6D988DC78";
shapes = (
{
closed = 1;
nodes = (
(565,-18,o),
(588,-16,o),
(612,-10,c),
(612,160,l),
(589,151,o),
(565,148,o),
(537,148,cs),
(368,148,o),
(242,272,o),
(242,448,cs),
(242,610,o),
(351,732,o),
(504,747,c),
(504,917,l),
(249,903,o),
(54,706,o),
(54,448,cs),
(54,179,o),
(267,-18,o),
(540,-18,cs)
);
},
{
closed = 1;
nodes = (
(734,11,o),
(791,36,o),
(840,67,c),
(840,504,l),
(493,504,l),
(493,354,l),
(676,354,l),
(676,-3,l)
);
},
{
closed = 1;
nodes = (
(852,807,l),
(776,871,o),
(680,911,o),
(572,917,c),
(572,747,l),
(677,737,o),
(754,677,o),
(801,601,c)
);
}
);
width = 920;
},
{
associatedMasterId = "5864D40E-51E2-4FDD-96DA-51B6D988DC78";
background = {
shapes = (
{
closed = 1;
nodes = (
(805,-17,o),
(1017,195,o),
(1017,457,cs),
(1017,719,o),
(805,931,o),
(543,931,cs),
(281,931,o),
(69,719,o),
(69,457,cs),
(69,195,o),
(281,-17,o),
(543,-17,cs)
);
},
{
closed = 1;
nodes = (
(344,97,o),
(189,258,o),
(189,457,cs),
(189,656,o),
(344,817,o),
(543,817,cs),
(742,817,o),
(897,656,o),
(897,457,cs),
(897,258,o),
(742,97,o),
(543,97,cs)
);
}
);
};
guides = (
{
angle = 90;
pos = (816,960);
},
{
pos = (1005,480);
},
{
angle = 270;
pos = (876,279);
}
);
hints = (
{
horizontal = 1;
place = (-17, 114);
place = (-17, 114);
type = Stem;
},
{
horizontal = 1;
origin = (0,16);
target = (0,9);
type = Stem;
},
{
origin = (0,19);
target = (0,6);
type = Stem;
},
{
origin = (0,27);
target = (0,26);
type = Stem;
},
{
horizontal = 1;
origin = (0,12);
target = up;
type = BottomGhost;
},
{
horizontal = 1;
options = 4;
origin = (0,16);
target = (0,9);
type = TTStem;
},
{
horizontal = 1;
options = 4;
origin = (0,22);
target = (0,3);
type = TTStem;
},
{
horizontal = 1;
options = 2;
origin = (0,27);
type = TTSnap;
},
{
options = 4;
origin = (0,19);
target = (0,6);
type = TTStem;
},
{
options = 4;
origin = (0,27);
target = (0,26);
type = TTStem;
}
);
layerId = "720B1CF0-44B7-4DB9-87B9-B5CE43C0ED81";
name = "Oct 5 19, 11:35";
shapes = (
{
closed = 1;
nodes = (
(776,173,l),
(714,122,o),
(632,97,o),
(546,97,cs),
(343,97,o),
(189,258,o),
(189,457,cs),
(189,656,o),
(344,817,o),
(543,817,cs),
(633,817,o),
(715,784,o),
(777,728,c),
(777,864,l),
(707,903,o),
(627,925,o),
(542,925,cs),
(281,925,o),
(69,719,o),
(69,457,cs),
(69,195,o),
(280,-11,o),
(545,-11,cs),
(651,-11,o),
(754,17,o),
(834,74,c),
(834,457,l),
(720,457,l),
(720,97,l)
);
}
);
width = 914;
},
{
associatedMasterId = "5864D40E-51E2-4FDD-96DA-51B6D988DC78";
background = {
shapes = (
{
closed = 1;
nodes = (
(805,-17,o),
(1017,195,o),
(1017,457,cs),
(1017,719,o),
(805,931,o),
(543,931,cs),
(281,931,o),
(69,719,o),
(69,457,cs),
(69,195,o),
(281,-17,o),
(543,-17,cs)
);
},
{
closed = 1;
nodes = (
(344,97,o),
(189,258,o),
(189,457,cs),
(189,656,o),
(344,817,o),
(543,817,cs),
(742,817,o),
(897,656,o),
(897,457,cs),
(897,258,o),
(742,97,o),
(543,97,cs)
);
}
);
};
guides = (
{
angle = 90;
pos = (816,960);
},
{
pos = (1005,480);
},
{
angle = 270;
pos = (876,279);
},
{
pos = (510,493);
}
);
hints = (
{
horizontal = 1;
place = (-17, 114);
place = (-17, 114);
type = Stem;
},
{
horizontal = 1;
origin = (0,17);
target = (0,16);
type = Stem;
},
{
origin = (0,26);
target = (0,13);
type = Stem;
},
{
origin = (0,6);
target = (0,3);
type = Stem;
},
{
horizontal = 1;
place = (728, 21);
target = up;
type = BottomGhost;
},
{
horizontal = 1;
options = 4;
origin = (0,0);
target = (0,16);
type = TTStem;
},
{
horizontal = 1;
options = 4;
origin = (0,29);
target = (0,10);
type = TTStem;
},
{
horizontal = 1;
options = 2;
origin = (0,3);
type = TTSnap;
},
{
options = 4;
origin = (0,26);
target = (0,13);
type = TTStem;
},
{
options = 4;
origin = (0,6);
target = (0,3);
type = TTStem;
}
);
layerId = "3479932C-3F61-4354-8185-3B465DACA1D1";
name = "Aug 25 20, 11:54";
shapes = (
{
closed = 1;
nodes = (
(651,-11,o),
(754,17,o),
(834,74,c),
(834,521,l),
(486,521,l),
(486,418,l),
(720,418,l),
(720,136,l),
(668,110,o),
(608,97,o),
(546,97,cs),
(343,97,o),
(189,258,o),
(189,457,cs),
(189,656,o),
(344,817,o),
(543,817,cs),
(665,817,o),
(770,756,o),
(834,664,c),
(834,825,l),
(753,888,o),
(652,925,o),
(543,925,cs),
(281,925,o),
(69,719,o),
(69,457,cs),
(69,195,o),
(280,-11,o),
(545,-11,cs)
);
}
);
width = 943;
},
{
associatedMasterId = "5864D40E-51E2-4FDD-96DA-51B6D988DC78";
background = {
shapes = (
{
closed = 1;
nodes = (
(805,-17,o),
(1017,195,o),
(1017,457,cs),
(1017,719,o),
(805,931,o),
(543,931,cs),
(281,931,o),
(69,719,o),
(69,457,cs),
(69,195,o),
(281,-17,o),
(543,-17,cs)
);
},
{
closed = 1;
nodes = (
(344,97,o),
(189,258,o),
(189,457,cs),
(189,656,o),
(344,817,o),
(543,817,cs),
(742,817,o),
(897,656,o),
(897,457,cs),
(897,258,o),
(742,97,o),
(543,97,cs)
);
}
);
};
hints = (
{
horizontal = 1;
place = (-17, 114);
place = (-17, 114);
type = Stem;
},
{
horizontal = 1;
place = (817, 0);
place = (817, 0);
type = Stem;
},
{
origin = (0,21);
target = (0,14);
type = Stem;
},
{
origin = (0,6);
target = (0,3);
type = Stem;
},
{
horizontal = 1;
place = (728, 21);
target = up;
type = BottomGhost;
},
{
horizontal = 1;
options = 4;
origin = (0,0);
target = (0,4);
type = TTStem;
},
{
horizontal = 1;
options = 4;
origin = (0,30);
target = (0,11);
type = TTStem;
},
{
horizontal = 1;
options = 2;
origin = (0,3);
type = TTSnap;
},
{
options = 4;
origin = (0,21);
target = (0,14);
type = TTStem;
},
{
options = 4;
origin = (0,6);
target = (0,3);
type = TTStem;
}
);
layerId = "464FAF2E-DF38-42C1-80F2-16A9D21EF5D0";
name = "14 Dec 21, 10:52";
shapes = (
{
closed = 1;
nodes = (
(651,-17,o),
(754,11,o),
(834,69,c),
(834,521,l),
(486,521,l),
(486,418,l),
(724,418,l),
(724,79,l),
(748,147,l),
(691,110,o),
(621,91,o),
(546,91,cs),
(343,91,o),
(189,258,o),
(189,457,cs),
(189,659,o),
(345,823,o),
(546,823,cs),
(673,823,o),
(783,757,o),
(845,657,c),
(878,792,l),
(792,878,o),
(673,931,o),
(543,931,cs),
(281,931,o),
(69,719,o),
(69,457,cs),
(69,195,o),
(280,-17,o),
(545,-17,cs)
);
}
);
width = 943;
}
);
unicode = 71;
},
{
glyphname = Gstroke;
kernLeft = C;
kernRight = G;
lastChange = "2023-01-29 10:14:37 +0000";
layers = (
{
guides = (
{
pos = (700,264);
}
);
layerId = "3E87E8DA-1F15-4738-9454-A2AB4CEA57DC";
shapes = (
{
closed = 1;
nodes = (
(577,-18,o),
(623,-12,o),
(664,0,c),
(664,115,l),
(625,98,o),
(579,90,o),
(529,90,cs),
(330,90,o),
(178,254,o),
(178,450,cs),
(178,639,o),
(316,793,o),
(496,809,c),
(496,917,l),
(253,901,o),
(60,698,o),
(60,450,cs),
(60,192,o),
(268,-18,o),
(529,-18,cs)
);
},
{
closed = 1;
nodes = (
(768,36,o),
(806,57,o),
(838,84,c),
(838,318,l),
(910,318,l),
(910,402,l),
(838,402,l),
(838,480,l),
(728,480,l),
(728,402,l),
(490,402,l),
(490,318,l),
(728,318,l),
(728,19,l)
);
},
{
closed = 1;
nodes = (
(858,785,l),
(779,861,o),
(675,910,o),
(564,917,c),
(564,809,l),
(672,800,o),
(768,737,o),
(825,647,c)
);
}
);
width = 940;
},
{
guides = (
{
pos = (700,255);
}
);
layerId = "5864D40E-51E2-4FDD-96DA-51B6D988DC78";
shapes = (
{
closed = 1;
nodes = (
(565,-18,o),
(588,-16,o),
(612,-10,c),
(612,160,l),
(589,151,o),
(565,148,o),
(537,148,cs),
(368,148,o),
(242,272,o),
(242,448,cs),
(242,610,o),
(351,732,o),
(504,747,c),
(504,917,l),
(249,903,o),
(54,706,o),
(54,448,cs),
(54,179,o),
(267,-18,o),
(540,-18,cs)
);
},
{
closed = 1;
nodes = (
(734,11,o),
(791,36,o),
(840,67,c),
(840,309,l),
(910,309,l),
(910,435,l),
(840,435,l),
(840,504,l),
(676,504,l),
(676,435,l),
(490,435,l),
(490,309,l),
(676,309,l),
(676,-3,l)
);
},
{
closed = 1;
nodes = (
(852,807,l),
(776,871,o),
(680,911,o),
(572,917,c),
(572,747,l),
(677,737,o),
(754,677,o),
(801,601,c)
);
}
);
width = 920;
}
);
unicode = 484;
},
{
glyphname = H;
kernLeft = B;
kernRight = H;
lastChange = "2023-01-20 17:37:09 +0000";
layers = (
{
associatedMasterId = "3E87E8DA-1F15-4738-9454-A2AB4CEA57DC";
background = {
shapes = (
{
closed = 1;
nodes = (
(470,114,o),
(552,196,o),
(552,298,cs),
(552,400,o),
(470,482,o),
(368,482,cs),
(267,482,o),
(185,400,o),
(185,298,cs),
(185,196,o),
(267,114,o),
(368,114,cs)
);
},
{
closed = 1;
nodes = (
(533,0,o),
(666,133,o),
(666,298,cs),
(666,463,o),
(533,596,o),
(368,596,cs),
(204,596,o),
(70,463,o),
(70,298,cs),
(70,133,o),
(204,0,o),
(368,0,cs)
);
},
{
closed = 1;
nodes = (
(425,596,o),
(470,642,o),
(470,698,cs),
(470,754,o),
(425,800,o),
(368,800,cs),
(312,800,o),
(267,754,o),
(267,698,cs),
(267,642,o),
(312,596,o),
(368,596,cs)
);
},
{
closed = 1;
nodes = (
(487,482,o),
(585,579,o),
(585,698,cs),
(585,817,o),
(487,914,o),
(368,914,cs),
(249,914,o),
(152,817,o),
(152,698,cs),
(152,579,o),
(249,482,o),
(368,482,cs)
);
}
);
};
guides = (
{
angle = 180;
pos = (387,578);
}
);
layerId = "0B083BE2-57EA-414F-9366-627905A9C933";
name = "Mar 20 17, 10:15";
shapes = (
{
closed = 1;
nodes = (
(229,0,l),
(229,914,l),
(114,914,l),
(114,0,l)
);
},
{
closed = 1;
nodes = (
(742,434,l),
(742,537,l),
(167,537,l),
(167,434,l)
);
},
{
closed = 1;
nodes = (
(800,0,l),
(800,914,l),
(686,914,l),
(686,0,l)
);
}
);
width = 914;
},
{
anchors = (
{
name = bottom;
pos = (400,0);
},
{
name = center;
pos = (400,750);
},
{
name = top;
pos = (400,900);
},
{
name = topleft;
pos = (126,900);
}
);
background = {
shapes = (
{
closed = 1;
nodes = (
(499,114,o),
(581,196,o),
(581,298,cs),
(581,400,o),
(499,482,o),
(397,482,cs),
(295,482,o),
(213,400,o),
(213,298,cs),
(213,196,o),
(295,114,o),
(397,114,cs)
);
},
{
closed = 1;
nodes = (
(562,0,o),
(695,133,o),
(695,298,cs),
(695,463,o),
(562,596,o),
(397,596,cs),
(232,596,o),
(99,463,o),
(99,298,cs),
(99,133,o),
(232,0,o),
(397,0,cs)
);
},
{
closed = 1;
nodes = (
(453,596,o),
(499,642,o),
(499,698,cs),
(499,754,o),
(453,800,o),
(397,800,cs),
(341,800,o),
(295,754,o),
(295,698,cs),
(295,642,o),
(341,596,o),
(397,596,cs)
);
},
{
closed = 1;
nodes = (
(516,482,o),
(613,579,o),
(613,698,cs),
(613,817,o),
(516,914,o),
(397,914,cs),
(278,914,o),
(181,817,o),
(181,698,cs),
(181,579,o),
(278,482,o),
(397,482,cs)
);
}
);
};
guides = (
{
angle = 180;
pos = (417,578);
},
{
angle = 180;
pos = (240,750);
}
);
layerId = "3E87E8DA-1F15-4738-9454-A2AB4CEA57DC";
shapes = (
{
closed = 1;
nodes = (
(674,0,l),
(674,900,l),
(560,900,l),
(560,606,l),
(300,606,l),
(300,504,l),
(560,504,l),
(560,0,l)
);
},
{
closed = 1;
nodes = (
(240,0,l),
(240,900,l),
(126,900,l),
(126,0,l)
);
}
);
width = 800;
},
{
associatedMasterId = "5864D40E-51E2-4FDD-96DA-51B6D988DC78";
background = {
shapes = (
{
closed = 1;
nodes = (
(470,114,o),
(552,196,o),
(552,298,cs),
(552,400,o),
(470,482,o),
(368,482,cs),
(267,482,o),
(185,400,o),
(185,298,cs),
(185,196,o),
(267,114,o),
(368,114,cs)
);
},
{
closed = 1;
nodes = (
(533,0,o),
(666,133,o),
(666,298,cs),
(666,463,o),
(533,596,o),
(368,596,cs),
(204,596,o),
(70,463,o),
(70,298,cs),
(70,133,o),
(204,0,o),
(368,0,cs)
);
},
{
closed = 1;
nodes = (
(425,596,o),
(470,642,o),
(470,698,cs),
(470,754,o),
(425,800,o),
(368,800,cs),
(312,800,o),
(267,754,o),
(267,698,cs),
(267,642,o),
(312,596,o),
(368,596,cs)
);
},
{
closed = 1;
nodes = (
(487,482,o),
(585,579,o),
(585,698,cs),
(585,817,o),
(487,914,o),
(368,914,cs),
(249,914,o),
(152,817,o),
(152,698,cs),
(152,579,o),
(249,482,o),
(368,482,cs)
);
}
);
};
guides = (
{
angle = 180;
pos = (387,578);
}
);
layerId = "AEA64642-A113-4D44-AD69-5FF1E071C57B";
name = "Mar 20 17, 10:15";
shapes = (
{
closed = 1;
nodes = (
(229,0,l),
(229,914,l),
(114,914,l),
(114,0,l)
);
},
{
closed = 1;
nodes = (
(742,434,l),
(742,537,l),
(167,537,l),
(167,434,l)
);
},
{
closed = 1;
nodes = (
(800,0,l),
(800,914,l),
(686,914,l),
(686,0,l)
);
}
);
width = 914;
},
{
anchors = (
{
name = bottom;
pos = (400,0);
},
{
name = center;
pos = (400,750);
},
{
name = top;
pos = (400,900);
},
{
name = topleft;
pos = (126,900);
}
);
background = {
shapes = (
{
closed = 1;
nodes = (
(704,0,l),
(704,900,l),
(530,900,l),
(530,612,l),
(330,612,l),
(330,450,l),
(530,450,l),
(530,0,l)
);
},
{
closed = 1;
nodes = (
(270,0,l),
(270,900,l),
(96,900,l),
(96,0,l)
);
}
);
};
guides = (
{
angle = 90;
pos = (330,756);
},
{
angle = 90;
pos = (400,0);
}
);
layerId = "5864D40E-51E2-4FDD-96DA-51B6D988DC78";
shapes = (
{
closed = 1;
nodes = (
(704,0,l),
(704,900,l),
(530,900,l),
(530,612,l),
(330,612,l),
(330,450,l),
(530,450,l),
(530,0,l)
);
},
{
closed = 1;
nodes = (
(270,0,l),
(270,900,l),
(96,900,l),
(96,0,l)
);
}
);
width = 800;
},
{
anchors = (
{
name = bottom;
pos = (400,0);
},
{
name = center;
pos = (400,750);
},
{
name = top;
pos = (400,900);
},
{
name = topleft;
pos = (126,900);
}
);
associatedMasterId = "5864D40E-51E2-4FDD-96DA-51B6D988DC78";
background = {
shapes = (
{
closed = 1;
nodes = (
(499,114,o),
(581,196,o),
(581,298,cs),
(581,400,o),
(499,482,o),
(397,482,cs),
(295,482,o),
(213,400,o),
(213,298,cs),
(213,196,o),
(295,114,o),
(397,114,cs)
);
},
{
closed = 1;
nodes = (
(562,0,o),
(695,133,o),
(695,298,cs),
(695,463,o),
(562,596,o),
(397,596,cs),
(232,596,o),
(99,463,o),
(99,298,cs),
(99,133,o),
(232,0,o),
(397,0,cs)
);
},
{
closed = 1;
nodes = (
(453,596,o),
(499,642,o),
(499,698,cs),
(499,754,o),
(453,800,o),
(397,800,cs),
(341,800,o),
(295,754,o),
(295,698,cs),
(295,642,o),
(341,596,o),
(397,596,cs)
);
},
{
closed = 1;
nodes = (
(516,482,o),
(613,579,o),
(613,698,cs),
(613,817,o),
(516,914,o),
(397,914,cs),
(278,914,o),
(181,817,o),
(181,698,cs),
(181,579,o),
(278,482,o),
(397,482,cs)
);
}
);
};
guides = (
{
angle = 90;
pos = (330,756);
},
{
angle = 90;
pos = (400,0);
}
);
layerId = "43A55394-3FFE-4E9F-8949-E44C3985BCF6";
name = "20 Jan 23, 18:36";
shapes = (
{
closed = 1;
nodes = (
(704,0,l),
(704,900,l),
(530,900,l),
(530,612,l),
(330,612,l),
(330,450,l),
(530,450,l),
(530,0,l)
);
},
{
closed = 1;
nodes = (
(270,0,l),
(270,900,l),
(96,900,l),
(96,0,l)
);
}
);
width = 800;
}
);
unicode = 72;
},
{
glyphname = Hbar;
kernLeft = B;
kernRight = H;
lastChange = "2023-01-28 11:55:45 +0000";
layers = (
{
anchors = (
{
name = bottom;
pos = (400,0);
},
{
name = center;
pos = (400,720);
},
{
name = top;
pos = (400,900);
},
{
name = topleft;
pos = (126,900);
}
);
guides = (
{
pos = (400,624);
}
);
layerId = "3E87E8DA-1F15-4738-9454-A2AB4CEA57DC";
shapes = (
{
closed = 1;
nodes = (
(674,0,l),
(674,625,l),
(560,625,l),
(560,546,l),
(300,546,l),
(300,444,l),
(560,444,l),
(560,0,l)
);
},
{
closed = 1;
nodes = (
(240,0,l),
(240,625,l),
(126,625,l),
(126,0,l)
);
},
{
closed = 1;
nodes = (
(770,678,l),
(770,762,l),
(674,762,l),
(674,900,l),
(560,900,l),
(560,762,l),
(240,762,l),
(240,900,l),
(126,900,l),
(126,762,l),
(30,762,l),
(30,678,l)
);
}
);
width = 800;
},
{
anchors = (
{
name = bottom;
pos = (400,0);
},
{
name = center;
pos = (400,720);
},
{
name = top;
pos = (400,900);
},
{
name = topleft;
pos = (126,900);
}
);
guides = (
{
pos = (400,612);
}
);
layerId = "5864D40E-51E2-4FDD-96DA-51B6D988DC78";
shapes = (
{
closed = 1;
nodes = (
(704,0,l),
(704,612,l),
(530,612,l),
(530,576,l),
(330,576,l),
(330,414,l),
(530,414,l),
(530,0,l)
);
},
{
closed = 1;
nodes = (
(270,0,l),
(270,612,l),
(96,612,l),
(96,0,l)
);
},
{
closed = 1;
nodes = (
(770,666,l),
(770,774,l),
(704,774,l),
(704,900,l),
(530,900,l),
(530,774,l),
(270,774,l),
(270,900,l),
(96,900,l),
(96,774,l),
(30,774,l),
(30,666,l)
);
}
);
width = 800;
}
);
unicode = 294;
},
{
glyphname = I;
kernLeft = B;
kernRight = H;
lastChange = "2022-05-20 16:41:10 +0000";
layers = (
{
anchors = (
{
name = bottom;
pos = (195,0);
},
{
name = ogonek;
pos = (195,0);
},
{
name = top;
pos = (195,900);
},
{
name = topleft;
pos = (0,900);
}
);
background = {
shapes = (
{
closed = 1;
nodes = (
(497,114,o),
(579,196,o),
(579,298,cs),
(579,400,o),
(497,482,o),
(395,482,cs),
(293,482,o),
(211,400,o),
(211,298,cs),
(211,196,o),
(293,114,o),
(395,114,cs)
);
},
{
closed = 1;
nodes = (
(560,0,o),
(693,133,o),
(693,298,cs),
(693,463,o),
(560,596,o),
(395,596,cs),
(230,596,o),
(97,463,o),
(97,298,cs),
(97,133,o),
(230,0,o),
(395,0,cs)
);
},
{
closed = 1;
nodes = (
(451,596,o),
(497,642,o),
(497,698,cs),
(497,754,o),
(451,800,o),
(395,800,cs),
(339,800,o),
(293,754,o),
(293,698,cs),
(293,642,o),
(339,596,o),
(395,596,cs)
);
},
{
closed = 1;
nodes = (
(514,482,o),
(611,579,o),
(611,698,cs),
(611,817,o),
(514,914,o),
(395,914,cs),
(276,914,o),
(179,817,o),
(179,698,cs),
(179,579,o),
(276,482,o),
(395,482,cs)
);
}
);
};
guides = (
{
angle = 180;
pos = (415,578);
}
);
layerId = "3E87E8DA-1F15-4738-9454-A2AB4CEA57DC";
shapes = (
{
closed = 1;
nodes = (
(252,0,l),
(252,900,l),
(138,900,l),
(138,0,l)
);
}
);
width = 390;
},
{
anchors = (
{
name = bottom;
pos = (195,0);
},
{
name = ogonek;
pos = (195,0);
},
{
name = top;
pos = (195,900);
},
{
name = topleft;
pos = (0,900);
}
);
background = {
shapes = (
{
closed = 1;
nodes = (
(497,114,o),
(579,196,o),
(579,298,cs),
(579,400,o),
(497,482,o),
(395,482,cs),
(293,482,o),
(211,400,o),
(211,298,cs),
(211,196,o),
(293,114,o),
(395,114,cs)
);
},
{
closed = 1;
nodes = (
(560,0,o),
(693,133,o),
(693,298,cs),
(693,463,o),
(560,596,o),
(395,596,cs),
(230,596,o),
(97,463,o),
(97,298,cs),
(97,133,o),
(230,0,o),
(395,0,cs)
);
},
{
closed = 1;
nodes = (
(451,596,o),
(497,642,o),
(497,698,cs),
(497,754,o),
(451,800,o),
(395,800,cs),
(339,800,o),
(293,754,o),
(293,698,cs),
(293,642,o),
(339,596,o),
(395,596,cs)
);
},
{
closed = 1;
nodes = (
(514,482,o),
(611,579,o),
(611,698,cs),
(611,817,o),
(514,914,o),
(395,914,cs),
(276,914,o),
(179,817,o),
(179,698,cs),
(179,579,o),
(276,482,o),
(395,482,cs)
);
}
);
};
guides = (
{
angle = 180;
pos = (415,578);
}
);
layerId = "5864D40E-51E2-4FDD-96DA-51B6D988DC78";
shapes = (
{
closed = 1;
nodes = (
(288,0,l),
(288,900,l),
(102,900,l),
(102,0,l)
);
}
);
width = 390;
}
);
unicode = 73;
},
{
glyphname = Iogonek;
kernLeft = B;
kernRight = H;
lastChange = "2022-05-20 16:41:10 +0000";
layers = (
{
anchors = (
{
name = top;
pos = (195,900);
},
{
name = topleft;
pos = (0,900);
}
);
background = {
shapes = (
{
closed = 1;
nodes = (
(252,0,l),
(252,900,l),
(138,900,l),
(138,0,l)
);
},
{
closed = 1;
nodes = (
(259,-312,o),
(298,-299,o),
(326,-277,c),
(302,-180,l),
(287,-205,o),
(264,-228,o),
(224,-228,cs),
(179,-228,o),
(157,-198,o),
(157,-162,cs),
(157,-137,o),
(166,-117,o),
(185,-86,cs),
(203,-57,o),
(227,-29,o),
(252,0,c),
(138,0,l),
(111,-34,ls),
(71,-84,o),
(55,-122,o),
(55,-164,cs),
(55,-253,o),
(129,-312,o),
(216,-312,cs)
);
}
);
};
layerId = "3E87E8DA-1F15-4738-9454-A2AB4CEA57DC";
shapes = (
{
ref = I;
},
{
pos = (-208,0);
ref = ogonekcomb.I;
}
);
width = 390;
},
{
anchors = (
{
name = top;
pos = (195,900);
},
{
name = topleft;
pos = (0,900);
}
);
background = {
shapes = (
{
closed = 1;
nodes = (
(252,0,l),
(252,900,l),
(138,900,l),
(138,0,l)
);
},
{
closed = 1;
nodes = (
(259,-312,o),
(298,-299,o),
(326,-277,c),
(302,-180,l),
(287,-205,o),
(264,-228,o),
(224,-228,cs),
(179,-228,o),
(157,-198,o),
(157,-162,cs),
(157,-137,o),
(166,-117,o),
(185,-86,cs),
(203,-57,o),
(227,-29,o),
(252,0,c),
(138,0,l),
(111,-34,ls),
(71,-84,o),
(55,-122,o),
(55,-164,cs),
(55,-253,o),
(129,-312,o),
(216,-312,cs)
);
}
);
};
layerId = "5864D40E-51E2-4FDD-96DA-51B6D988DC78";
shapes = (
{
ref = I;
},
{
pos = (-208,0);
ref = ogonekcomb.I;
}
);
width = 390;
}
);
unicode = 302;
},
{
glyphname = J;
kernLeft = J;
kernRight = J;
lastChange = "2023-01-29 10:17:18 +0000";
layers = (
{
associatedMasterId = "3E87E8DA-1F15-4738-9454-A2AB4CEA57DC";
background = {
shapes = (
{
closed = 1;
nodes = (
(358,-6,o),
(468,77,o),
(468,254,cs),
(468,914,l),
(354,914,l),
(354,260,ls),
(354,142,o),
(297,97,o),
(207,97,cs),
(159,97,o),
(94,118,o),
(51,154,c),
(51,32,l),
(97,5,o),
(163,-6,o),
(209,-6,cs)
);
},
{
closed = 1;
nodes = (
(449,811,l),
(449,914,l),
(57,914,l),
(57,811,l)
);
}
);
};
guides = (
{
angle = 180;
pos = (657,578);
},
{
angle = 90;
pos = (57,906);
}
);
layerId = "DC5B198C-2280-4E3C-8553-D99489B0AF88";
name = "Jan 23 17, 10:23";
shapes = (
{
closed = 1;
nodes = (
(358,-6,o),
(468,77,o),
(468,254,cs),
(468,914,l),
(354,914,l),
(354,260,ls),
(354,142,o),
(295,97,o),
(210,97,cs),
(157,97,o),
(96,115,o),
(53,160,c),
(40,160,l),
(40,46,l),
(96,2,o),
(163,-6,o),
(209,-6,cs)
);
},
{
closed = 1;
nodes = (
(449,811,l),
(449,914,l),
(57,914,l),
(57,811,l)
);
}
);
width = 571;
},
{
associatedMasterId = "3E87E8DA-1F15-4738-9454-A2AB4CEA57DC";
background = {
shapes = (
{
closed = 1;
nodes = (
(358,-6,o),
(468,77,o),
(468,254,cs),
(468,914,l),
(354,914,l),
(354,260,ls),
(354,142,o),
(297,97,o),
(207,97,cs),
(159,97,o),
(94,118,o),
(51,154,c),
(51,32,l),
(97,5,o),
(163,-6,o),
(209,-6,cs)
);
},
{
closed = 1;
nodes = (
(449,811,l),
(449,914,l),
(57,914,l),
(57,811,l)
);
}
);
};
guides = (
{
angle = 180;
pos = (657,578);
},
{
angle = 90;
pos = (57,906);
}
);
layerId = "60F05CCB-B363-4547-95C8-3169BB90B98C";
name = "Mar 20 17, 10:19";
shapes = (
{
closed = 1;
nodes = (
(358,-6,o),
(468,77,o),
(468,254,cs),
(468,914,l),
(354,914,l),
(354,260,ls),
(354,142,o),
(295,97,o),
(210,97,cs),
(157,97,o),
(96,115,o),
(53,160,c),
(40,160,l),
(40,46,l),
(96,2,o),
(163,-6,o),
(209,-6,cs)
);
}
);
width = 571;
},
{
anchors = (
{
name = bottom;
pos = (156,0);
},
{
name = top;
pos = (375,900);
}
);
background = {
shapes = (
{
closed = 1;
nodes = (
(300,-12,o),
(432,97,o),
(432,272,cs),
(432,900,l),
(318,900,l),
(318,268,ls),
(318,161,o),
(244,90,o),
(144,90,cs),
(47,90,o),
(-36,156,o),
(-56,240,c),
(-120,114,l),
(-72,46,o),
(25,-12,o),
(141,-12,cs)
);
}
);
};
guides = (
{
angle = 90;
pos = (218,39);
},
{
angle = 90;
pos = (158,39);
},
{
angle = 270;
pos = (318,578);
},
{
angle = 270;
pos = (258,578);
}
);
layerId = "3E87E8DA-1F15-4738-9454-A2AB4CEA57DC";
shapes = (
{
closed = 1;
nodes = (
(385,59,o),
(432,133,o),
(432,247,cs),
(432,900,l),
(318,900,l),
(318,20,l)
);
},
{
closed = 1;
nodes = (
(208,-12,o),
(232,-9,o),
(254,-4,c),
(254,109,l),
(233,96,o),
(209,90,o),
(183,90,cs),
(123,90,o),
(75,122,o),
(45,174,c),
(12,54,l),
(57,6,o),
(122,-12,o),
(184,-12,cs)
);
}
);
width = 540;
},
{
associatedMasterId = "3E87E8DA-1F15-4738-9454-A2AB4CEA57DC";
background = {
shapes = (
{
closed = 1;
nodes = (
(727,114,o),
(809,196,o),
(809,298,cs),
(809,400,o),
(727,482,o),
(626,482,cs),
(524,482,o),
(442,400,o),
(442,298,cs),
(442,196,o),
(524,114,o),
(626,114,cs)
);
},
{
closed = 1;
nodes = (
(790,0,o),
(924,133,o),
(924,298,cs),
(924,463,o),
(790,596,o),
(626,596,cs),
(461,596,o),
(328,463,o),
(328,298,cs),
(328,133,o),
(461,0,o),
(626,0,cs)
);
},
{
closed = 1;
nodes = (
(682,596,o),
(727,642,o),
(727,698,cs),
(727,754,o),
(682,800,o),
(626,800,cs),
(569,800,o),
(524,754,o),
(524,698,cs),
(524,642,o),
(569,596,o),
(626,596,cs)
);
},
{
closed = 1;
nodes = (
(745,482,o),
(842,579,o),
(842,698,cs),
(842,817,o),
(745,914,o),
(626,914,cs),
(507,914,o),
(409,817,o),
(409,698,cs),
(409,579,o),
(507,482,o),
(626,482,cs)
);
}
);
};
guides = (
{
angle = 180;
pos = (657,578);
},
{
angle = 90;
pos = (57,906);
}
);
layerId = "AF062449-6B5A-4ACD-B4D6-678206795FC2";
name = "Oct 5 19, 14:32";
shapes = (
{
closed = 1;
nodes = (
(358,-6,o),
(468,77,o),
(468,254,cs),
(468,914,l),
(354,914,l),
(354,260,ls),
(354,142,o),
(297,97,o),
(207,97,cs),
(159,97,o),
(94,118,o),
(51,154,c),
(51,32,l),
(97,5,o),
(163,-6,o),
(209,-6,cs)
);
}
);
width = 571;
},
{
associatedMasterId = "3E87E8DA-1F15-4738-9454-A2AB4CEA57DC";
background = {
shapes = (
{
closed = 1;
nodes = (
(727,114,o),
(809,196,o),
(809,298,cs),
(809,400,o),
(727,482,o),
(626,482,cs),
(524,482,o),
(442,400,o),
(442,298,cs),
(442,196,o),
(524,114,o),
(626,114,cs)
);
},
{
closed = 1;
nodes = (
(790,0,o),
(924,133,o),
(924,298,cs),
(924,463,o),
(790,596,o),
(626,596,cs),
(461,596,o),
(328,463,o),
(328,298,cs),
(328,133,o),
(461,0,o),
(626,0,cs)
);
},
{
closed = 1;
nodes = (
(682,596,o),
(727,642,o),
(727,698,cs),
(727,754,o),
(682,800,o),
(626,800,cs),
(569,800,o),
(524,754,o),
(524,698,cs),
(524,642,o),
(569,596,o),
(626,596,cs)
);
},
{
closed = 1;
nodes = (
(745,482,o),
(842,579,o),
(842,698,cs),
(842,817,o),
(745,914,o),
(626,914,cs),
(507,914,o),
(409,817,o),
(409,698,cs),
(409,579,o),
(507,482,o),
(626,482,cs)
);
}
);
};
guides = (
{
angle = 180;
pos = (657,578);
},
{
angle = 90;
pos = (57,906);
}
);
layerId = "F42C55D3-C8A2-43F1-AD2C-EF017C711739";
name = "Oct 5 19, 14:33";
shapes = (
{
closed = 1;
nodes = (
(370,-11,o),
(468,82,o),
(468,206,cs),
(468,914,l),
(354,914,l),
(354,198,ls),
(354,138,o),
(309,91,o),
(249,91,cs),
(189,91,o),
(145,133,o),
(145,196,cs),
(145,221,o),
(151,240,o),
(163,257,c),
(44,257,l),
(39,238,o),
(36,218,o),
(36,197,cs),
(36,78,o),
(130,-11,o),
(248,-11,cs)
);
}
);
width = 571;
},
{
associatedMasterId = "5864D40E-51E2-4FDD-96DA-51B6D988DC78";
background = {
shapes = (
{
closed = 1;
nodes = (
(358,-6,o),
(468,77,o),
(468,254,cs),
(468,914,l),
(354,914,l),
(354,260,ls),
(354,142,o),
(297,97,o),
(207,97,cs),
(159,97,o),
(94,118,o),
(51,154,c),
(51,32,l),
(97,5,o),
(163,-6,o),
(209,-6,cs)
);
},
{
closed = 1;
nodes = (
(449,811,l),
(449,914,l),
(57,914,l),
(57,811,l)
);
}
);
};
guides = (
{
angle = 180;
pos = (657,578);
},
{
angle = 90;
pos = (57,906);
}
);
layerId = "B0996B87-75F2-49FF-8707-8C80D0D980F1";
name = "Jan 23 17, 10:23";
shapes = (
{
closed = 1;
nodes = (
(358,-6,o),
(468,77,o),
(468,254,cs),
(468,914,l),
(354,914,l),
(354,260,ls),
(354,142,o),
(295,97,o),
(210,97,cs),
(157,97,o),
(96,115,o),
(53,160,c),
(40,160,l),
(40,46,l),
(96,2,o),
(163,-6,o),
(209,-6,cs)
);
},
{
closed = 1;
nodes = (
(449,811,l),
(449,914,l),
(57,914,l),
(57,811,l)
);
}
);
width = 571;
},
{
associatedMasterId = "5864D40E-51E2-4FDD-96DA-51B6D988DC78";
background = {
shapes = (
{
closed = 1;
nodes = (
(358,-6,o),
(468,77,o),
(468,254,cs),
(468,914,l),
(354,914,l),
(354,260,ls),
(354,142,o),
(297,97,o),
(207,97,cs),
(159,97,o),
(94,118,o),
(51,154,c),
(51,32,l),
(97,5,o),
(163,-6,o),
(209,-6,cs)
);
},
{
closed = 1;
nodes = (
(449,811,l),
(449,914,l),
(57,914,l),
(57,811,l)
);
}
);
};
guides = (
{
angle = 180;
pos = (657,578);
},
{
angle = 90;
pos = (57,906);
}
);
layerId = "BE391E62-0AA4-4DD4-8856-E418A528FEA1";
name = "Mar 20 17, 10:19";
shapes = (
{
closed = 1;
nodes = (
(358,-6,o),
(468,77,o),
(468,254,cs),
(468,914,l),
(354,914,l),
(354,260,ls),
(354,142,o),
(295,97,o),
(210,97,cs),
(157,97,o),
(96,115,o),
(53,160,c),
(40,160,l),
(40,46,l),
(96,2,o),
(163,-6,o),
(209,-6,cs)
);
}
);
width = 571;
},
{
anchors = (
{
name = bottom;
pos = (165,0);
},
{
name = top;
pos = (384,900);
}
);
background = {
shapes = (
{
closed = 1;
nodes = (
(310,-12,o),
(441,79,o),
(441,284,cs),
(441,900,l),
(327,900,l),
(327,292,ls),
(327,143,o),
(253,90,o),
(167,90,cs),
(91,90,o),
(30,129,o),
(-6,192,c),
(-39,64,l),
(12,9,o),
(89,-12,o),
(162,-12,cs)
);
}
);
};
guides = (
{
angle = -4.0142;
pos = (471,307);
},
{
angle = 90;
pos = (230,-20);
},
{
angle = 90;
pos = (290,-20);
}
);
layerId = "5864D40E-51E2-4FDD-96DA-51B6D988DC78";
shapes = (
{
closed = 1;
nodes = (
(394,24,o),
(476,112,o),
(476,270,cs),
(476,900,l),
(290,900,l),
(290,-8,l)
);
},
{
closed = 1;
nodes = (
(205,-20,o),
(216,-19,o),
(226,-17,c),
(226,158,l),
(211,151,o),
(194,148,o),
(176,148,cs),
(126,148,o),
(85,174,o),
(59,214,c),
(12,46,l),
(57,1,o),
(127,-20,o),
(195,-20,cs)
);
}
);
width = 560;
},
{
associatedMasterId = "5864D40E-51E2-4FDD-96DA-51B6D988DC78";
background = {
shapes = (
{
closed = 1;
nodes = (
(727,114,o),
(809,196,o),
(809,298,cs),
(809,400,o),
(727,482,o),
(626,482,cs),
(524,482,o),
(442,400,o),
(442,298,cs),
(442,196,o),
(524,114,o),
(626,114,cs)
);
},
{
closed = 1;
nodes = (
(790,0,o),
(924,133,o),
(924,298,cs),
(924,463,o),
(790,596,o),
(626,596,cs),
(461,596,o),
(328,463,o),
(328,298,cs),
(328,133,o),
(461,0,o),
(626,0,cs)
);
},
{
closed = 1;
nodes = (
(682,596,o),
(727,642,o),
(727,698,cs),
(727,754,o),
(682,800,o),
(626,800,cs),
(569,800,o),
(524,754,o),
(524,698,cs),
(524,642,o),
(569,596,o),
(626,596,cs)
);
},
{
closed = 1;
nodes = (
(745,482,o),
(842,579,o),
(842,698,cs),
(842,817,o),
(745,914,o),
(626,914,cs),
(507,914,o),
(409,817,o),
(409,698,cs),
(409,579,o),
(507,482,o),
(626,482,cs)
);
}
);
};
guides = (
{
angle = 180;
pos = (657,578);
},
{
angle = 90;
pos = (57,906);
}
);
layerId = "FB9F9228-3CAD-4F71-B0A0-0826D8CD3313";
name = "Oct 5 19, 14:32";
shapes = (
{
closed = 1;
nodes = (
(358,-6,o),
(468,77,o),
(468,254,cs),
(468,914,l),
(354,914,l),
(354,260,ls),
(354,142,o),
(297,97,o),
(207,97,cs),
(159,97,o),
(94,118,o),
(51,154,c),
(51,32,l),
(97,5,o),
(163,-6,o),
(209,-6,cs)
);
}
);
width = 571;
},
{
associatedMasterId = "5864D40E-51E2-4FDD-96DA-51B6D988DC78";
background = {
shapes = (
{
closed = 1;
nodes = (
(727,114,o),
(809,196,o),
(809,298,cs),
(809,400,o),
(727,482,o),
(626,482,cs),
(524,482,o),
(442,400,o),
(442,298,cs),
(442,196,o),
(524,114,o),
(626,114,cs)
);
},
{
closed = 1;
nodes = (
(790,0,o),
(924,133,o),
(924,298,cs),
(924,463,o),
(790,596,o),
(626,596,cs),
(461,596,o),
(328,463,o),
(328,298,cs),
(328,133,o),
(461,0,o),
(626,0,cs)
);
},
{
closed = 1;
nodes = (
(682,596,o),
(727,642,o),
(727,698,cs),
(727,754,o),
(682,800,o),
(626,800,cs),
(569,800,o),
(524,754,o),
(524,698,cs),
(524,642,o),
(569,596,o),
(626,596,cs)
);
},
{
closed = 1;
nodes = (
(745,482,o),
(842,579,o),
(842,698,cs),
(842,817,o),
(745,914,o),
(626,914,cs),
(507,914,o),
(409,817,o),
(409,698,cs),
(409,579,o),
(507,482,o),
(626,482,cs)
);
}
);
};
guides = (
{
angle = 180;
pos = (657,578);
},
{
angle = 90;
pos = (57,906);
}
);
layerId = "2425BE13-1925-40AC-8747-26B344CD9DB4";
name = "Oct 5 19, 14:33";
shapes = (
{
closed = 1;
nodes = (
(370,-11,o),
(468,82,o),
(468,206,cs),
(468,914,l),
(354,914,l),
(354,198,ls),
(354,138,o),
(309,91,o),
(249,91,cs),
(189,91,o),
(145,133,o),
(145,196,cs),
(145,221,o),
(151,240,o),
(163,257,c),
(44,257,l),
(39,238,o),
(36,218,o),
(36,197,cs),
(36,78,o),
(130,-11,o),
(248,-11,cs)
);
}
);
width = 571;
},
{
anchors = (
{
name = bottom;
pos = (225,0);
},
{
name = top;
pos = (444,900);
}
);
associatedMasterId = "5864D40E-51E2-4FDD-96DA-51B6D988DC78";
background = {
shapes = (
{
closed = 1;
nodes = (
(370,-12,o),
(501,79,o),
(501,284,cs),
(501,900,l),
(387,900,l),
(387,292,ls),
(387,143,o),
(313,90,o),
(227,90,cs),
(151,90,o),
(90,129,o),
(54,192,c),
(21,64,l),
(72,9,o),
(149,-12,o),
(222,-12,cs)
);
}
);
};
guides = (
{
angle = -4.0142;
pos = (531,307);
}
);
layerId = "6C38D56A-62ED-40AA-A221-4BB68F9BCC3E";
name = "18 May 22, 10:55";
shapes = (
{
closed = 1;
nodes = (
(386,-20,o),
(536,81,o),
(536,307,cs),
(536,900,l),
(350,900,l),
(350,318,ls),
(350,196,o),
(289,148,o),
(212,148,cs),
(146,148,o),
(92,181,o),
(59,231,c),
(12,55,l),
(63,4,o),
(144,-20,o),
(223,-20,cs)
);
}
);
width = 620;
},
{
anchors = (
{
name = bottom;
pos = (216,0);
},
{
name = top;
pos = (435,900);
}
);
associatedMasterId = "3E87E8DA-1F15-4738-9454-A2AB4CEA57DC";
background = {
shapes = (
{
closed = 1;
nodes = (
(360,-12,o),
(492,97,o),
(492,272,cs),
(492,900,l),
(378,900,l),
(378,268,ls),
(378,161,o),
(304,90,o),
(204,90,cs),
(107,90,o),
(24,156,o),
(4,240,c),
(-60,114,l),
(-12,46,o),
(85,-12,o),
(201,-12,cs)
);
}
);
};
layerId = "36006499-37D3-4C74-9B35-84B3D6569DCF";
name = "18 May 22, 10:55";
shapes = (
{
closed = 1;
nodes = (
(361,-12,o),
(492,79,o),
(492,284,cs),
(492,900,l),
(378,900,l),
(378,292,ls),
(378,143,o),
(304,90,o),
(218,90,cs),
(142,90,o),
(81,129,o),
(45,192,c),
(12,64,l),
(63,9,o),
(140,-12,o),
(213,-12,cs)
);
}
);
width = 600;
},
{
anchors = (
{
name = bottom;
pos = (165,0);
},
{
name = top;
pos = (384,900);
}
);
associatedMasterId = "5864D40E-51E2-4FDD-96DA-51B6D988DC78";
background = {
shapes = (
{
closed = 1;
nodes = (
(310,-12,o),
(441,79,o),
(441,284,cs),
(441,900,l),
(327,900,l),
(327,292,ls),
(327,143,o),
(253,90,o),
(167,90,cs),
(91,90,o),
(30,129,o),
(-6,192,c),
(-39,64,l),
(12,9,o),
(89,-12,o),
(162,-12,cs)
);
}
);
};
guides = (
{
angle = -4.0142;
pos = (471,307);
},
{
angle = 90;
pos = (169,-20);
},
{
angle = 90;
pos = (229,-20);
}
);
layerId = "1062FC3F-767F-4910-99A7-16DC92FD1851";
name = "29 Jan 23, 11:15";
shapes = (
{
closed = 1;
nodes = (
(360,-8,o),
(476,83,o),
(476,270,cs),
(476,900,l),
(290,900,l),
(290,283,ls),
(290,213,o),
(265,174,o),
(231,157,c),
(231,-19,l)
);
},
{
closed = 1;
nodes = (
(167,148,l),
(121,152,o),
(83,177,o),
(59,214,c),
(12,46,l),
(50,8,o),
(108,-13,o),
(167,-19,c)
);
}
);
width = 560;
},
{
anchors = (
{
name = bottom;
pos = (156,0);
},
{
name = top;
pos = (375,900);
}
);
associatedMasterId = "3E87E8DA-1F15-4738-9454-A2AB4CEA57DC";
background = {
shapes = (
{
closed = 1;
nodes = (
(300,-12,o),
(432,97,o),
(432,272,cs),
(432,900,l),
(318,900,l),
(318,268,ls),
(318,161,o),
(244,90,o),
(144,90,cs),
(47,90,o),
(-36,156,o),
(-56,240,c),
(-120,114,l),
(-72,46,o),
(25,-12,o),
(141,-12,cs)
);
}
);
};
guides = (
{
angle = 90;
pos = (218,39);
},
{
angle = 90;
pos = (158,39);
}
);
layerId = "A59C87E8-1497-445B-9454-416B43A3BF71";
name = "29 Jan 23, 11:15";
shapes = (
{
closed = 1;
nodes = (
(334,1,o),
(432,82,o),
(432,247,cs),
(432,900,l),
(318,900,l),
(318,256,ls),
(318,152,o),
(274,105,o),
(218,93,c),
(218,-11,l)
);
},
{
closed = 1;
nodes = (
(158,92,l),
(109,101,o),
(70,130,o),
(45,174,c),
(12,54,l),
(50,13,o),
(104,-6,o),
(158,-11,c)
);
}
);
width = 540;
}
);
unicode = 74;
},
{
glyphname = K;
kernLeft = B;
kernRight = K;
lastChange = "2023-01-11 18:33:10 +0000";
layers = (
{
associatedMasterId = "3E87E8DA-1F15-4738-9454-A2AB4CEA57DC";
background = {
guides = (
{
pos = (134,313);
}
);
shapes = (
{
closed = 1;
nodes = (
(470,114,o),
(552,196,o),
(552,298,cs),
(552,400,o),
(470,482,o),
(368,482,cs),
(267,482,o),
(185,400,o),
(185,298,cs),
(185,196,o),
(267,114,o),
(368,114,cs)
);
},
{
closed = 1;
nodes = (
(533,0,o),
(666,133,o),
(666,298,cs),
(666,463,o),
(533,596,o),
(368,596,cs),
(204,596,o),
(70,463,o),
(70,298,cs),
(70,133,o),
(204,0,o),
(368,0,cs)
);
},
{
closed = 1;
nodes = (
(425,596,o),
(470,642,o),
(470,698,cs),
(470,754,o),
(425,800,o),
(368,800,cs),
(312,800,o),
(267,754,o),
(267,698,cs),
(267,642,o),
(312,596,o),
(368,596,cs)
);
},
{
closed = 1;
nodes = (
(487,482,o),
(585,579,o),
(585,698,cs),
(585,817,o),
(487,914,o),
(368,914,cs),
(249,914,o),
(152,817,o),
(152,698,cs),
(152,579,o),
(249,482,o),
(368,482,cs)
);
}
);
};
guides = (
{
angle = 180;
pos = (387,578);
},
{
pos = (134,313);
}
);
layerId = "21B09DB5-8152-4E47-95DC-1BA497757C76";
name = "Jan 14 17, 10:38";
shapes = (
{
closed = 1;
nodes = (
(173,228,l),
(657,914,l),
(531,914,l),
(97,298,l)
);
},
{
closed = 1;
nodes = (
(663,0,l),
(401,550,l),
(287,514,l),
(531,0,l)
);
},
{
closed = 1;
nodes = (
(211,0,l),
(211,914,l),
(97,914,l),
(97,0,l)
);
}
);
width = 743;
},
{
associatedMasterId = "3E87E8DA-1F15-4738-9454-A2AB4CEA57DC";
background = {
guides = (
{
pos = (134,313);
}
);
shapes = (
{
closed = 1;
nodes = (
(470,114,o),
(552,196,o),
(552,298,cs),
(552,400,o),
(470,482,o),
(368,482,cs),
(267,482,o),
(185,400,o),
(185,298,cs),
(185,196,o),
(267,114,o),
(368,114,cs)
);
},
{
closed = 1;
nodes = (
(533,0,o),
(666,133,o),
(666,298,cs),
(666,463,o),
(533,596,o),
(368,596,cs),
(204,596,o),
(70,463,o),
(70,298,cs),
(70,133,o),
(204,0,o),
(368,0,cs)
);
},
{
closed = 1;
nodes = (
(425,596,o),
(470,642,o),
(470,698,cs),
(470,754,o),
(425,800,o),
(368,800,cs),
(312,800,o),
(267,754,o),
(267,698,cs),
(267,642,o),
(312,596,o),
(368,596,cs)
);
},
{
closed = 1;
nodes = (
(487,482,o),
(585,579,o),
(585,698,cs),
(585,817,o),
(487,914,o),
(368,914,cs),
(249,914,o),
(152,817,o),
(152,698,cs),
(152,579,o),
(249,482,o),
(368,482,cs)
);
},
{
closed = 1;
nodes = (
(79,914,l),
(687,914,l),
(687,805,l),
(221,805,l),
(242,838,l),
(659,0,l),
(531,0,l)
);
}
);
};
guides = (
{
angle = 180;
pos = (387,578);
},
{
pos = (134,313);
}
);
layerId = "6B5632CA-050C-48D4-AFB7-EF5C6EA1ED6A";
name = "Jan 14 17, 10:44";
shapes = (
{
closed = 1;
nodes = (
(193,372,l),
(668,914,l),
(531,914,l),
(91,412,l)
);
},
{
closed = 1;
nodes = (
(687,0,l),
(374,630,l),
(288,550,l),
(560,0,l)
);
},
{
closed = 1;
nodes = (
(211,0,l),
(211,914,l),
(97,914,l),
(97,0,l)
);
}
);
width = 743;
},
{
associatedMasterId = "3E87E8DA-1F15-4738-9454-A2AB4CEA57DC";
background = {
guides = (
{
pos = (164,313);
}
);
shapes = (
{
closed = 1;
nodes = (
(499,114,o),
(581,196,o),
(581,298,cs),
(581,400,o),
(499,482,o),
(397,482,cs),
(295,482,o),
(213,400,o),
(213,298,cs),
(213,196,o),
(295,114,o),
(397,114,cs)
);
},
{
closed = 1;
nodes = (
(562,0,o),
(695,133,o),
(695,298,cs),
(695,463,o),
(562,596,o),
(397,596,cs),
(232,596,o),
(99,463,o),
(99,298,cs),
(99,133,o),
(232,0,o),
(397,0,cs)
);
},
{
closed = 1;
nodes = (
(453,596,o),
(499,642,o),
(499,698,cs),
(499,754,o),
(453,800,o),
(397,800,cs),
(341,800,o),
(295,754,o),
(295,698,cs),
(295,642,o),
(341,596,o),
(397,596,cs)
);
},
{
closed = 1;
nodes = (
(516,482,o),
(613,579,o),
(613,698,cs),
(613,817,o),
(516,914,o),
(397,914,cs),
(278,914,o),
(181,817,o),
(181,698,cs),
(181,579,o),
(278,482,o),
(397,482,cs)
);
},
{
closed = 1;
nodes = (
(108,914,l),
(716,914,l),
(716,805,l),
(249,805,l),
(270,838,l),
(687,0,l),
(560,0,l)
);
}
);
};
guides = (
{
angle = 180;
pos = (306,610);
},
{
pos = (164,313);
},
{
angle = 180;
pos = (417,578);
},
{
angle = 26.3392;
pos = (306,610);
}
);
layerId = "BEF4FBBF-55BE-48E3-AA69-2C745E80CEC6";
name = "Oct 10 19, 14:37";
shapes = (
{
closed = 1;
nodes = (
(710,0,l),
(424,577,l),
(720,914,l),
(585,914,l),
(291,581,l),
(579,0,l)
);
},
{
closed = 1;
nodes = (
(240,0,l),
(240,914,l),
(126,914,l),
(126,0,l)
);
},
{
closed = 1;
nodes = (
(400,635,l),
(400,684,l),
(183,576,l),
(183,527,l),
(183,479,l),
(400,586,l)
);
}
);
width = 743;
},
{
anchors = (
{
name = bottom;
pos = (438,0);
},
{
name = top;
pos = (400,900);
}
);
guides = (
{
angle = 48.3109;
pos = (523,708);
},
{
angle = 48.3109;
pos = (602,708);
},
{
angle = -55.4215;
pos = (468,243);
},
{
angle = 228.3178;
pos = (430,754);
}
);
layerId = "3E87E8DA-1F15-4738-9454-A2AB4CEA57DC";
shapes = (
{
closed = 1;
nodes = (
(774,0,l),
(359,597,l),
(352,516,l),
(694,900,l),
(560,900,l),
(300,608,l),
(300,486,l),
(635,0,l)
);
},
{
closed = 1;
nodes = (
(240,0,l),
(240,900,l),
(126,900,l),
(126,0,l)
);
}
);
width = 780;
},
{
associatedMasterId = "3E87E8DA-1F15-4738-9454-A2AB4CEA57DC";
background = {
guides = (
{
pos = (164,313);
}
);
shapes = (
{
closed = 1;
nodes = (
(240,0,l),
(240,504,l),
(560,504,l),
(560,0,l),
(674,0,l),
(674,900,l),
(560,900,l),
(560,606,l),
(240,606,l),
(240,900,l),
(126,900,l),
(126,0,l)
);
}
);
};
guides = (
{
angle = 116.4817;
pos = (529,413);
},
{
angle = -63.6902;
pos = (384,450);
},
{
angle = 48.8014;
pos = (587,740);
}
);
layerId = "52412611-46C2-4D7A-AD70-CCE09EFD0AC5";
name = "14 Dec 21, 12:23";
shapes = (
{
closed = 1;
nodes = (
(241,900,l),
(126,900,l),
(126,0,l),
(241,0,l)
);
},
{
closed = 1;
nodes = (
(357,504,l),
(606,0,l),
(734,0,l),
(446,579,l),
(727,900,l),
(595,900,l),
(318,584,l)
);
}
);
width = 740;
},
{
associatedMasterId = "5864D40E-51E2-4FDD-96DA-51B6D988DC78";
background = {
guides = (
{
pos = (134,313);
}
);
shapes = (
{
closed = 1;
nodes = (
(470,114,o),
(552,196,o),
(552,298,cs),
(552,400,o),
(470,482,o),
(368,482,cs),
(267,482,o),
(185,400,o),
(185,298,cs),
(185,196,o),
(267,114,o),
(368,114,cs)
);
},
{
closed = 1;
nodes = (
(533,0,o),
(666,133,o),
(666,298,cs),
(666,463,o),
(533,596,o),
(368,596,cs),
(204,596,o),
(70,463,o),
(70,298,cs),
(70,133,o),
(204,0,o),
(368,0,cs)
);
},
{
closed = 1;
nodes = (
(425,596,o),
(470,642,o),
(470,698,cs),
(470,754,o),
(425,800,o),
(368,800,cs),
(312,800,o),
(267,754,o),
(267,698,cs),
(267,642,o),
(312,596,o),
(368,596,cs)
);
},
{
closed = 1;
nodes = (
(487,482,o),
(585,579,o),
(585,698,cs),
(585,817,o),
(487,914,o),
(368,914,cs),
(249,914,o),
(152,817,o),
(152,698,cs),
(152,579,o),
(249,482,o),
(368,482,cs)
);
}
);
};
guides = (
{
angle = 180;
pos = (387,578);
},
{
pos = (134,313);
}
);
layerId = "4FF793A9-5611-48C0-9862-040F12F95C61";
name = "Jan 14 17, 10:38";
shapes = (
{
closed = 1;
nodes = (
(173,228,l),
(657,914,l),
(531,914,l),
(97,298,l)
);
},
{
closed = 1;
nodes = (
(663,0,l),
(401,550,l),
(287,514,l),
(531,0,l)
);
},
{
closed = 1;
nodes = (
(211,0,l),
(211,914,l),
(97,914,l),
(97,0,l)
);
}
);
width = 743;
},
{
associatedMasterId = "5864D40E-51E2-4FDD-96DA-51B6D988DC78";
background = {
guides = (
{
pos = (134,313);
}
);
shapes = (
{
closed = 1;
nodes = (
(470,114,o),
(552,196,o),
(552,298,cs),
(552,400,o),
(470,482,o),
(368,482,cs),
(267,482,o),
(185,400,o),
(185,298,cs),
(185,196,o),
(267,114,o),
(368,114,cs)
);
},
{
closed = 1;
nodes = (
(533,0,o),
(666,133,o),
(666,298,cs),
(666,463,o),
(533,596,o),
(368,596,cs),
(204,596,o),
(70,463,o),
(70,298,cs),
(70,133,o),
(204,0,o),
(368,0,cs)
);
},
{
closed = 1;
nodes = (
(425,596,o),
(470,642,o),
(470,698,cs),
(470,754,o),
(425,800,o),
(368,800,cs),
(312,800,o),
(267,754,o),
(267,698,cs),
(267,642,o),
(312,596,o),
(368,596,cs)
);
},
{
closed = 1;
nodes = (
(487,482,o),
(585,579,o),
(585,698,cs),
(585,817,o),
(487,914,o),
(368,914,cs),
(249,914,o),
(152,817,o),
(152,698,cs),
(152,579,o),
(249,482,o),
(368,482,cs)
);
},
{
closed = 1;
nodes = (
(79,914,l),
(687,914,l),
(687,805,l),
(221,805,l),
(242,838,l),
(659,0,l),
(531,0,l)
);
}
);
};
guides = (
{
angle = 180;
pos = (387,578);
},
{
pos = (134,313);
}
);
layerId = "B2E5E3DF-BC3C-46B1-A02D-7E5096AC15F4";
name = "Jan 14 17, 10:44";
shapes = (
{
closed = 1;
nodes = (
(193,372,l),
(668,914,l),
(531,914,l),
(91,412,l)
);
},
{
closed = 1;
nodes = (
(687,0,l),
(374,630,l),
(288,550,l),
(560,0,l)
);
},
{
closed = 1;
nodes = (
(211,0,l),
(211,914,l),
(97,914,l),
(97,0,l)
);
}
);
width = 743;
},
{
associatedMasterId = "5864D40E-51E2-4FDD-96DA-51B6D988DC78";
background = {
guides = (
{
pos = (164,313);
}
);
shapes = (
{
closed = 1;
nodes = (
(499,114,o),
(581,196,o),
(581,298,cs),
(581,400,o),
(499,482,o),
(397,482,cs),
(295,482,o),
(213,400,o),
(213,298,cs),
(213,196,o),
(295,114,o),
(397,114,cs)
);
},
{
closed = 1;
nodes = (
(562,0,o),
(695,133,o),
(695,298,cs),
(695,463,o),
(562,596,o),
(397,596,cs),
(232,596,o),
(99,463,o),
(99,298,cs),
(99,133,o),
(232,0,o),
(397,0,cs)
);
},
{
closed = 1;
nodes = (
(453,596,o),
(499,642,o),
(499,698,cs),
(499,754,o),
(453,800,o),
(397,800,cs),
(341,800,o),
(295,754,o),
(295,698,cs),
(295,642,o),
(341,596,o),
(397,596,cs)
);
},
{
closed = 1;
nodes = (
(516,482,o),
(613,579,o),
(613,698,cs),
(613,817,o),
(516,914,o),
(397,914,cs),
(278,914,o),
(181,817,o),
(181,698,cs),
(181,579,o),
(278,482,o),
(397,482,cs)
);
},
{
closed = 1;
nodes = (
(108,914,l),
(716,914,l),
(716,805,l),
(249,805,l),
(270,838,l),
(687,0,l),
(560,0,l)
);
}
);
};
guides = (
{
angle = 180;
pos = (306,610);
},
{
pos = (164,313);
},
{
angle = 180;
pos = (417,578);
},
{
angle = 26.3392;
pos = (306,610);
}
);
layerId = "33A6E34D-BDCC-4C3E-A520-19BD61B627C7";
name = "Oct 10 19, 14:37";
shapes = (
{
closed = 1;
nodes = (
(710,0,l),
(424,577,l),
(720,914,l),
(585,914,l),
(291,581,l),
(579,0,l)
);
},
{
closed = 1;
nodes = (
(240,0,l),
(240,914,l),
(126,914,l),
(126,0,l)
);
},
{
closed = 1;
nodes = (
(400,635,l),
(400,684,l),
(183,576,l),
(183,527,l),
(183,479,l),
(400,586,l)
);
}
);
width = 743;
},
{
anchors = (
{
name = bottom;
pos = (438,0);
},
{
name = top;
pos = (400,900);
}
);
background = {
shapes = (
{
closed = 1;
nodes = (
(774,0,l),
(359,597,l),
(352,516,l),
(694,900,l),
(560,900,l),
(252,555,l),
(635,0,l)
);
}
);
};
guides = (
{
angle = -58.3579;
pos = (806,0);
},
{
angle = -59.7243;
pos = (443,278);
},
{
angle = 90;
pos = (336,450);
}
);
layerId = "5864D40E-51E2-4FDD-96DA-51B6D988DC78";
shapes = (
{
closed = 1;
nodes = (
(806,0,l),
(448,597,l),
(441,516,l),
(722,900,l),
(516,900,l),
(336,651,l),
(336,438,l),
(595,0,l)
);
},
{
closed = 1;
nodes = (
(276,0,l),
(276,900,l),
(96,900,l),
(96,0,l)
);
}
);
width = 800;
},
{
associatedMasterId = "5864D40E-51E2-4FDD-96DA-51B6D988DC78";
background = {
guides = (
{
pos = (164,313);
}
);
shapes = (
{
closed = 1;
nodes = (
(240,0,l),
(240,504,l),
(560,504,l),
(560,0,l),
(674,0,l),
(674,900,l),
(560,900,l),
(560,606,l),
(240,606,l),
(240,900,l),
(126,900,l),
(126,0,l)
);
}
);
};
guides = (
{
angle = 116.4817;
pos = (529,413);
},
{
angle = -63.6902;
pos = (384,450);
},
{
angle = 48.8014;
pos = (587,740);
}
);
layerId = "76D2A606-EA52-4318-9620-596C6B169779";
name = "14 Dec 21, 12:23";
shapes = (
{
closed = 1;
nodes = (
(241,900,l),
(126,900,l),
(126,0,l),
(241,0,l)
);
},
{
closed = 1;
nodes = (
(357,504,l),
(606,0,l),
(734,0,l),
(446,579,l),
(727,900,l),
(595,900,l),
(318,584,l)
);
}
);
width = 740;
}
);
unicode = 75;
},
{
glyphname = L;
kernLeft = B;
kernRight = L;
lastChange = "2023-01-11 18:33:39 +0000";
layers = (
{
associatedMasterId = "3E87E8DA-1F15-4738-9454-A2AB4CEA57DC";
background = {
shapes = (
{
closed = 1;
nodes = (
(470,114,o),
(552,196,o),
(552,298,cs),
(552,400,o),
(470,482,o),
(368,482,cs),
(267,482,o),
(185,400,o),
(185,298,cs),
(185,196,o),
(267,114,o),
(368,114,cs)
);
},
{
closed = 1;
nodes = (
(533,0,o),
(666,133,o),
(666,298,cs),
(666,463,o),
(533,596,o),
(368,596,cs),
(204,596,o),
(70,463,o),
(70,298,cs),
(70,133,o),
(204,0,o),
(368,0,cs)
);
},
{
closed = 1;
nodes = (
(425,596,o),
(470,642,o),
(470,698,cs),
(470,754,o),
(425,800,o),
(368,800,cs),
(312,800,o),
(267,754,o),
(267,698,cs),
(267,642,o),
(312,596,o),
(368,596,cs)
);
},
{
closed = 1;
nodes = (
(487,482,o),
(585,579,o),
(585,698,cs),
(585,817,o),
(487,914,o),
(368,914,cs),
(249,914,o),
(152,817,o),
(152,698,cs),
(152,579,o),
(249,482,o),
(368,482,cs)
);
}
);
};
guides = (
{
angle = 180;
pos = (387,578);
}
);
layerId = "52873B9C-763E-4100-AF66-01C0CC151FBF";
name = "Mar 20 17, 10:21";
shapes = (
{
closed = 1;
nodes = (
(229,0,l),
(229,914,l),
(114,914,l),
(114,0,l)
);
},
{
closed = 1;
nodes = (
(628,0,l),
(628,109,l),
(206,109,l),
(200,0,l)
);
}
);
width = 686;
},
{
anchors = (
{
name = bottom;
pos = (339,0);
},
{
name = center;
pos = (183,450);
},
{
name = periodcentered;
pos = (420,480);
},
{
name = top;
pos = (183,900);
},
{
name = topright;
pos = (282,900);
}
);
background = {
shapes = (
{
closed = 1;
nodes = (
(499,114,o),
(581,196,o),
(581,298,cs),
(581,400,o),
(499,482,o),
(397,482,cs),
(295,482,o),
(213,400,o),
(213,298,cs),
(213,196,o),
(295,114,o),
(397,114,cs)
);
},
{
closed = 1;
nodes = (
(562,0,o),
(695,133,o),
(695,298,cs),
(695,463,o),
(562,596,o),
(397,596,cs),
(232,596,o),
(99,463,o),
(99,298,cs),
(99,133,o),
(232,0,o),
(397,0,cs)
);
},
{
closed = 1;
nodes = (
(453,596,o),
(499,642,o),
(499,698,cs),
(499,754,o),
(453,800,o),
(397,800,cs),
(341,800,o),
(295,754,o),
(295,698,cs),
(295,642,o),
(341,596,o),
(397,596,cs)
);
},
{
closed = 1;
nodes = (
(516,482,o),
(613,579,o),
(613,698,cs),
(613,817,o),
(516,914,o),
(397,914,cs),
(278,914,o),
(181,817,o),
(181,698,cs),
(181,579,o),
(278,482,o),
(397,482,cs)
);
}
);
};
guides = (
{
angle = 180;
pos = (417,578);
}
);
layerId = "3E87E8DA-1F15-4738-9454-A2AB4CEA57DC";
shapes = (
{
closed = 1;
nodes = (
(240,0,l),
(240,900,l),
(126,900,l),
(126,0,l)
);
},
{
closed = 1;
nodes = (
(552,0,l),
(552,102,l),
(300,102,l),
(300,0,l)
);
}
);
width = 600;
},
{
associatedMasterId = "3E87E8DA-1F15-4738-9454-A2AB4CEA57DC";
background = {
shapes = (
{
closed = 1;
nodes = (
(499,114,o),
(581,196,o),
(581,298,cs),
(581,400,o),
(499,482,o),
(397,482,cs),
(295,482,o),
(213,400,o),
(213,298,cs),
(213,196,o),
(295,114,o),
(397,114,cs)
);
},
{
closed = 1;
nodes = (
(562,0,o),
(695,133,o),
(695,298,cs),
(695,463,o),
(562,596,o),
(397,596,cs),
(232,596,o),
(99,463,o),
(99,298,cs),
(99,133,o),
(232,0,o),
(397,0,cs)
);
},
{
closed = 1;
nodes = (
(453,596,o),
(499,642,o),
(499,698,cs),
(499,754,o),
(453,800,o),
(397,800,cs),
(341,800,o),
(295,754,o),
(295,698,cs),
(295,642,o),
(341,596,o),
(397,596,cs)
);
},
{
closed = 1;
nodes = (
(516,482,o),
(613,579,o),
(613,698,cs),
(613,817,o),
(516,914,o),
(397,914,cs),
(278,914,o),
(181,817,o),
(181,698,cs),
(181,579,o),
(278,482,o),
(397,482,cs)
);
}
);
};
guides = (
{
angle = 180;
pos = (417,578);
}
);
layerId = "693BAABD-9664-4D91-8A3A-E574A7E2A39D";
name = "14 Dec 21, 12:45";
shapes = (
{
closed = 1;
nodes = (
(522,0,l),
(522,102,l),
(240,102,l),
(240,900,l),
(126,900,l),
(126,0,l)
);
}
);
width = 570;
},
{
associatedMasterId = "5864D40E-51E2-4FDD-96DA-51B6D988DC78";
background = {
shapes = (
{
closed = 1;
nodes = (
(470,114,o),
(552,196,o),
(552,298,cs),
(552,400,o),
(470,482,o),
(368,482,cs),
(267,482,o),
(185,400,o),
(185,298,cs),
(185,196,o),
(267,114,o),
(368,114,cs)
);
},
{
closed = 1;
nodes = (
(533,0,o),
(666,133,o),
(666,298,cs),
(666,463,o),
(533,596,o),
(368,596,cs),
(204,596,o),
(70,463,o),
(70,298,cs),
(70,133,o),
(204,0,o),
(368,0,cs)
);
},
{
closed = 1;
nodes = (
(425,596,o),
(470,642,o),
(470,698,cs),
(470,754,o),
(425,800,o),
(368,800,cs),
(312,800,o),
(267,754,o),
(267,698,cs),
(267,642,o),
(312,596,o),
(368,596,cs)
);
},
{
closed = 1;
nodes = (
(487,482,o),
(585,579,o),
(585,698,cs),
(585,817,o),
(487,914,o),
(368,914,cs),
(249,914,o),
(152,817,o),
(152,698,cs),
(152,579,o),
(249,482,o),
(368,482,cs)
);
}
);
};
guides = (
{
angle = 180;
pos = (387,578);
}
);
layerId = "32E6B222-D853-4443-A2BA-60763BF2BE55";
name = "Mar 20 17, 10:21";
shapes = (
{
closed = 1;
nodes = (
(229,0,l),
(229,914,l),
(114,914,l),
(114,0,l)
);
},
{
closed = 1;
nodes = (
(628,0,l),
(628,109,l),
(206,109,l),
(200,0,l)
);
}
);
width = 686;
},
{
anchors = (
{
name = bottom;
pos = (339,0);
},
{
name = center;
pos = (183,450);
},
{
name = periodcentered;
pos = (420,480);
},
{
name = top;
pos = (183,900);
},
{
name = topright;
pos = (282,900);
}
);
background = {
shapes = (
{
closed = 1;
nodes = (
(499,114,o),
(581,196,o),
(581,298,cs),
(581,400,o),
(499,482,o),
(397,482,cs),
(295,482,o),
(213,400,o),
(213,298,cs),
(213,196,o),
(295,114,o),
(397,114,cs)
);
},
{
closed = 1;
nodes = (
(562,0,o),
(695,133,o),
(695,298,cs),
(695,463,o),
(562,596,o),
(397,596,cs),
(232,596,o),
(99,463,o),
(99,298,cs),
(99,133,o),
(232,0,o),
(397,0,cs)
);
},
{
closed = 1;
nodes = (
(453,596,o),
(499,642,o),
(499,698,cs),
(499,754,o),
(453,800,o),
(397,800,cs),
(341,800,o),
(295,754,o),
(295,698,cs),
(295,642,o),
(341,596,o),
(397,596,cs)
);
},
{
closed = 1;
nodes = (
(516,482,o),
(613,579,o),
(613,698,cs),
(613,817,o),
(516,914,o),
(397,914,cs),
(278,914,o),
(181,817,o),
(181,698,cs),
(181,579,o),
(278,482,o),
(397,482,cs)
);
}
);
};
guides = (
{
angle = 180;
pos = (417,578);
},
{
angle = 90;
pos = (342,531);
}
);
layerId = "5864D40E-51E2-4FDD-96DA-51B6D988DC78";
shapes = (
{
closed = 1;
nodes = (
(282,0,l),
(282,900,l),
(96,900,l),
(96,0,l)
);
},
{
closed = 1;
nodes = (
(552,0,l),
(552,162,l),
(342,162,l),
(342,0,l)
);
}
);
width = 600;
},
{
associatedMasterId = "5864D40E-51E2-4FDD-96DA-51B6D988DC78";
background = {
shapes = (
{
closed = 1;
nodes = (
(499,114,o),
(581,196,o),
(581,298,cs),
(581,400,o),
(499,482,o),
(397,482,cs),
(295,482,o),
(213,400,o),
(213,298,cs),
(213,196,o),
(295,114,o),
(397,114,cs)
);
},
{
closed = 1;
nodes = (
(562,0,o),
(695,133,o),
(695,298,cs),
(695,463,o),
(562,596,o),
(397,596,cs),
(232,596,o),
(99,463,o),
(99,298,cs),
(99,133,o),
(232,0,o),
(397,0,cs)
);
},
{
closed = 1;
nodes = (
(453,596,o),
(499,642,o),
(499,698,cs),
(499,754,o),
(453,800,o),
(397,800,cs),
(341,800,o),
(295,754,o),
(295,698,cs),
(295,642,o),
(341,596,o),
(397,596,cs)
);
},
{
closed = 1;
nodes = (
(516,482,o),
(613,579,o),
(613,698,cs),
(613,817,o),
(516,914,o),
(397,914,cs),
(278,914,o),
(181,817,o),
(181,698,cs),
(181,579,o),
(278,482,o),
(397,482,cs)
);
}
);
};
guides = (
{
angle = 180;
pos = (417,578);
}
);
layerId = "B47A1D38-697F-442E-8FDF-FD8991BB0443";
name = "14 Dec 21, 12:45";
shapes = (
{
closed = 1;
nodes = (
(522,0,l),
(522,102,l),
(240,102,l),
(240,900,l),
(126,900,l),
(126,0,l)
);
}
);
width = 570;
}
);
unicode = 76;
},
{
glyphname = Lslash;
kernLeft = B;
kernRight = L;
lastChange = "2023-01-28 20:13:21 +0000";
layers = (
{
guides = (
{
pos = (182,600);
},
{
angle = 33.1579;
pos = (291,385);
}
);
layerId = "3E87E8DA-1F15-4738-9454-A2AB4CEA57DC";
shapes = (
{
closed = 1;
nodes = (
(516,604,l),
(474,668,l),
(270,535,l),
(270,900,l),
(156,900,l),
(156,460,l),
(24,374,l),
(66,310,l)
);
},
{
closed = 1;
nodes = (
(270,0,l),
(270,374,l),
(156,300,l),
(156,0,l)
);
},
{
closed = 1;
nodes = (
(582,0,l),
(582,102,l),
(330,102,l),
(330,0,l)
);
}
);
width = 630;
},
{
guides = (
{
pos = (182,600);
},
{
angle = 29.034;
pos = (298,367);
}
);
layerId = "5864D40E-51E2-4FDD-96DA-51B6D988DC78";
shapes = (
{
closed = 1;
nodes = (
(534,570,l),
(478,670,l),
(312,578,l),
(312,900,l),
(126,900,l),
(126,475,l),
(6,408,l),
(62,308,l)
);
},
{
closed = 1;
nodes = (
(312,0,l),
(312,379,l),
(126,276,l),
(126,0,l)
);
},
{
closed = 1;
nodes = (
(582,0,l),
(582,162,l),
(372,162,l),
(372,0,l)
);
}
);
width = 630;
}
);
metricLeft = "=+30";
unicode = 321;
},
{
glyphname = M;
kernLeft = B;
kernRight = H;
lastChange = "2023-01-27 14:17:23 +0000";
layers = (
{
associatedMasterId = "3E87E8DA-1F15-4738-9454-A2AB4CEA57DC";
background = {
shapes = (
{
closed = 1;
nodes = (
(206,0,l),
(206,674,l),
(97,948,l),
(97,0,l)
);
},
{
closed = 1;
nodes = (
(558,312,l),
(97,948,l),
(120,719,l),
(517,171,l)
);
},
{
closed = 1;
nodes = (
(517,171,l),
(906,720,l),
(937,948,l),
(486,312,l)
);
},
{
closed = 1;
nodes = (
(937,0,l),
(937,948,l),
(823,688,l),
(823,0,l)
);
}
);
};
guides = (
{
angle = 180;
pos = (387,578);
}
);
layerId = "0D9BC35C-49B3-46DB-8163-F7470B498A59";
name = "Mar 20 17, 10:17";
shapes = (
{
closed = 1;
nodes = (
(223,0,l),
(223,434,ls),
(223,488,o),
(223,551,o),
(214,634,c),
(257,560,o),
(294,506,o),
(328,461,cs),
(543,177,l),
(751,461,ls),
(785,506,o),
(823,560,o),
(865,634,c),
(857,551,o),
(857,488,o),
(857,434,cs),
(857,0,l),
(971,0,l),
(971,931,l),
(958,931,l),
(547,363,l),
(128,931,l),
(114,931,l),
(114,0,l)
);
}
);
width = 1085;
},
{
background = {
shapes = (
{
closed = 1;
nodes = (
(228,0,l),
(228,674,l),
(120,948,l),
(120,0,l)
);
},
{
closed = 1;
nodes = (
(581,312,l),
(120,948,l),
(143,719,l),
(540,171,l)
);
},
{
closed = 1;
nodes = (
(540,171,l),
(929,720,l),
(960,948,l),
(508,312,l)
);
},
{
closed = 1;
nodes = (
(960,0,l),
(960,948,l),
(845,688,l),
(845,0,l)
);
}
);
};
guides = (
{
angle = 180;
pos = (411,578);
},
{
angle = -53.9726;
pos = (360,306);
},
{
angle = 270;
pos = (780,208);
},
{
angle = 54.8156;
pos = (660,338);
},
{
angle = 125.9682;
pos = (198,930);
},
{
angle = 125.9682;
pos = (126,930);
}
);
layerId = "3E87E8DA-1F15-4738-9454-A2AB4CEA57DC";
shapes = (
{
closed = 1;
nodes = (
(954,754,l),
(954,930,l),
(544,354,l),
(126,930,l),
(126,738,l),
(540,168,l)
);
},
{
closed = 1;
nodes = (
(234,0,l),
(234,489,l),
(126,638,l),
(126,0,l)
);
},
{
closed = 1;
nodes = (
(954,0,l),
(954,654,l),
(840,493,l),
(840,0,l)
);
}
);
width = 1080;
},
{
associatedMasterId = "5864D40E-51E2-4FDD-96DA-51B6D988DC78";
background = {
shapes = (
{
closed = 1;
nodes = (
(206,0,l),
(206,674,l),
(97,948,l),
(97,0,l)
);
},
{
closed = 1;
nodes = (
(558,312,l),
(97,948,l),
(120,719,l),
(517,171,l)
);
},
{
closed = 1;
nodes = (
(517,171,l),
(906,720,l),
(937,948,l),
(486,312,l)
);
},
{
closed = 1;
nodes = (
(937,0,l),
(937,948,l),
(823,688,l),
(823,0,l)
);
}
);
};
guides = (
{
angle = 180;
pos = (387,578);
}
);
layerId = "689418DD-1E88-43CE-A26A-F9B5044C2854";
name = "Mar 20 17, 10:17";
shapes = (
{
closed = 1;
nodes = (
(223,0,l),
(223,434,ls),
(223,488,o),
(223,551,o),
(214,634,c),
(257,560,o),
(294,506,o),
(328,461,cs),
(543,177,l),
(751,461,ls),
(785,506,o),
(823,560,o),
(865,634,c),
(857,551,o),
(857,488,o),
(857,434,cs),
(857,0,l),
(971,0,l),
(971,931,l),
(958,931,l),
(547,363,l),
(128,931,l),
(114,931,l),
(114,0,l)
);
}
);
width = 1085;
},
{
background = {
shapes = (
{
closed = 1;
nodes = (
(214,0,l),
(214,416,ls),
(214,470,o),
(214,533,o),
(206,616,c),
(249,542,o),
(287,489,o),
(320,443,cs),
(520,168,l),
(714,443,ls),
(746,489,o),
(786,542,o),
(828,616,c),
(820,533,o),
(820,470,o),
(820,416,cs),
(820,0,l),
(934,0,l),
(934,930,l),
(524,354,l),
(106,930,l),
(106,0,l)
);
}
);
};
guides = (
{
angle = -52.3058;
pos = (445,224);
},
{
angle = -52.3058;
pos = (445,124);
},
{
angle = 53.2228;
pos = (595,124);
},
{
angle = 53.2228;
pos = (595,224);
},
{
angle = -51.306;
pos = (445,596);
},
{
angle = -51.306;
pos = (445,496);
}
);
layerId = "5864D40E-51E2-4FDD-96DA-51B6D988DC78";
shapes = (
{
closed = 1;
nodes = (
(944,691,l),
(944,930,l),
(525,397,l),
(96,930,l),
(96,676,l),
(521,125,l)
);
},
{
closed = 1;
nodes = (
(264,0,l),
(264,358,l),
(96,576,l),
(96,0,l)
);
},
{
closed = 1;
nodes = (
(944,0,l),
(944,591,l),
(770,358,l),
(770,0,l)
);
}
);
width = 1040;
},
{
associatedMasterId = "3E87E8DA-1F15-4738-9454-A2AB4CEA57DC";
background = {
shapes = (
{
closed = 1;
nodes = (
(228,0,l),
(228,674,l),
(120,948,l),
(120,0,l)
);
},
{
closed = 1;
nodes = (
(581,312,l),
(120,948,l),
(143,719,l),
(540,171,l)
);
},
{
closed = 1;
nodes = (
(540,171,l),
(929,720,l),
(960,948,l),
(508,312,l)
);
},
{
closed = 1;
nodes = (
(960,0,l),
(960,948,l),
(845,688,l),
(845,0,l)
);
}
);
};
guides = (
{
angle = 180;
pos = (411,578);
},
{
angle = -53.9726;
pos = (360,306);
},
{
angle = 270;
pos = (780,208);
},
{
angle = 54.8156;
pos = (660,338);
},
{
angle = 125.9682;
pos = (198,930);
},
{
angle = 125.9682;
pos = (126,930);
}
);
layerId = "89F1AEC4-5755-4E2C-9D9C-8D503F597881";
name = "27 Jan 23, 15:16";
shapes = (
{
closed = 1;
nodes = (
(608,265,l),
(126,930,l),
(126,738,l),
(540,168,l)
);
},
{
closed = 1;
nodes = (
(234,0,l),
(234,489,l),
(126,638,l),
(126,0,l)
);
},
{
closed = 1;
nodes = (
(954,0,l),
(954,654,l),
(840,493,l),
(840,0,l)
);
},
{
closed = 1;
nodes = (
(954,754,l),
(954,930,l),
(580,404,l),
(644,315,l)
);
}
);
width = 1080;
},
{
associatedMasterId = "5864D40E-51E2-4FDD-96DA-51B6D988DC78";
background = {
shapes = (
{
closed = 1;
nodes = (
(214,0,l),
(214,416,ls),
(214,470,o),
(214,533,o),
(206,616,c),
(249,542,o),
(287,489,o),
(320,443,cs),
(520,168,l),
(714,443,ls),
(746,489,o),
(786,542,o),
(828,616,c),
(820,533,o),
(820,470,o),
(820,416,cs),
(820,0,l),
(934,0,l),
(934,930,l),
(524,354,l),
(106,930,l),
(106,0,l)
);
}
);
};
guides = (
{
angle = -52.3058;
pos = (445,224);
},
{
angle = -52.3058;
pos = (445,124);
},
{
angle = 53.2228;
pos = (595,124);
},
{
angle = 53.2228;
pos = (595,224);
},
{
angle = -51.306;
pos = (445,596);
},
{
angle = -51.306;
pos = (445,496);
}
);
layerId = "848AC849-29CC-4D1E-9686-1DA6F648C365";
name = "27 Jan 23, 15:16";
shapes = (
{
closed = 1;
nodes = (
(628,268,l),
(96,930,l),
(96,676,l),
(521,125,l)
);
},
{
closed = 1;
nodes = (
(264,0,l),
(264,358,l),
(96,576,l),
(96,0,l)
);
},
{
closed = 1;
nodes = (
(944,0,l),
(944,591,l),
(770,358,l),
(770,0,l)
);
},
{
closed = 1;
nodes = (
(944,691,l),
(944,930,l),
(564,449,l),
(666,319,l)
);
}
);
width = 1040;
}
);
unicode = 77;
},
{
glyphname = N;
kernLeft = B;
kernRight = H;
lastChange = "2023-01-11 19:19:57 +0000";
layers = (
{
associatedMasterId = "3E87E8DA-1F15-4738-9454-A2AB4CEA57DC";
background = {
shapes = (
{
closed = 1;
nodes = (
(211,0,l),
(211,948,l),
(97,948,l),
(97,0,l)
);
},
{
closed = 1;
nodes = (
(760,-34,l),
(97,948,l),
(-17,948,l),
(646,-34,l)
);
},
{
closed = 1;
nodes = (
(646,-34,l),
(646,914,l),
(531,914,l),
(531,-34,l)
);
}
);
};
guides = (
{
angle = 35.1147;
pos = (360,510);
}
);
layerId = "8B6336DC-99AB-4792-A883-2B9D7727C2F9";
name = "Jan 21 17, 13:28";
shapes = (
{
closed = 1;
nodes = (
(646,914,l),
(537,914,l),
(537,486,ls),
(537,431,o),
(537,377,o),
(546,294,c),
(503,368,o),
(471,413,o),
(439,459,cs),
(97,948,l),
(97,0,l),
(206,0,l),
(206,428,ls),
(206,483,o),
(206,537,o),
(197,620,c),
(240,546,o),
(271,501,o),
(304,455,cs),
(646,-34,l)
);
}
);
width = 743;
},
{
associatedMasterId = "3E87E8DA-1F15-4738-9454-A2AB4CEA57DC";
background = {
shapes = (
{
closed = 1;
nodes = (
(223,0,l),
(223,804,l),
(114,948,l),
(114,0,l)
);
},
{
closed = 1;
nodes = (
(857,134,l),
(114,948,l),
(114,780,l),
(857,-34,l)
);
},
{
closed = 1;
nodes = (
(857,-34,l),
(857,914,l),
(748,914,l),
(748,129,l)
);
}
);
};
guides = (
{
angle = 35.1147;
pos = (360,510);
}
);
layerId = "8CE63CAB-FF6D-47E5-B5F4-AE5D2CF11701";
name = "Mar 20 17, 10:16";
shapes = (
{
closed = 1;
nodes = (
(857,-17,l),
(857,914,l),
(748,914,l),
(748,253,l),
(131,931,l),
(114,931,l),
(114,0,l),
(223,0,l),
(223,661,l),
(840,-17,l)
);
}
);
width = 971;
},
{
anchors = (
{
name = bottom;
pos = (495,0);
},
{
name = top;
pos = (495,900);
}
);
background = {
shapes = (
{
closed = 1;
nodes = (
(237,0,l),
(237,948,l),
(129,948,l),
(129,0,l)
);
},
{
closed = 1;
nodes = (
(1025,-34,l),
(129,948,l),
(-26,948,l),
(871,-34,l)
);
},
{
closed = 1;
nodes = (
(871,-34,l),
(871,914,l),
(763,914,l),
(763,-34,l)
);
}
);
};
guides = (
{
angle = 35.1147;
pos = (375,510);
},
{
angle = -46.9749;
pos = (549,308);
},
{
angle = 133.0251;
pos = (441,593);
},
{
angle = -46.9749;
pos = (549,228);
}
);
layerId = "3E87E8DA-1F15-4738-9454-A2AB4CEA57DC";
shapes = (
{
closed = 1;
nodes = (
(864,139,l),
(126,930,l),
(126,761,l),
(864,-30,l)
);
},
{
closed = 1;
nodes = (
(234,0,l),
(234,555,l),
(126,671,l),
(126,0,l)
);
},
{
closed = 1;
nodes = (
(864,900,l),
(756,900,l),
(756,344,l),
(864,229,l)
);
}
);
width = 990;
},
{
associatedMasterId = "5864D40E-51E2-4FDD-96DA-51B6D988DC78";
background = {
shapes = (
{
closed = 1;
nodes = (
(211,0,l),
(211,948,l),
(97,948,l),
(97,0,l)
);
},
{
closed = 1;
nodes = (
(760,-34,l),
(97,948,l),
(-17,948,l),
(646,-34,l)
);
},
{
closed = 1;
nodes = (
(646,-34,l),
(646,914,l),
(531,914,l),
(531,-34,l)
);
}
);
};
guides = (
{
angle = 35.1147;
pos = (360,510);
}
);
layerId = "B2F72E76-C3CF-471A-BDF8-EB43C4EF5051";
name = "Jan 21 17, 13:28";
shapes = (
{
closed = 1;
nodes = (
(646,914,l),
(537,914,l),
(537,486,ls),
(537,431,o),
(537,377,o),
(546,294,c),
(503,368,o),
(471,413,o),
(439,459,cs),
(97,948,l),
(97,0,l),
(206,0,l),
(206,428,ls),
(206,483,o),
(206,537,o),
(197,620,c),
(240,546,o),
(271,501,o),
(304,455,cs),
(646,-34,l)
);
}
);
width = 743;
},
{
associatedMasterId = "5864D40E-51E2-4FDD-96DA-51B6D988DC78";
background = {
shapes = (
{
closed = 1;
nodes = (
(223,0,l),
(223,804,l),
(114,948,l),
(114,0,l)
);
},
{
closed = 1;
nodes = (
(857,134,l),
(114,948,l),
(114,780,l),
(857,-34,l)
);
},
{
closed = 1;
nodes = (
(857,-34,l),
(857,914,l),
(748,914,l),
(748,129,l)
);
}
);
};
guides = (
{
angle = 35.1147;
pos = (360,510);
}
);
layerId = "3FD3E904-F3F4-45A1-B03C-864E1F4A75A9";
name = "Mar 20 17, 10:16";
shapes = (
{
closed = 1;
nodes = (
(857,-17,l),
(857,914,l),
(748,914,l),
(748,253,l),
(131,931,l),
(114,931,l),
(114,0,l),
(223,0,l),
(223,661,l),
(840,-17,l)
);
}
);
width = 971;
},
{
anchors = (
{
name = bottom;
pos = (465,0);
},
{
name = top;
pos = (465,900);
}
);
background = {
shapes = (
{
closed = 1;
nodes = (
(204,0,l),
(204,645,l),
(834,-30,l),
(834,900,l),
(726,900,l),
(726,255,l),
(96,930,l),
(96,0,l)
);
}
);
};
guides = (
{
angle = 135.1063;
pos = (366,761);
},
{
angle = -44.9469;
pos = (534,140);
},
{
angle = -44.9469;
pos = (534,240);
},
{
angle = 135.1063;
pos = (366,661);
}
);
layerId = "5864D40E-51E2-4FDD-96DA-51B6D988DC78";
shapes = (
{
closed = 1;
nodes = (
(804,225,l),
(96,930,l),
(96,677,l),
(804,-30,l)
);
},
{
closed = 1;
nodes = (
(264,0,l),
(264,410,l),
(96,577,l),
(96,0,l)
);
},
{
closed = 1;
nodes = (
(804,900,l),
(636,900,l),
(636,492,l),
(804,325,l)
);
}
);
width = 900;
}
);
unicode = 78;
},
{
glyphname = Eng;
kernLeft = B;
kernRight = H;
lastChange = "2023-01-30 07:56:10 +0000";
layers = (
{
anchors = (
{
name = bottom;
pos = (495,0);
},
{
name = top;
pos = (495,900);
}
);
guides = (
{
angle = -46.9603;
pos = (495,286);
},
{
angle = 133.0251;
pos = (441,673);
},
{
angle = 133.0251;
pos = (441,593);
},
{
angle = -46.9603;
pos = (495,366);
},
{
angle = 90;
pos = (756,81);
}
);
layerId = "3E87E8DA-1F15-4738-9454-A2AB4CEA57DC";
shapes = (
{
closed = 1;
nodes = (
(820,-123,o),
(864,-54,o),
(864,55,cs),
(864,139,l),
(126,930,l),
(126,761,l),
(756,86,l),
(756,-160,l)
);
},
{
closed = 1;
nodes = (
(646,-192,o),
(670,-189,o),
(692,-184,c),
(692,-71,l),
(671,-84,o),
(647,-90,o),
(621,-90,cs),
(561,-90,o),
(513,-58,o),
(483,-6,c),
(450,-126,l),
(495,-174,o),
(560,-192,o),
(622,-192,cs)
);
},
{
closed = 1;
nodes = (
(234,0,l),
(234,566,l),
(126,682,l),
(126,0,l)
);
},
{
closed = 1;
nodes = (
(864,900,l),
(756,900,l),
(756,336,l),
(864,220,l)
);
}
);
width = 990;
},
{
anchors = (
{
name = bottom;
pos = (495,0);
},
{
name = top;
pos = (495,900);
}
);
guides = (
{
angle = 134.0608;
pos = (636,118);
},
{
angle = 134.0608;
pos = (636,38);
},
{
angle = 134.0608;
pos = (366,651);
},
{
angle = 134.0608;
pos = (366,731);
},
{
angle = 90;
pos = (636,111);
}
);
layerId = "5864D40E-51E2-4FDD-96DA-51B6D988DC78";
shapes = (
{
closed = 1;
nodes = (
(731,-159,o),
(804,-78,o),
(804,66,cs),
(804,198,l),
(96,930,l),
(96,675,l),
(636,118,l),
(636,-188,l)
);
},
{
closed = 1;
nodes = (
(551,-200,o),
(562,-199,o),
(572,-197,c),
(572,-22,l),
(557,-29,o),
(540,-32,o),
(522,-32,cs),
(472,-32,o),
(431,-6,o),
(405,34,c),
(358,-134,l),
(403,-179,o),
(473,-200,o),
(541,-200,cs)
);
},
{
closed = 1;
nodes = (
(264,0,l),
(264,423,l),
(96,597,l),
(96,0,l)
);
},
{
closed = 1;
nodes = (
(804,900,l),
(636,900,l),
(636,452,l),
(804,279,l)
);
}
);
width = 990;
}
);
unicode = 330;
},
{
glyphname = O;
kernLeft = C;
kernRight = D;
lastChange = "2023-01-27 14:35:21 +0000";
layers = (
{
associatedMasterId = "3E87E8DA-1F15-4738-9454-A2AB4CEA57DC";
background = {
shapes = (
{
closed = 1;
nodes = (
(671,-17,o),
(845,157,o),
(845,371,cs),
(845,586,o),
(671,760,o),
(457,760,cs),
(243,760,o),
(69,586,o),
(69,371,cs),
(69,157,o),
(243,-17,o),
(457,-17,cs)
);
},
{
closed = 1;
nodes = (
(306,97,o),
(183,220,o),
(183,371,cs),
(183,523,o),
(306,646,o),
(457,646,cs),
(608,646,o),
(731,523,o),
(731,371,cs),
(731,220,o),
(608,97,o),
(457,97,cs)
);
}
);
};
guides = (
{
pos = (480,798);
}
);
layerId = "D964346A-6E52-4F65-832A-10CDDC31FA6D";
name = "Regular Dec 28 16, 17:07";
shapes = (
{
closed = 1;
nodes = (
(671,-17,o),
(848,157,o),
(848,371,cs),
(848,586,o),
(671,760,o),
(457,760,cs),
(243,760,o),
(66,586,o),
(66,371,cs),
(66,157,o),
(243,-17,o),
(457,-17,cs)
);
},
{
closed = 1;
nodes = (
(306,97,o),
(186,220,o),
(186,371,cs),
(186,523,o),
(306,646,o),
(457,646,cs),
(608,646,o),
(728,523,o),
(728,371,cs),
(728,220,o),
(608,97,o),
(457,97,cs)
);
}
);
width = 914;
},
{
anchors = (
{
name = bottom;
pos = (530,0);
},
{
name = center;
pos = (530,450);
},
{
name = ogonek;
pos = (530,0);
},
{
name = top;
pos = (530,900);
},
{
name = "top-vertical";
pos = (530,510);
},
{
name = topleft;
pos = (60,900);
},
{
name = topright;
pos = (1000,900);
}
);
background = {
shapes = (
{
closed = 1;
nodes = (
(792,-17,o),
(1004,195,o),
(1004,457,cs),
(1004,719,o),
(792,931,o),
(530,931,cs),
(268,931,o),
(56,719,o),
(56,457,cs),
(56,195,o),
(268,-17,o),
(530,-17,cs)
);
},
{
closed = 1;
nodes = (
(331,97,o),
(170,258,o),
(170,457,cs),
(170,656,o),
(331,817,o),
(530,817,cs),
(729,817,o),
(890,656,o),
(890,457,cs),
(890,258,o),
(729,97,o),
(530,97,cs)
);
}
);
};
guides = (
{
angle = 270;
pos = (500,450);
},
{
angle = 270;
pos = (560,450);
}
);
layerId = "3E87E8DA-1F15-4738-9454-A2AB4CEA57DC";
shapes = (
{
closed = 1;
nodes = (
(806,-2,o),
(1000,201,o),
(1000,450,cs),
(1000,699,o),
(806,902,o),
(564,917,c),
(564,809,l),
(743,794,o),
(882,639,o),
(882,450,cs),
(882,261,o),
(743,106,o),
(564,91,c),
(564,-17,l)
);
},
{
closed = 1;
nodes = (
(496,91,l),
(317,106,o),
(178,261,o),
(178,450,cs),
(178,639,o),
(317,794,o),
(496,809,c),
(496,917,l),
(254,902,o),
(60,699,o),
(60,450,cs),
(60,201,o),
(254,-2,o),
(496,-17,c)
);
}
);
width = 1060;
},
{
associatedMasterId = "5864D40E-51E2-4FDD-96DA-51B6D988DC78";
background = {
shapes = (
{
closed = 1;
nodes = (
(671,-17,o),
(845,157,o),
(845,371,cs),
(845,586,o),
(671,760,o),
(457,760,cs),
(243,760,o),
(69,586,o),
(69,371,cs),
(69,157,o),
(243,-17,o),
(457,-17,cs)
);
},
{
closed = 1;
nodes = (
(306,97,o),
(183,220,o),
(183,371,cs),
(183,523,o),
(306,646,o),
(457,646,cs),
(608,646,o),
(731,523,o),
(731,371,cs),
(731,220,o),
(608,97,o),
(457,97,cs)
);
}
);
};
guides = (
{
pos = (480,798);
}
);
layerId = "29CD0A0B-63A3-48B5-9935-94B0E7AA13AC";
name = "Regular Dec 28 16, 17:07";
shapes = (
{
closed = 1;
nodes = (
(671,-17,o),
(848,157,o),
(848,371,cs),
(848,586,o),
(671,760,o),
(457,760,cs),
(243,760,o),
(66,586,o),
(66,371,cs),
(66,157,o),
(243,-17,o),
(457,-17,cs)
);
},
{
closed = 1;
nodes = (
(306,97,o),
(186,220,o),
(186,371,cs),
(186,523,o),
(306,646,o),
(457,646,cs),
(608,646,o),
(728,523,o),
(728,371,cs),
(728,220,o),
(608,97,o),
(457,97,cs)
);
}
);
width = 914;
},
{
anchors = (
{
name = bottom;
pos = (530,0);
},
{
name = center;
pos = (530,450);
},
{
name = ogonek;
pos = (530,0);
},
{
name = top;
pos = (530,900);
},
{
name = "top-vertical";
pos = (530,480);
},
{
name = topleft;
pos = (60,900);
},
{
name = topright;
pos = (1000,900);
}
);
background = {
shapes = (
{
closed = 1;
nodes = (
(792,-17,o),
(1004,195,o),
(1004,457,cs),
(1004,719,o),
(792,931,o),
(530,931,cs),
(268,931,o),
(56,719,o),
(56,457,cs),
(56,195,o),
(268,-17,o),
(530,-17,cs)
);
},
{
closed = 1;
nodes = (
(331,97,o),
(170,258,o),
(170,457,cs),
(170,656,o),
(331,817,o),
(530,817,cs),
(729,817,o),
(890,656,o),
(890,457,cs),
(890,258,o),
(729,97,o),
(530,97,cs)
);
}
);
};
guides = (
{
angle = 90;
pos = (564,450);
},
{
angle = 90;
pos = (496,450);
}
);
layerId = "5864D40E-51E2-4FDD-96DA-51B6D988DC78";
shapes = (
{
closed = 1;
nodes = (
(811,0,o),
(1006,202,o),
(1006,450,cs),
(1006,698,o),
(811,900,o),
(564,917,c),
(564,742,l),
(709,725,o),
(818,602,o),
(818,450,cs),
(818,298,o),
(709,175,o),
(564,158,c),
(564,-17,l)
);
},
{
closed = 1;
nodes = (
(496,158,l),
(351,175,o),
(242,299,o),
(242,450,cs),
(242,601,o),
(351,725,o),
(496,742,c),
(496,917,l),
(249,900,o),
(54,698,o),
(54,450,cs),
(54,202,o),
(249,0,o),
(496,-17,c)
);
}
);
width = 1060;
}
);
unicode = 79;
},
{
glyphname = Ohorn;
kernLeft = C;
kernRight = D;
lastChange = "2023-01-27 07:27:57 +0000";
layers = (
{
anchors = (
{
name = bottom;
pos = (530,0);
},
{
name = ogonek;
pos = (530,0);
},
{
name = top;
pos = (530,900);
}
);
guides = (
{
angle = 90;
pos = (941,450);
}
);
hints = (
{
horizontal = 1;
place = (-18, 108);
place = (-18, 108);
type = Stem;
},
{
horizontal = 1;
origin = (0,6);
target = (2,12);
type = Stem;
},
{
place = (60, 118);
place = (60, 118);
type = Stem;
},
{
origin = (0,6);
target = (2,2);
type = Stem;
}
);
layerId = "3E87E8DA-1F15-4738-9454-A2AB4CEA57DC";
shapes = (
{
closed = 1;
nodes = (
(806,-2,o),
(1000,201,o),
(1000,450,cs),
(1000,699,o),
(806,902,o),
(564,917,c),
(564,809,l),
(743,794,o),
(882,639,o),
(882,450,cs),
(882,261,o),
(743,106,o),
(564,91,c),
(564,-17,l)
);
},
{
closed = 1;
nodes = (
(496,91,l),
(317,106,o),
(178,261,o),
(178,450,cs),
(178,639,o),
(317,794,o),
(496,809,c),
(496,917,l),
(254,902,o),
(60,699,o),
(60,450,cs),
(60,201,o),
(254,-2,o),
(496,-17,c)
);
},
{
closed = 1;
nodes = (
(983,759,o),
(1006,806,o),
(1006,868,cs),
(1006,897,o),
(1001,928,o),
(982,960,c),
(886,960,l),
(905,927,o),
(910,892,o),
(910,868,cs),
(910,845,o),
(904,823,o),
(893,807,c),
(886,834,l),
(917,805,o),
(945,773,o),
(968,737,c),
(948,730,l)
);
}
);
width = 1060;
},
{
anchors = (
{
name = bottom;
pos = (530,0);
},
{
name = ogonek;
pos = (530,0);
},
{
name = top;
pos = (530,900);
}
);
guides = (
{
angle = 90;
pos = (941,450);
},
{
angle = -73.0447;
pos = (819,780);
}
);
layerId = "5864D40E-51E2-4FDD-96DA-51B6D988DC78";
shapes = (
{
closed = 1;
nodes = (
(811,0,o),
(1006,202,o),
(1006,450,cs),
(1006,698,o),
(811,900,o),
(564,917,c),
(564,742,l),
(709,725,o),
(818,602,o),
(818,450,cs),
(818,298,o),
(709,175,o),
(564,158,c),
(564,-17,l)
);
},
{
closed = 1;
nodes = (
(496,158,l),
(351,175,o),
(242,299,o),
(242,450,cs),
(242,601,o),
(351,725,o),
(496,742,c),
(496,917,l),
(249,900,o),
(54,698,o),
(54,450,cs),
(54,202,o),
(249,0,o),
(496,-17,c)
);
},
{
closed = 1;
nodes = (
(1005,743,o),
(1030,796,o),
(1030,868,cs),
(1030,897,o),
(1025,928,o),
(1006,960,c),
(850,960,l),
(869,927,o),
(874,892,o),
(874,868,cs),
(874,852,o),
(872,838,o),
(868,827,c),
(858,860,l),
(909,821,o),
(952,773,o),
(985,719,c),
(962,713,l)
);
}
);
width = 1060;
}
);
unicode = 416;
},
{
glyphname = Oslash;
kernLeft = C;
kernRight = D;
lastChange = "2023-01-20 21:25:35 +0000";
layers = (
{
guides = (
{
angle = 230.2652;
pos = (415,473);
},
{
angle = 50.2652;
pos = (646,414);
}
);
layerId = "3E87E8DA-1F15-4738-9454-A2AB4CEA57DC";
shapes = (
{
closed = 1;
nodes = (
(930,852,l),
(859,911,l),
(130,34,l),
(201,-25,l)
);
},
{
closed = 1;
nodes = (
(790,-18,o),
(1000,191,o),
(1000,450,cs),
(1000,555,o),
(966,651,o),
(908,729,c),
(831,638,l),
(863,583,o),
(882,519,o),
(882,450,cs),
(882,251,o),
(728,90,o),
(530,90,cs),
(445,90,o),
(368,120,o),
(308,169,c),
(236,84,l),
(317,20,o),
(419,-18,o),
(530,-18,cs)
);
},
{
closed = 1;
nodes = (
(233,254,l),
(198,310,o),
(178,378,o),
(178,450,cs),
(178,649,o),
(332,810,o),
(530,810,cs),
(620,810,o),
(701,777,o),
(763,722,c),
(834,807,l),
(752,876,o),
(646,918,o),
(530,918,cs),
(270,918,o),
(60,709,o),
(60,450,cs),
(60,342,o),
(97,243,o),
(158,164,c)
);
}
);
width = 1060;
},
{
anchors = (
{
name = _center;
pos = (543,457);
},
{
name = bottom;
pos = (543,0);
},
{
name = center;
pos = (543,457);
},
{
name = ogonek;
pos = (977,10);
},
{
name = top;
pos = (543,914);
},
{
name = topleft;
pos = (19,914);
},
{
name = topright;
pos = (1066,914);
}
);
associatedMasterId = "3E87E8DA-1F15-4738-9454-A2AB4CEA57DC";
background = {
shapes = (
{
closed = 1;
nodes = (
(805,-17,o),
(1017,195,o),
(1017,457,cs),
(1017,719,o),
(805,931,o),
(543,931,cs),
(281,931,o),
(69,719,o),
(69,457,cs),
(69,195,o),
(281,-17,o),
(543,-17,cs)
);
},
{
closed = 1;
nodes = (
(342,91,o),
(186,255,o),
(186,457,cs),
(186,659,o),
(342,823,o),
(543,823,cs),
(744,823,o),
(900,659,o),
(900,457,cs),
(900,255,o),
(744,91,o),
(543,91,cs)
);
},
{
closed = 1;
nodes = (
(215,-13,l),
(949,862,l),
(870,927,l),
(136,52,l)
);
}
);
};
guides = (
{
angle = 50;
pos = (611,444);
},
{
angle = 230;
pos = (530,516);
}
);
hints = (
{
horizontal = 1;
origin = (0,24);
target = (2,9);
type = Stem;
},
{
horizontal = 1;
origin = (0,8);
target = (1,2);
type = Stem;
},
{
origin = (0,11);
target = (1,9);
type = Stem;
},
{
origin = (2,6);
target = (0,27);
type = Stem;
}
);
layerId = "EE0FBCA4-4CE2-4E3B-825D-04713E092735";
name = "Oct 26 19, 10:49";
shapes = (
{
closed = 1;
nodes = (
(979,901,l),
(989,828,l),
(830,961,l),
(907,966,l),
(777,812,l),
(833,832,l),
(753,894,o),
(652,931,o),
(543,931,cs),
(281,931,o),
(69,719,o),
(69,457,cs),
(69,317,o),
(129,192,o),
(224,105,c),
(237,168,l),
(107,13,l),
(96,86,l),
(255,-47,l),
(178,-52,l),
(308,102,l),
(252,82,l),
(332,20,o),
(433,-17,o),
(543,-17,cs),
(805,-17,o),
(1017,195,o),
(1017,457,cs),
(1017,597,o),
(956,722,o),
(862,809,c),
(848,746,l)
);
},
{
closed = 1;
nodes = (
(186,659,o),
(342,823,o),
(543,823,cs),
(614,823,o),
(680,802,o),
(735,766,c),
(273,216,l),
(218,280,o),
(186,365,o),
(186,457,cs)
);
},
{
closed = 1;
nodes = (
(471,91,o),
(406,112,o),
(350,148,c),
(812,698,l),
(867,634,o),
(900,549,o),
(900,457,cs),
(900,255,o),
(744,91,o),
(543,91,cs)
);
}
);
width = 1085;
},
{
anchors = (
{
name = _center;
pos = (543,457);
},
{
name = bottom;
pos = (543,0);
},
{
name = center;
pos = (543,457);
},
{
name = ogonek;
pos = (977,10);
},
{
name = top;
pos = (543,914);
},
{
name = topleft;
pos = (19,914);
},
{
name = topright;
pos = (1066,914);
}
);
associatedMasterId = "3E87E8DA-1F15-4738-9454-A2AB4CEA57DC";
background = {
shapes = (
{
closed = 1;
nodes = (
(805,-17,o),
(1017,195,o),
(1017,457,cs),
(1017,719,o),
(805,931,o),
(543,931,cs),
(281,931,o),
(69,719,o),
(69,457,cs),
(69,195,o),
(281,-17,o),
(543,-17,cs)
);
},
{
closed = 1;
nodes = (
(342,91,o),
(186,255,o),
(186,457,cs),
(186,659,o),
(342,823,o),
(543,823,cs),
(744,823,o),
(900,659,o),
(900,457,cs),
(900,255,o),
(744,91,o),
(543,91,cs)
);
},
{
closed = 1;
nodes = (
(215,-13,l),
(949,862,l),
(870,927,l),
(136,52,l)
);
}
);
};
guides = (
{
angle = 50;
pos = (611,444);
},
{
angle = 230;
pos = (530,516);
}
);
hints = (
{
horizontal = 1;
origin = (0,24);
target = (2,11);
type = Stem;
},
{
horizontal = 1;
origin = (0,8);
target = (1,2);
type = Stem;
},
{
origin = (0,11);
target = (1,11);
type = Stem;
},
{
origin = (2,8);
target = (0,27);
type = Stem;
}
);
layerId = "D07CEF20-34CD-4B3F-8A78-93235AF9D561";
name = "Oct 26 19, 10:51";
shapes = (
{
closed = 1;
nodes = (
(979,901,l),
(989,828,l),
(830,961,l),
(907,966,l),
(777,812,l),
(833,832,l),
(753,894,o),
(652,931,o),
(543,931,cs),
(281,931,o),
(69,719,o),
(69,457,cs),
(69,317,o),
(129,192,o),
(224,105,c),
(237,168,l),
(107,13,l),
(96,86,l),
(255,-47,l),
(178,-52,l),
(308,102,l),
(252,82,l),
(332,20,o),
(433,-17,o),
(543,-17,cs),
(805,-17,o),
(1017,195,o),
(1017,457,cs),
(1017,597,o),
(956,722,o),
(862,809,c),
(848,746,l)
);
},
{
closed = 1;
nodes = (
(186,659,o),
(342,823,o),
(543,823,cs),
(626,823,o),
(702,794,o),
(762,747,c),
(770,804,l),
(242,175,l),
(296,192,l),
(227,258,o),
(186,352,o),
(186,457,cs)
);
},
{
closed = 1;
nodes = (
(459,91,o),
(384,120,o),
(324,167,c),
(315,110,l),
(844,739,l),
(789,722,l),
(859,656,o),
(900,562,o),
(900,457,cs),
(900,255,o),
(744,91,o),
(543,91,cs)
);
}
);
width = 1085;
},
{
guides = (
{
angle = 230.2652;
pos = (406,480);
},
{
angle = 50.2652;
pos = (655,407);
}
);
layerId = "5864D40E-51E2-4FDD-96DA-51B6D988DC78";
shapes = (
{
closed = 1;
nodes = (
(939,845,l),
(850,918,l),
(121,41,l),
(210,-32,l)
);
},
{
closed = 1;
nodes = (
(793,-18,o),
(1006,191,o),
(1006,450,cs),
(1006,552,o),
(973,646,o),
(917,723,c),
(792,573,l),
(809,536,o),
(818,494,o),
(818,450,cs),
(818,287,o),
(692,156,o),
(530,156,cs),
(460,156,o),
(397,180,o),
(348,221,c),
(233,84,l),
(315,20,o),
(418,-18,o),
(530,-18,cs)
);
},
{
closed = 1;
nodes = (
(271,319,l),
(253,358,o),
(242,403,o),
(242,450,cs),
(242,613,o),
(368,744,o),
(530,744,cs),
(603,744,o),
(668,718,o),
(718,674,c),
(833,811,l),
(751,878,o),
(645,918,o),
(530,918,cs),
(267,918,o),
(54,709,o),
(54,450,cs),
(54,345,o),
(89,248,o),
(148,170,c)
);
}
);
width = 1060;
},
{
anchors = (
{
name = _center;
pos = (543,457);
},
{
name = bottom;
pos = (543,0);
},
{
name = center;
pos = (543,457);
},
{
name = ogonek;
pos = (977,10);
},
{
name = top;
pos = (543,914);
},
{
name = topleft;
pos = (19,914);
},
{
name = topright;
pos = (1066,914);
}
);
associatedMasterId = "5864D40E-51E2-4FDD-96DA-51B6D988DC78";
background = {
shapes = (
{
closed = 1;
nodes = (
(805,-17,o),
(1017,195,o),
(1017,457,cs),
(1017,719,o),
(805,931,o),
(543,931,cs),
(281,931,o),
(69,719,o),
(69,457,cs),
(69,195,o),
(281,-17,o),
(543,-17,cs)
);
},
{
closed = 1;
nodes = (
(342,91,o),
(186,255,o),
(186,457,cs),
(186,659,o),
(342,823,o),
(543,823,cs),
(744,823,o),
(900,659,o),
(900,457,cs),
(900,255,o),
(744,91,o),
(543,91,cs)
);
},
{
closed = 1;
nodes = (
(215,-13,l),
(949,862,l),
(870,927,l),
(136,52,l)
);
}
);
};
guides = (
{
angle = 50;
pos = (611,444);
},
{
angle = 230;
pos = (530,516);
}
);
hints = (
{
horizontal = 1;
origin = (0,24);
target = (2,9);
type = Stem;
},
{
horizontal = 1;
origin = (0,8);
target = (1,2);
type = Stem;
},
{
origin = (0,11);
target = (1,9);
type = Stem;
},
{
origin = (2,6);
target = (0,27);
type = Stem;
}
);
layerId = "52617ACB-0366-4B77-8116-19A66B661E1C";
name = "Oct 26 19, 10:49";
shapes = (
{
closed = 1;
nodes = (
(979,901,l),
(989,828,l),
(830,961,l),
(907,966,l),
(777,812,l),
(833,832,l),
(753,894,o),
(652,931,o),
(543,931,cs),
(281,931,o),
(69,719,o),
(69,457,cs),
(69,317,o),
(129,192,o),
(224,105,c),
(237,168,l),
(107,13,l),
(96,86,l),
(255,-47,l),
(178,-52,l),
(308,102,l),
(252,82,l),
(332,20,o),
(433,-17,o),
(543,-17,cs),
(805,-17,o),
(1017,195,o),
(1017,457,cs),
(1017,597,o),
(956,722,o),
(862,809,c),
(848,746,l)
);
},
{
closed = 1;
nodes = (
(186,659,o),
(342,823,o),
(543,823,cs),
(614,823,o),
(680,802,o),
(735,766,c),
(273,216,l),
(218,280,o),
(186,365,o),
(186,457,cs)
);
},
{
closed = 1;
nodes = (
(471,91,o),
(406,112,o),
(350,148,c),
(812,698,l),
(867,634,o),
(900,549,o),
(900,457,cs),
(900,255,o),
(744,91,o),
(543,91,cs)
);
}
);
width = 1085;
},
{
anchors = (
{
name = _center;
pos = (543,457);
},
{
name = bottom;
pos = (543,0);
},
{
name = center;
pos = (543,457);
},
{
name = ogonek;
pos = (977,10);
},
{
name = top;
pos = (543,914);
},
{
name = topleft;
pos = (19,914);
},
{
name = topright;
pos = (1066,914);
}
);
associatedMasterId = "5864D40E-51E2-4FDD-96DA-51B6D988DC78";
background = {
shapes = (
{
closed = 1;
nodes = (
(805,-17,o),
(1017,195,o),
(1017,457,cs),
(1017,719,o),
(805,931,o),
(543,931,cs),
(281,931,o),
(69,719,o),
(69,457,cs),
(69,195,o),
(281,-17,o),
(543,-17,cs)
);
},
{
closed = 1;
nodes = (
(342,91,o),
(186,255,o),
(186,457,cs),
(186,659,o),
(342,823,o),
(543,823,cs),
(744,823,o),
(900,659,o),
(900,457,cs),
(900,255,o),
(744,91,o),
(543,91,cs)
);
},
{
closed = 1;
nodes = (
(215,-13,l),
(949,862,l),
(870,927,l),
(136,52,l)
);
}
);
};
guides = (
{
angle = 50;
pos = (611,444);
},
{
angle = 230;
pos = (530,516);
}
);
hints = (
{
horizontal = 1;
origin = (0,24);
target = (2,11);
type = Stem;
},
{
horizontal = 1;
origin = (0,8);
target = (1,2);
type = Stem;
},
{
origin = (0,11);
target = (1,11);
type = Stem;
},
{
origin = (2,8);
target = (0,27);
type = Stem;
}
);
layerId = "51E2F5BA-3C55-40C3-A1E0-654BEFD7D5AA";
name = "Oct 26 19, 10:51";
shapes = (
{
closed = 1;
nodes = (
(979,901,l),
(989,828,l),
(830,961,l),
(907,966,l),
(777,812,l),
(833,832,l),
(753,894,o),
(652,931,o),
(543,931,cs),
(281,931,o),
(69,719,o),
(69,457,cs),
(69,317,o),
(129,192,o),
(224,105,c),
(237,168,l),
(107,13,l),
(96,86,l),
(255,-47,l),
(178,-52,l),
(308,102,l),
(252,82,l),
(332,20,o),
(433,-17,o),
(543,-17,cs),
(805,-17,o),
(1017,195,o),
(1017,457,cs),
(1017,597,o),
(956,722,o),
(862,809,c),
(848,746,l)
);
},
{
closed = 1;
nodes = (
(186,659,o),
(342,823,o),
(543,823,cs),
(626,823,o),
(702,794,o),
(762,747,c),
(770,804,l),
(242,175,l),
(296,192,l),
(227,258,o),
(186,352,o),
(186,457,cs)
);
},
{
closed = 1;
nodes = (
(459,91,o),
(384,120,o),
(324,167,c),
(315,110,l),
(844,739,l),
(789,722,l),
(859,656,o),
(900,562,o),
(900,457,cs),
(900,255,o),
(744,91,o),
(543,91,cs)
);
}
);
width = 1085;
}
);
unicode = 216;
},
{
glyphname = OE;
kernLeft = O;
kernRight = E;
lastChange = "2023-01-27 14:27:13 +0000";
layers = (
{
anchors = (
{
name = bottom;
pos = (530,0);
},
{
name = center;
pos = (530,450);
},
{
name = ogonek;
pos = (530,0);
},
{
name = top;
pos = (530,900);
},
{
name = "top-vertical";
pos = (530,540);
},
{
name = topleft;
pos = (60,900);
},
{
name = topright;
pos = (1000,900);
}
);
background = {
shapes = (
{
closed = 1;
nodes = (
(790,-18,o),
(1000,191,o),
(1000,450,cs),
(1000,709,o),
(790,918,o),
(530,918,cs),
(270,918,o),
(60,709,o),
(60,450,cs),
(60,191,o),
(270,-18,o),
(530,-18,cs)
);
},
{
closed = 1;
nodes = (
(332,90,o),
(178,251,o),
(178,450,cs),
(178,649,o),
(332,810,o),
(530,810,cs),
(728,810,o),
(882,649,o),
(882,450,cs),
(882,251,o),
(728,90,o),
(530,90,cs)
);
}
);
};
guides = (
{
angle = 270;
pos = (822,102);
},
{
angle = 270;
pos = (559,450);
},
{
angle = 270;
pos = (499,450);
}
);
hints = (
{
horizontal = 1;
place = (-18, 108);
place = (-18, 108);
type = Stem;
},
{
horizontal = 1;
place = (918, 108);
place = (918, 108);
type = Stem;
},
{
place = (60, 118);
place = (60, 118);
type = Stem;
},
{
place = (882, 108);
place = (882, 108);
type = Stem;
}
);
layerId = "3E87E8DA-1F15-4738-9454-A2AB4CEA57DC";
shapes = (
{
closed = 1;
nodes = (
(499,91,l),
(316,107,o),
(178,262,o),
(178,450,cs),
(178,638,o),
(316,793,o),
(499,809,c),
(499,917,l),
(253,902,o),
(60,699,o),
(60,450,cs),
(60,201,o),
(257,-1,o),
(499,-17,c)
);
},
{
closed = 1;
nodes = (
(702,-8,o),
(827,69,o),
(896,180,c),
(882,204,l),
(882,0,l),
(990,0,l),
(990,900,l),
(882,900,l),
(882,696,l),
(896,720,l),
(827,831,o),
(702,908,o),
(559,917,c),
(559,809,l),
(743,794,o),
(882,639,o),
(882,450,cs),
(882,261,o),
(743,106,o),
(559,91,c),
(559,-17,l)
);
},
{
closed = 1;
nodes = (
(1320,0,l),
(1320,102,l),
(1050,102,l),
(1050,0,l)
);
},
{
closed = 1;
nodes = (
(1250,504,l),
(1250,606,l),
(1050,606,l),
(1050,504,l)
);
},
{
closed = 1;
nodes = (
(1320,798,l),
(1320,900,l),
(1050,900,l),
(1050,798,l)
);
}
);
width = 1380;
},
{
anchors = (
{
name = bottom;
pos = (530,0);
},
{
name = center;
pos = (530,450);
},
{
name = ogonek;
pos = (530,0);
},
{
name = top;
pos = (530,900);
},
{
name = "top-vertical";
pos = (530,480);
},
{
name = topleft;
pos = (60,900);
},
{
name = topright;
pos = (1000,900);
}
);
background = {
shapes = (
{
closed = 1;
nodes = (
(790,-18,o),
(1000,191,o),
(1000,450,cs),
(1000,709,o),
(790,918,o),
(530,918,cs),
(270,918,o),
(60,709,o),
(60,450,cs),
(60,191,o),
(270,-18,o),
(530,-18,cs)
);
},
{
closed = 1;
nodes = (
(332,90,o),
(178,251,o),
(178,450,cs),
(178,649,o),
(332,810,o),
(530,810,cs),
(728,810,o),
(882,649,o),
(882,450,cs),
(882,251,o),
(728,90,o),
(530,90,cs)
);
}
);
};
layerId = "5864D40E-51E2-4FDD-96DA-51B6D988DC78";
shapes = (
{
closed = 1;
nodes = (
(496,158,l),
(351,175,o),
(242,299,o),
(242,450,cs),
(242,601,o),
(351,725,o),
(496,742,c),
(496,917,l),
(249,900,o),
(54,698,o),
(54,450,cs),
(54,202,o),
(249,0,o),
(496,-17,c)
);
},
{
closed = 1;
nodes = (
(658,-10,o),
(744,28,o),
(813,107,c),
(786,117,l),
(786,0,l),
(960,0,l),
(960,900,l),
(786,900,l),
(786,783,l),
(813,793,l),
(744,872,o),
(658,910,o),
(564,917,c),
(564,742,l),
(709,725,o),
(818,602,o),
(818,450,cs),
(818,298,o),
(709,175,o),
(564,158,c),
(564,-17,l)
);
},
{
closed = 1;
nodes = (
(1266,0,l),
(1266,162,l),
(1020,162,l),
(1020,0,l)
);
},
{
closed = 1;
nodes = (
(1196,456,l),
(1196,606,l),
(1020,606,l),
(1020,456,l)
);
},
{
closed = 1;
nodes = (
(1266,744,l),
(1266,900,l),
(1020,900,l),
(1020,744,l)
);
}
);
width = 1320;
}
);
unicode = 338;
},
{
glyphname = P;
kernLeft = B;
kernRight = P;
lastChange = "2023-01-11 18:41:29 +0000";
layers = (
{
associatedMasterId = "3E87E8DA-1F15-4738-9454-A2AB4CEA57DC";
background = {
shapes = (
{
closed = 1;
nodes = (
(189,805,l),
(334,805,ls),
(439,805,o),
(524,721,o),
(524,616,cs),
(524,511,o),
(439,427,o),
(334,427,cs),
(149,427,l),
(149,329,l),
(340,329,ls),
(505,329,o),
(638,460,o),
(638,622,cs),
(638,784,o),
(505,914,o),
(340,914,cs),
(183,914,l)
);
},
{
closed = 1;
nodes = (
(97,0,l),
(211,0,l),
(211,914,l),
(97,914,l)
);
}
);
};
guides = (
{
angle = 180;
pos = (387,382);
},
{
angle = 270;
pos = (700,653);
},
{
angle = -45;
pos = (506,493);
},
{
angle = 224.3795;
pos = (600,415);
},
{
angle = 45;
pos = (506,802);
},
{
angle = -44.3795;
pos = (600,892);
}
);
layerId = "7D2EAC26-C63F-4707-86AB-6CE268CF4267";
name = "Jan 12 17, 10:33";
shapes = (
{
closed = 1;
nodes = (
(189,805,l),
(334,805,ls),
(439,805,o),
(524,721,o),
(524,616,cs),
(524,511,o),
(439,427,o),
(334,427,cs),
(149,427,l),
(149,329,l),
(340,329,ls),
(505,329,o),
(638,460,o),
(638,622,cs),
(638,784,o),
(505,914,o),
(340,914,cs),
(183,914,l)
);
},
{
closed = 1;
nodes = (
(97,0,l),
(211,0,l),
(211,914,l),
(97,914,l)
);
}
);
width = 686;
},
{
associatedMasterId = "3E87E8DA-1F15-4738-9454-A2AB4CEA57DC";
background = {
shapes = (
{
closed = 1;
nodes = (
(189,805,l),
(334,805,ls),
(439,805,o),
(524,721,o),
(524,616,cs),
(524,511,o),
(439,427,o),
(334,427,cs),
(149,427,l),
(149,329,l),
(340,329,ls),
(505,329,o),
(638,460,o),
(638,622,cs),
(638,784,o),
(505,914,o),
(340,914,cs),
(183,914,l)
);
},
{
closed = 1;
nodes = (
(97,0,l),
(211,0,l),
(211,914,l),
(97,914,l)
);
}
);
};
guides = (
{
angle = 180;
pos = (387,382);
}
);
layerId = "8F09FD3D-C6E2-4659-9259-27691A957046";
name = "Mar 20 17, 10:14";
shapes = (
{
closed = 1;
nodes = (
(206,805,l),
(393,805,ls),
(468,805,o),
(510,785,o),
(545,750,cs),
(579,716,o),
(600,668,o),
(600,616,cs),
(600,560,o),
(577,516,o),
(545,483,cs),
(510,447,o),
(468,427,o),
(393,427,cs),
(167,427,l),
(167,329,l),
(399,329,ls),
(499,329,o),
(573,361,o),
(627,415,cs),
(681,468,o),
(714,541,o),
(714,622,cs),
(714,700,o),
(684,772,o),
(627,828,cs),
(573,883,o),
(502,914,o),
(399,914,cs),
(200,914,l)
);
},
{
closed = 1;
nodes = (
(114,0,l),
(229,0,l),
(229,914,l),
(114,914,l)
);
}
);
width = 743;
},
{
background = {
shapes = (
{
closed = 1;
nodes = (
(339,316,ls),
(449,316,o),
(523,347,o),
(577,401,cs),
(629,454,o),
(662,526,o),
(662,608,cs),
(662,686,o),
(632,759,o),
(577,814,cs),
(523,869,o),
(452,900,o),
(339,900,cs),
(180,900,l),
(180,798,l),
(333,798,ls),
(418,798,o),
(456,779,o),
(493,744,cs),
(529,712,o),
(548,661,o),
(548,608,cs),
(548,551,o),
(527,504,o),
(493,472,cs),
(456,437,o),
(418,418,o),
(333,418,cs),
(180,418,l),
(180,316,l)
);
},
{
closed = 1;
nodes = (
(241,0,l),
(241,900,l),
(127,900,l),
(127,0,l)
);
}
);
};
guides = (
{
pos = (179,367);
}
);
layerId = "3E87E8DA-1F15-4738-9454-A2AB4CEA57DC";
shapes = (
{
closed = 1;
nodes = (
(349,316,ls),
(587,316,o),
(672,480,o),
(672,608,cs),
(672,738,o),
(586,900,o),
(349,900,cs),
(300,900,l),
(300,798,l),
(343,798,ls),
(508,798,o),
(558,696,o),
(558,608,cs),
(558,516,o),
(504,418,o),
(343,418,cs),
(300,418,l),
(300,316,l)
);
},
{
closed = 1;
nodes = (
(240,0,l),
(240,900,l),
(126,900,l),
(126,0,l)
);
}
);
width = 720;
},
{
associatedMasterId = "5864D40E-51E2-4FDD-96DA-51B6D988DC78";
background = {
shapes = (
{
closed = 1;
nodes = (
(189,805,l),
(334,805,ls),
(439,805,o),
(524,721,o),
(524,616,cs),
(524,511,o),
(439,427,o),
(334,427,cs),
(149,427,l),
(149,329,l),
(340,329,ls),
(505,329,o),
(638,460,o),
(638,622,cs),
(638,784,o),
(505,914,o),
(340,914,cs),
(183,914,l)
);
},
{
closed = 1;
nodes = (
(97,0,l),
(211,0,l),
(211,914,l),
(97,914,l)
);
}
);
};
guides = (
{
angle = 180;
pos = (387,382);
},
{
angle = 270;
pos = (700,653);
},
{
angle = -45;
pos = (506,493);
},
{
angle = 224.3795;
pos = (600,415);
},
{
angle = 45;
pos = (506,802);
},
{
angle = -44.3795;
pos = (600,892);
}
);
layerId = "435BF8AF-23E5-421D-A32C-A3417F091F2F";
name = "Jan 12 17, 10:33";
shapes = (
{
closed = 1;
nodes = (
(189,805,l),
(334,805,ls),
(439,805,o),
(524,721,o),
(524,616,cs),
(524,511,o),
(439,427,o),
(334,427,cs),
(149,427,l),
(149,329,l),
(340,329,ls),
(505,329,o),
(638,460,o),
(638,622,cs),
(638,784,o),
(505,914,o),
(340,914,cs),
(183,914,l)
);
},
{
closed = 1;
nodes = (
(97,0,l),
(211,0,l),
(211,914,l),
(97,914,l)
);
}
);
width = 686;
},
{
associatedMasterId = "5864D40E-51E2-4FDD-96DA-51B6D988DC78";
background = {
shapes = (
{
closed = 1;
nodes = (
(189,805,l),
(334,805,ls),
(439,805,o),
(524,721,o),
(524,616,cs),
(524,511,o),
(439,427,o),
(334,427,cs),
(149,427,l),
(149,329,l),
(340,329,ls),
(505,329,o),
(638,460,o),
(638,622,cs),
(638,784,o),
(505,914,o),
(340,914,cs),
(183,914,l)
);
},
{
closed = 1;
nodes = (
(97,0,l),
(211,0,l),
(211,914,l),
(97,914,l)
);
}
);
};
guides = (
{
angle = 180;
pos = (387,382);
}
);
layerId = "844DD615-4057-40C9-85F0-3CCC15E90D1E";
name = "Mar 20 17, 10:14";
shapes = (
{
closed = 1;
nodes = (
(206,805,l),
(393,805,ls),
(468,805,o),
(510,785,o),
(545,750,cs),
(579,716,o),
(600,668,o),
(600,616,cs),
(600,560,o),
(577,516,o),
(545,483,cs),
(510,447,o),
(468,427,o),
(393,427,cs),
(167,427,l),
(167,329,l),
(399,329,ls),
(499,329,o),
(573,361,o),
(627,415,cs),
(681,468,o),
(714,541,o),
(714,622,cs),
(714,700,o),
(684,772,o),
(627,828,cs),
(573,883,o),
(502,914,o),
(399,914,cs),
(200,914,l)
);
},
{
closed = 1;
nodes = (
(114,0,l),
(229,0,l),
(229,914,l),
(114,914,l)
);
}
);
width = 743;
},
{
background = {
shapes = (
{
closed = 1;
nodes = (
(339,316,ls),
(449,316,o),
(523,347,o),
(577,401,cs),
(629,454,o),
(662,526,o),
(662,608,cs),
(662,686,o),
(632,759,o),
(577,814,cs),
(523,869,o),
(452,900,o),
(339,900,cs),
(180,900,l),
(180,798,l),
(333,798,ls),
(418,798,o),
(456,779,o),
(493,744,cs),
(529,712,o),
(548,661,o),
(548,608,cs),
(548,551,o),
(527,504,o),
(493,472,cs),
(456,437,o),
(418,418,o),
(333,418,cs),
(180,418,l),
(180,316,l)
);
},
{
closed = 1;
nodes = (
(241,0,l),
(241,900,l),
(127,900,l),
(127,0,l)
);
}
);
};
guides = (
{
angle = -86.6335;
pos = (346,367);
},
{
pos = (179,367);
}
);
layerId = "5864D40E-51E2-4FDD-96DA-51B6D988DC78";
shapes = (
{
closed = 1;
nodes = (
(368,289,ls),
(620,289,o),
(710,459,o),
(710,594,cs),
(710,732,o),
(619,900,o),
(368,900,cs),
(330,900,l),
(330,744,l),
(358,744,ls),
(487,744,o),
(530,664,o),
(530,594,cs),
(530,522,o),
(486,445,o),
(358,445,cs),
(330,445,l),
(330,289,l)
);
},
{
closed = 1;
nodes = (
(270,0,l),
(270,900,l),
(96,900,l),
(96,0,l)
);
}
);
width = 740;
}
);
unicode = 80;
},
{
glyphname = Thorn;
kernLeft = B;
kernRight = Thorn;
lastChange = "2023-01-20 21:29:09 +0000";
layers = (
{
guides = (
{
angle = 90;
pos = (240,450);
}
);
layerId = "3E87E8DA-1F15-4738-9454-A2AB4CEA57DC";
shapes = (
{
closed = 1;
nodes = (
(349,196,ls),
(587,196,o),
(672,360,o),
(672,488,cs),
(672,618,o),
(586,780,o),
(349,780,cs),
(300,780,l),
(300,678,l),
(343,678,ls),
(508,678,o),
(558,576,o),
(558,488,cs),
(558,396,o),
(504,298,o),
(343,298,cs),
(300,298,l),
(300,196,l)
);
},
{
closed = 1;
nodes = (
(240,0,l),
(240,900,l),
(126,900,l),
(126,0,l)
);
}
);
width = 720;
},
{
background = {
shapes = (
{
closed = 1;
nodes = (
(349,196,ls),
(587,196,o),
(672,360,o),
(672,488,cs),
(672,618,o),
(586,780,o),
(349,780,cs),
(179,780,l),
(179,678,l),
(343,678,ls),
(508,678,o),
(558,576,o),
(558,488,cs),
(558,396,o),
(504,298,o),
(343,298,cs),
(179,298,l),
(179,196,l)
);
},
{
closed = 1;
nodes = (
(240,0,l),
(240,900,l),
(126,900,l),
(126,0,l)
);
}
);
};
guides = (
{
angle = 90;
pos = (270,450);
}
);
layerId = "5864D40E-51E2-4FDD-96DA-51B6D988DC78";
shapes = (
{
closed = 1;
nodes = (
(368,169,ls),
(620,169,o),
(710,339,o),
(710,474,cs),
(710,612,o),
(619,780,o),
(368,780,cs),
(330,780,l),
(330,624,l),
(358,624,ls),
(487,624,o),
(530,544,o),
(530,474,cs),
(530,402,o),
(486,325,o),
(358,325,cs),
(330,325,l),
(330,169,l)
);
},
{
closed = 1;
nodes = (
(270,0,l),
(270,900,l),
(96,900,l),
(96,0,l)
);
}
);
width = 740;
}
);
unicode = 222;
},
{
glyphname = Q;
kernLeft = C;
kernRight = D;
lastChange = "2023-01-12 12:29:17 +0000";
layers = (
{
guides = (
{
angle = 180;
pos = (530,450);
},
{
angle = 129.7449;
pos = (380,450);
},
{
angle = 90;
pos = (500,864);
},
{
angle = 90;
pos = (560,864);
}
);
layerId = "3E87E8DA-1F15-4738-9454-A2AB4CEA57DC";
shapes = (
{
closed = 1;
nodes = (
(602,-18,o),
(671,-2,o),
(732,27,c),
(659,114,l),
(619,99,o),
(576,90,o),
(530,90,cs),
(332,90,o),
(178,251,o),
(178,450,cs),
(178,639,o),
(317,793,o),
(496,809,c),
(496,917,l),
(254,902,o),
(60,699,o),
(60,450,cs),
(60,191,o),
(270,-18,o),
(530,-18,cs)
);
},
{
closed = 1;
nodes = (
(993,-30,l),
(594,450,l),
(460,450,l),
(859,-30,l)
);
},
{
closed = 1;
nodes = (
(932,172,o),
(1000,303,o),
(1000,450,cs),
(1000,699,o),
(806,902,o),
(564,917,c),
(564,809,l),
(743,793,o),
(882,639,o),
(882,450,cs),
(882,341,o),
(836,244,o),
(762,178,c),
(827,87,l)
);
}
);
width = 1060;
},
{
anchors = (
{
name = top;
pos = (543,914);
}
);
associatedMasterId = "3E87E8DA-1F15-4738-9454-A2AB4CEA57DC";
background = {
shapes = (
{
closed = 1;
nodes = (
(805,-17,o),
(1017,195,o),
(1017,457,cs),
(1017,719,o),
(805,931,o),
(543,931,cs),
(281,931,o),
(69,719,o),
(69,457,cs),
(69,195,o),
(281,-17,o),
(543,-17,cs)
);
},
{
closed = 1;
nodes = (
(344,97,o),
(183,258,o),
(183,457,cs),
(183,656,o),
(344,817,o),
(543,817,cs),
(742,817,o),
(903,656,o),
(903,457,cs),
(903,258,o),
(742,97,o),
(543,97,cs)
);
}
);
};
guides = (
{
angle = 133.9646;
pos = (218,128);
},
{
angle = 43.9646;
pos = (280,187);
},
{
angle = 133.9646;
pos = (306,212);
}
);
hints = (
{
horizontal = 1;
origin = (0,11);
target = (1,11);
type = Stem;
},
{
horizontal = 1;
origin = (0,5);
target = (1,5);
type = Stem;
},
{
origin = (0,8);
target = (1,2);
type = Stem;
},
{
origin = (1,8);
target = (0,2);
type = Stem;
}
);
layerId = "CC19B035-44A2-464F-A993-7290ED62431F";
name = "Jan 13 17, 16:42";
shapes = (
{
closed = 1;
nodes = (
(805,-17,o),
(1017,195,o),
(1017,457,cs),
(1017,719,o),
(805,931,o),
(543,931,cs),
(281,931,o),
(69,719,o),
(69,457,cs),
(69,195,o),
(281,-17,o),
(543,-17,cs)
);
},
{
closed = 1;
nodes = (
(344,97,o),
(189,258,o),
(189,457,cs),
(189,656,o),
(344,817,o),
(543,817,cs),
(742,817,o),
(897,656,o),
(897,457,cs),
(897,258,o),
(742,97,o),
(543,97,cs)
);
},
{
closed = 1;
nodes = (
(440,44,l),
(509,-125,o),
(676,-240,o),
(875,-240,cs),
(940,-240,o),
(1002,-228,o),
(1057,-206,c),
(1057,-84,l),
(1006,-114,o),
(940,-131,o),
(875,-131,cs),
(745,-131,o),
(632,-62,o),
(572,44,c)
);
}
);
width = 1085;
},
{
guides = (
{
angle = 180;
pos = (530,450);
},
{
angle = 129.7449;
pos = (710,311);
},
{
angle = -50.2443;
pos = (493,281);
},
{
angle = 90;
pos = (560,831);
},
{
angle = 90;
pos = (500,831);
}
);
layerId = "5864D40E-51E2-4FDD-96DA-51B6D988DC78";
shapes = (
{
closed = 1;
nodes = (
(595,-18,o),
(657,-5,o),
(713,18,c),
(592,163,l),
(572,158,o),
(551,156,o),
(530,156,cs),
(368,156,o),
(242,287,o),
(242,450,cs),
(242,602,o),
(352,727,o),
(496,742,c),
(496,917,l),
(250,901,o),
(54,699,o),
(54,450,cs),
(54,191,o),
(267,-18,o),
(530,-18,cs)
);
},
{
closed = 1;
nodes = (
(1023,-30,l),
(624,450,l),
(424,450,l),
(823,-30,l)
);
},
{
closed = 1;
nodes = (
(937,171,o),
(1006,303,o),
(1006,450,cs),
(1006,699,o),
(809,902,o),
(564,917,c),
(564,742,l),
(707,727,o),
(818,603,o),
(818,450,cs),
(818,362,o),
(782,284,o),
(723,231,c),
(829,86,l)
);
}
);
width = 1060;
},
{
anchors = (
{
name = top;
pos = (543,914);
}
);
associatedMasterId = "5864D40E-51E2-4FDD-96DA-51B6D988DC78";
background = {
shapes = (
{
closed = 1;
nodes = (
(805,-17,o),
(1017,195,o),
(1017,457,cs),
(1017,719,o),
(805,931,o),
(543,931,cs),
(281,931,o),
(69,719,o),
(69,457,cs),
(69,195,o),
(281,-17,o),
(543,-17,cs)
);
},
{
closed = 1;
nodes = (
(344,97,o),
(183,258,o),
(183,457,cs),
(183,656,o),
(344,817,o),
(543,817,cs),
(742,817,o),
(903,656,o),
(903,457,cs),
(903,258,o),
(742,97,o),
(543,97,cs)
);
}
);
};
guides = (
{
angle = 133.9646;
pos = (218,128);
},
{
angle = 43.9646;
pos = (280,187);
},
{
angle = 133.9646;
pos = (306,212);
}
);
hints = (
{
horizontal = 1;
origin = (0,11);
target = (1,11);
type = Stem;
},
{
horizontal = 1;
origin = (0,5);
target = (1,5);
type = Stem;
},
{
origin = (0,8);
target = (1,2);
type = Stem;
},
{
origin = (1,8);
target = (0,2);
type = Stem;
}
);
layerId = "62038F63-2B48-4755-9135-1640801CB65A";
name = "Jan 13 17, 16:42";
shapes = (
{
closed = 1;
nodes = (
(805,-17,o),
(1017,195,o),
(1017,457,cs),
(1017,719,o),
(805,931,o),
(543,931,cs),
(281,931,o),
(69,719,o),
(69,457,cs),
(69,195,o),
(281,-17,o),
(543,-17,cs)
);
},
{
closed = 1;
nodes = (
(344,97,o),
(189,258,o),
(189,457,cs),
(189,656,o),
(344,817,o),
(543,817,cs),
(742,817,o),
(897,656,o),
(897,457,cs),
(897,258,o),
(742,97,o),
(543,97,cs)
);
},
{
closed = 1;
nodes = (
(440,44,l),
(509,-125,o),
(676,-240,o),
(875,-240,cs),
(940,-240,o),
(1002,-228,o),
(1057,-206,c),
(1057,-84,l),
(1006,-114,o),
(940,-131,o),
(875,-131,cs),
(745,-131,o),
(632,-62,o),
(572,44,c)
);
}
);
width = 1085;
}
);
unicode = 81;
},
{
glyphname = R;
kernLeft = B;
kernRight = R;
lastChange = "2023-01-13 08:23:39 +0000";
layers = (
{
anchors = (
{
name = bottom;
pos = (439,0);
},
{
name = top;
pos = (325,900);
}
);
background = {
shapes = (
{
closed = 1;
nodes = (
(243,0,l),
(243,900,l),
(129,900,l),
(129,0,l)
);
},
{
closed = 1;
nodes = (
(364,457,l),
(588,0,l),
(715,0,l),
(461,508,l)
);
},
{
closed = 1;
nodes = (
(441,414,o),
(503,440,o),
(549,481,cs),
(598,526,o),
(628,587,o),
(628,655,cs),
(628,725,o),
(597,788,o),
(548,833,cs),
(502,875,o),
(440,900,o),
(355,900,cs),
(186,900,l),
(186,799,l),
(355,799,ls),
(411,799,o),
(448,784,o),
(475,759,cs),
(503,733,o),
(521,696,o),
(521,655,cs),
(521,614,o),
(503,578,o),
(475,551,cs),
(449,525,o),
(412,510,o),
(355,510,cs),
(186,510,l),
(186,414,l),
(355,414,ls)
);
}
);
};
guides = (
{
angle = 180;
pos = (417,412);
},
{
angle = -55.3297;
pos = (641,0);
},
{
angle = 124.8315;
pos = (774,0);
},
{
angle = 124.8315;
pos = (840,0);
}
);
layerId = "3E87E8DA-1F15-4738-9454-A2AB4CEA57DC";
shapes = (
{
closed = 1;
nodes = (
(774,0,l),
(419,510,l),
(303,510,l),
(303,414,l),
(355,414,ls),
(378,414,o),
(399,416,o),
(419,420,c),
(309,480,l),
(641,0,l)
);
},
{
closed = 1;
nodes = (
(243,0,l),
(243,900,l),
(129,900,l),
(129,0,l)
);
},
{
closed = 1;
nodes = (
(589,503,o),
(629,574,o),
(629,655,cs),
(629,787,o),
(524,900,o),
(355,900,cs),
(303,900,l),
(303,798,l),
(355,798,ls),
(455,798,o),
(521,739,o),
(521,655,cs),
(521,613,o),
(503,570,o),
(464,541,c),
(521,459,l)
);
}
);
width = 780;
},
{
associatedMasterId = "3E87E8DA-1F15-4738-9454-A2AB4CEA57DC";
background = {
shapes = (
{
closed = 1;
nodes = (
(211,805,l),
(348,805,ls),
(446,805,o),
(524,727,o),
(524,630,cs),
(524,533,o),
(446,455,o),
(348,455,cs),
(175,455,l),
(172,358,l),
(354,358,ls),
(519,358,o),
(638,482,o),
(638,636,cs),
(638,790,o),
(511,914,o),
(354,914,cs),
(204,914,l)
);
},
{
closed = 1;
nodes = (
(97,0,l),
(211,0,l),
(211,914,l),
(97,914,l)
);
},
{
closed = 1;
nodes = (
(541,0,l),
(666,0,l),
(460,392,l),
(337,392,l)
);
}
);
};
guides = (
{
angle = 180;
pos = (387,412);
},
{
angle = 270;
pos = (700,653);
},
{
angle = 45;
pos = (509,805);
},
{
angle = 45.6535;
pos = (604,895);
}
);
layerId = "EFBA6CD7-7440-4CE8-A9B5-A7DD2AE2B998";
name = "Jan 12 17, 17:33";
shapes = (
{
closed = 1;
nodes = (
(211,805,l),
(348,805,ls),
(446,805,o),
(524,727,o),
(524,630,cs),
(524,533,o),
(446,455,o),
(348,455,cs),
(175,455,l),
(172,358,l),
(354,358,ls),
(519,358,o),
(638,482,o),
(638,636,cs),
(638,790,o),
(511,914,o),
(354,914,cs),
(204,914,l)
);
},
{
closed = 1;
nodes = (
(97,0,l),
(211,0,l),
(211,914,l),
(97,914,l)
);
},
{
closed = 1;
nodes = (
(541,0,l),
(666,0,l),
(460,392,l),
(337,392,l)
);
}
);
width = 686;
},
{
associatedMasterId = "3E87E8DA-1F15-4738-9454-A2AB4CEA57DC";
background = {
shapes = (
{
closed = 1;
nodes = (
(211,805,l),
(348,805,ls),
(446,805,o),
(524,727,o),
(524,630,cs),
(524,533,o),
(446,455,o),
(348,455,cs),
(175,455,l),
(172,358,l),
(354,358,ls),
(519,358,o),
(638,482,o),
(638,636,cs),
(638,790,o),
(511,914,o),
(354,914,cs),
(204,914,l)
);
},
{
closed = 1;
nodes = (
(97,0,l),
(211,0,l),
(211,914,l),
(97,914,l)
);
},
{
closed = 1;
nodes = (
(541,0,l),
(666,0,l),
(460,392,l),
(337,392,l)
);
}
);
};
guides = (
{
angle = 180;
pos = (387,412);
}
);
layerId = "6975ABE6-CB8E-496B-8A26-AD7F974A6BB7";
name = "Oct 5 19, 11:38";
shapes = (
{
closed = 1;
nodes = (
(196,805,l),
(379,805,ls),
(450,805,o),
(488,786,o),
(520,755,cs),
(552,723,o),
(571,679,o),
(571,630,cs),
(571,582,o),
(551,538,o),
(520,507,cs),
(487,474,o),
(450,455,o),
(379,455,cs),
(192,455,l),
(192,358,l),
(402,358,ls),
(566,358,o),
(686,482,o),
(686,636,cs),
(686,713,o),
(654,782,o),
(604,832,cs),
(552,884,o),
(487,914,o),
(385,914,cs),
(196,914,l)
);
},
{
closed = 1;
nodes = (
(114,0,l),
(229,0,l),
(229,914,l),
(114,914,l)
);
},
{
closed = 1;
nodes = (
(600,0,l),
(725,0,l),
(519,392,l),
(396,392,l)
);
}
);
width = 743;
},
{
associatedMasterId = "3E87E8DA-1F15-4738-9454-A2AB4CEA57DC";
background = {
shapes = (
{
closed = 1;
nodes = (
(211,805,l),
(348,805,ls),
(446,805,o),
(524,727,o),
(524,630,cs),
(524,533,o),
(446,455,o),
(348,455,cs),
(175,455,l),
(172,358,l),
(354,358,ls),
(519,358,o),
(638,482,o),
(638,636,cs),
(638,790,o),
(511,914,o),
(354,914,cs),
(204,914,l)
);
},
{
closed = 1;
nodes = (
(97,0,l),
(211,0,l),
(211,914,l),
(97,914,l)
);
},
{
closed = 1;
nodes = (
(541,0,l),
(666,0,l),
(460,392,l),
(337,392,l)
);
}
);
};
guides = (
{
angle = 180;
pos = (387,412);
},
{
pos = (162,560);
}
);
layerId = "6AF07A4B-1417-4C92-8AE6-224F1BCEFF4B";
name = "Oct 5 19, 12:12";
shapes = (
{
closed = 1;
nodes = (
(353,485,l),
(434,485,o),
(482,506,o),
(521,544,cs),
(562,585,o),
(586,636,o),
(586,701,cs),
(586,761,o),
(562,813,o),
(521,854,cs),
(482,893,o),
(434,914,o),
(353,914,cs),
(154,914,l),
(154,811,l),
(348,811,ls),
(396,811,o),
(424,799,o),
(445,779,cs),
(467,758,o),
(478,729,o),
(478,698,cs),
(478,666,o),
(467,637,o),
(445,615,cs),
(424,595,o),
(396,582,o),
(348,582,cs),
(154,582,l),
(154,485,l)
);
},
{
closed = 1;
nodes = (
(211,0,l),
(211,914,l),
(97,914,l),
(97,0,l)
);
},
{
closed = 1;
nodes = (
(304,521,l),
(560,0,l),
(691,0,l),
(405,573,l)
);
}
);
width = 714;
},
{
associatedMasterId = "3E87E8DA-1F15-4738-9454-A2AB4CEA57DC";
background = {
shapes = (
{
closed = 1;
nodes = (
(382,485,l),
(463,485,o),
(510,506,o),
(549,544,cs),
(590,585,o),
(615,636,o),
(615,701,cs),
(615,761,o),
(590,813,o),
(549,854,cs),
(510,893,o),
(463,914,o),
(382,914,cs),
(183,914,l),
(183,811,l),
(376,811,ls),
(425,811,o),
(452,799,o),
(473,779,cs),
(495,758,o),
(507,729,o),
(507,698,cs),
(507,666,o),
(495,637,o),
(473,615,cs),
(452,595,o),
(425,582,o),
(376,582,cs),
(183,582,l),
(183,485,l)
);
},
{
closed = 1;
nodes = (
(240,0,l),
(240,914,l),
(126,914,l),
(126,0,l)
);
},
{
closed = 1;
nodes = (
(332,521,l),
(588,0,l),
(720,0,l),
(433,573,l)
);
}
);
};
guides = (
{
angle = 180;
pos = (417,412);
},
{
pos = (192,560);
},
{
angle = 135;
pos = (390,700);
},
{
angle = 45;
pos = (390,700);
},
{
angle = 90;
pos = (192,493);
}
);
layerId = "C5171D7E-0B55-4D90-945D-3D3154679506";
name = "14 Dec 21, 12:38";
shapes = (
{
closed = 1;
nodes = (
(240,0,l),
(240,914,l),
(126,914,l),
(126,0,l)
);
},
{
closed = 1;
nodes = (
(363,464,l),
(590,0,l),
(720,0,l),
(462,516,l)
);
},
{
closed = 1;
nodes = (
(441,421,o),
(505,447,o),
(551,488,cs),
(601,534,o),
(631,596,o),
(631,666,cs),
(631,736,o),
(600,801,o),
(550,845,cs),
(504,888,o),
(440,914,o),
(354,914,cs),
(183,914,l),
(183,811,l),
(354,811,ls),
(411,811,o),
(448,796,o),
(476,771,cs),
(505,745,o),
(523,706,o),
(523,666,cs),
(523,624,o),
(505,586,o),
(476,560,cs),
(449,533,o),
(412,518,o),
(354,518,cs),
(183,518,l),
(183,421,l),
(354,421,ls)
);
}
);
width = 743;
},
{
anchors = (
{
name = bottom;
pos = (439,0);
},
{
name = top;
pos = (325,900);
}
);
background = {
shapes = (
{
closed = 1;
nodes = (
(243,0,l),
(243,900,l),
(129,900,l),
(129,0,l)
);
},
{
closed = 1;
nodes = (
(364,457,l),
(588,0,l),
(715,0,l),
(461,508,l)
);
},
{
closed = 1;
nodes = (
(441,414,o),
(503,440,o),
(549,481,cs),
(598,526,o),
(628,587,o),
(628,655,cs),
(628,725,o),
(597,788,o),
(548,833,cs),
(502,875,o),
(440,900,o),
(355,900,cs),
(186,900,l),
(186,799,l),
(355,799,ls),
(411,799,o),
(448,784,o),
(475,759,cs),
(503,733,o),
(521,696,o),
(521,655,cs),
(521,614,o),
(503,578,o),
(475,551,cs),
(449,525,o),
(412,510,o),
(355,510,cs),
(186,510,l),
(186,414,l),
(355,414,ls)
);
}
);
};
guides = (
{
angle = 121.0417;
pos = (728,216);
},
{
angle = 121.0417;
pos = (656,216);
}
);
layerId = "5864D40E-51E2-4FDD-96DA-51B6D988DC78";
shapes = (
{
closed = 1;
nodes = (
(786,0,l),
(490,492,l),
(333,492,l),
(333,342,l),
(374,342,ls),
(421,342,o),
(464,349,o),
(502,363,c),
(337,432,l),
(589,0,l)
);
},
{
closed = 1;
nodes = (
(273,0,l),
(273,900,l),
(99,900,l),
(99,0,l)
);
},
{
closed = 1;
nodes = (
(656,472,o),
(685,539,o),
(685,616,cs),
(685,769,o),
(570,900,o),
(374,900,cs),
(333,900,l),
(333,738,l),
(370,738,ls),
(454,738,o),
(511,687,o),
(511,616,cs),
(511,605,o),
(510,595,o),
(507,584,c),
(604,423,l)
);
}
);
width = 800;
},
{
associatedMasterId = "5864D40E-51E2-4FDD-96DA-51B6D988DC78";
background = {
shapes = (
{
closed = 1;
nodes = (
(211,805,l),
(348,805,ls),
(446,805,o),
(524,727,o),
(524,630,cs),
(524,533,o),
(446,455,o),
(348,455,cs),
(175,455,l),
(172,358,l),
(354,358,ls),
(519,358,o),
(638,482,o),
(638,636,cs),
(638,790,o),
(511,914,o),
(354,914,cs),
(204,914,l)
);
},
{
closed = 1;
nodes = (
(97,0,l),
(211,0,l),
(211,914,l),
(97,914,l)
);
},
{
closed = 1;
nodes = (
(541,0,l),
(666,0,l),
(460,392,l),
(337,392,l)
);
}
);
};
guides = (
{
angle = 180;
pos = (387,412);
},
{
angle = 270;
pos = (700,653);
},
{
angle = 45;
pos = (509,805);
},
{
angle = 45.6535;
pos = (604,895);
}
);
layerId = "0D8D1A78-7E35-44F0-B61F-26F9796EB917";
name = "Jan 12 17, 17:33";
shapes = (
{
closed = 1;
nodes = (
(211,805,l),
(348,805,ls),
(446,805,o),
(524,727,o),
(524,630,cs),
(524,533,o),
(446,455,o),
(348,455,cs),
(175,455,l),
(172,358,l),
(354,358,ls),
(519,358,o),
(638,482,o),
(638,636,cs),
(638,790,o),
(511,914,o),
(354,914,cs),
(204,914,l)
);
},
{
closed = 1;
nodes = (
(97,0,l),
(211,0,l),
(211,914,l),
(97,914,l)
);
},
{
closed = 1;
nodes = (
(541,0,l),
(666,0,l),
(460,392,l),
(337,392,l)
);
}
);
width = 686;
},
{
associatedMasterId = "5864D40E-51E2-4FDD-96DA-51B6D988DC78";
background = {
shapes = (
{
closed = 1;
nodes = (
(211,805,l),
(348,805,ls),
(446,805,o),
(524,727,o),
(524,630,cs),
(524,533,o),
(446,455,o),
(348,455,cs),
(175,455,l),
(172,358,l),
(354,358,ls),
(519,358,o),
(638,482,o),
(638,636,cs),
(638,790,o),
(511,914,o),
(354,914,cs),
(204,914,l)
);
},
{
closed = 1;
nodes = (
(97,0,l),
(211,0,l),
(211,914,l),
(97,914,l)
);
},
{
closed = 1;
nodes = (
(541,0,l),
(666,0,l),
(460,392,l),
(337,392,l)
);
}
);
};
guides = (
{
angle = 180;
pos = (387,412);
}
);
layerId = "1A182452-8CF5-4B22-8FBC-1CF20378082A";
name = "Oct 5 19, 11:38";
shapes = (
{
closed = 1;
nodes = (
(196,805,l),
(379,805,ls),
(450,805,o),
(488,786,o),
(520,755,cs),
(552,723,o),
(571,679,o),
(571,630,cs),
(571,582,o),
(551,538,o),
(520,507,cs),
(487,474,o),
(450,455,o),
(379,455,cs),
(192,455,l),
(192,358,l),
(402,358,ls),
(566,358,o),
(686,482,o),
(686,636,cs),
(686,713,o),
(654,782,o),
(604,832,cs),
(552,884,o),
(487,914,o),
(385,914,cs),
(196,914,l)
);
},
{
closed = 1;
nodes = (
(114,0,l),
(229,0,l),
(229,914,l),
(114,914,l)
);
},
{
closed = 1;
nodes = (
(600,0,l),
(725,0,l),
(519,392,l),
(396,392,l)
);
}
);
width = 743;
},
{
associatedMasterId = "5864D40E-51E2-4FDD-96DA-51B6D988DC78";
background = {
shapes = (
{
closed = 1;
nodes = (
(211,805,l),
(348,805,ls),
(446,805,o),
(524,727,o),
(524,630,cs),
(524,533,o),
(446,455,o),
(348,455,cs),
(175,455,l),
(172,358,l),
(354,358,ls),
(519,358,o),
(638,482,o),
(638,636,cs),
(638,790,o),
(511,914,o),
(354,914,cs),
(204,914,l)
);
},
{
closed = 1;
nodes = (
(97,0,l),
(211,0,l),
(211,914,l),
(97,914,l)
);
},
{
closed = 1;
nodes = (
(541,0,l),
(666,0,l),
(460,392,l),
(337,392,l)
);
}
);
};
guides = (
{
angle = 180;
pos = (387,412);
},
{
pos = (162,560);
}
);
layerId = "31DB2DBF-B37E-4792-A70D-447703A84701";
name = "Oct 5 19, 12:12";
shapes = (
{
closed = 1;
nodes = (
(353,485,l),
(434,485,o),
(482,506,o),
(521,544,cs),
(562,585,o),
(586,636,o),
(586,701,cs),
(586,761,o),
(562,813,o),
(521,854,cs),
(482,893,o),
(434,914,o),
(353,914,cs),
(154,914,l),
(154,811,l),
(348,811,ls),
(396,811,o),
(424,799,o),
(445,779,cs),
(467,758,o),
(478,729,o),
(478,698,cs),
(478,666,o),
(467,637,o),
(445,615,cs),
(424,595,o),
(396,582,o),
(348,582,cs),
(154,582,l),
(154,485,l)
);
},
{
closed = 1;
nodes = (
(211,0,l),
(211,914,l),
(97,914,l),
(97,0,l)
);
},
{
closed = 1;
nodes = (
(304,521,l),
(560,0,l),
(691,0,l),
(405,573,l)
);
}
);
width = 714;
},
{
associatedMasterId = "5864D40E-51E2-4FDD-96DA-51B6D988DC78";
background = {
shapes = (
{
closed = 1;
nodes = (
(382,485,l),
(463,485,o),
(510,506,o),
(549,544,cs),
(590,585,o),
(615,636,o),
(615,701,cs),
(615,761,o),
(590,813,o),
(549,854,cs),
(510,893,o),
(463,914,o),
(382,914,cs),
(183,914,l),
(183,811,l),
(376,811,ls),
(425,811,o),
(452,799,o),
(473,779,cs),
(495,758,o),
(507,729,o),
(507,698,cs),
(507,666,o),
(495,637,o),
(473,615,cs),
(452,595,o),
(425,582,o),
(376,582,cs),
(183,582,l),
(183,485,l)
);
},
{
closed = 1;
nodes = (
(240,0,l),
(240,914,l),
(126,914,l),
(126,0,l)
);
},
{
closed = 1;
nodes = (
(332,521,l),
(588,0,l),
(720,0,l),
(433,573,l)
);
}
);
};
guides = (
{
angle = 180;
pos = (417,412);
},
{
pos = (192,560);
},
{
angle = 135;
pos = (390,700);
},
{
angle = 45;
pos = (390,700);
},
{
angle = 90;
pos = (192,493);
}
);
layerId = "50FF0EDE-D4DB-4607-B50E-46803AA95642";
name = "14 Dec 21, 12:38";
shapes = (
{
closed = 1;
nodes = (
(240,0,l),
(240,914,l),
(126,914,l),
(126,0,l)
);
},
{
closed = 1;
nodes = (
(363,464,l),
(590,0,l),
(720,0,l),
(462,516,l)
);
},
{
closed = 1;
nodes = (
(441,421,o),
(505,447,o),
(551,488,cs),
(601,534,o),
(631,596,o),
(631,666,cs),
(631,736,o),
(600,801,o),
(550,845,cs),
(504,888,o),
(440,914,o),
(354,914,cs),
(183,914,l),
(183,811,l),
(354,811,ls),
(411,811,o),
(448,796,o),
(476,771,cs),
(505,745,o),
(523,706,o),
(523,666,cs),
(523,624,o),
(505,586,o),
(476,560,cs),
(449,533,o),
(412,518,o),
(354,518,cs),
(183,518,l),
(183,421,l),
(354,421,ls)
);
}
);
width = 743;
}
);
unicode = 82;
},
